<svg width="10" height="16" viewBox="0 0 10 16" fill="none" xmlns="http://www.w3.org/2000/svg">
<path d="M4.84074 9.04036C5.20893 9.04036 5.50741 8.74189 5.50741 8.3737C5.50741 8.00551 5.20893 7.70703 4.84074 7.70703C4.47255 7.70703 4.17407 8.00551 4.17407 8.3737C4.17407 8.74189 4.47255 9.04036 4.84074 9.04036Z" stroke="#64748B" stroke-width="2" stroke-linecap="round" stroke-linejoin="round"/>
<path d="M4.84074 4.37386C5.20893 4.37386 5.50741 4.07538 5.50741 3.70719C5.50741 3.339 5.20893 3.04053 4.84074 3.04053C4.47255 3.04053 4.17407 3.339 4.17407 3.70719C4.17407 4.07538 4.47255 4.37386 4.84074 4.37386Z" stroke="#64748B" stroke-width="2" stroke-linecap="round" stroke-linejoin="round"/>
<path d="M4.84074 13.7071C5.20893 13.7071 5.50741 13.4086 5.50741 13.0404C5.50741 12.6723 5.20893 12.3738 4.84074 12.3738C4.47255 12.3738 4.17407 12.6723 4.17407 13.0404C4.17407 13.4086 4.47255 13.7071 4.84074 13.7071Z" stroke="#64748B" stroke-width="2" stroke-linecap="round" stroke-linejoin="round"/>
</svg>
