<svg width="345" height="583" viewBox="0 0 345 583" fill="none" xmlns="http://www.w3.org/2000/svg">
<g opacity="0.16">
<path d="M10 5C10 7.76142 7.76142 10 5 10C2.23858 10 0 7.76142 0 5C0 2.23858 2.23858 0 5 0C7.76142 0 10 2.23858 10 5Z" fill="url(#paint0_linear_381_1076)"/>
<path d="M10 52.7242C10 55.4856 7.76142 57.7242 5 57.7242C2.23858 57.7242 0 55.4856 0 52.7242C0 49.9627 2.23858 47.7242 5 47.7242C7.76142 47.7242 10 49.9627 10 52.7242Z" fill="url(#paint1_linear_381_1076)"/>
<path d="M10 100.448C10 103.21 7.76142 105.448 5 105.448C2.23858 105.448 0 103.21 0 100.448C0 97.6869 2.23858 95.4483 5 95.4483C7.76142 95.4483 10 97.6869 10 100.448Z" fill="url(#paint2_linear_381_1076)"/>
<path d="M10 148.173C10 150.934 7.76142 153.173 5 153.173C2.23858 153.173 0 150.934 0 148.173C0 145.411 2.23858 143.173 5 143.173C7.76142 143.173 10 145.411 10 148.173Z" fill="url(#paint3_linear_381_1076)"/>
<path d="M10 195.897C10 198.658 7.76142 200.897 5 200.897C2.23858 200.897 0 198.658 0 195.897C0 193.135 2.23858 190.897 5 190.897C7.76142 190.897 10 193.135 10 195.897Z" fill="url(#paint4_linear_381_1076)"/>
<path d="M10 243.621C10 246.382 7.76142 248.621 5 248.621C2.23858 248.621 0 246.382 0 243.621C0 240.859 2.23858 238.621 5 238.621C7.76142 238.621 10 240.859 10 243.621Z" fill="url(#paint5_linear_381_1076)"/>
<path d="M10 291.345C10 294.106 7.76142 296.345 5 296.345C2.23858 296.345 0 294.106 0 291.345C0 288.584 2.23858 286.345 5 286.345C7.76142 286.345 10 288.584 10 291.345Z" fill="url(#paint6_linear_381_1076)"/>
<path d="M10 339.069C10 341.831 7.76142 344.069 5 344.069C2.23858 344.069 0 341.831 0 339.069C0 336.308 2.23858 334.069 5 334.069C7.76142 334.069 10 336.308 10 339.069Z" fill="url(#paint7_linear_381_1076)"/>
<path d="M10 386.793C10 389.555 7.76142 391.793 5 391.793C2.23858 391.793 0 389.555 0 386.793C0 384.032 2.23858 381.793 5 381.793C7.76142 381.793 10 384.032 10 386.793Z" fill="url(#paint8_linear_381_1076)"/>
<path d="M10 434.518C10 437.279 7.76142 439.518 5 439.518C2.23858 439.518 0 437.279 0 434.518C0 431.756 2.23858 429.518 5 429.518C7.76142 429.518 10 431.756 10 434.518Z" fill="url(#paint9_linear_381_1076)"/>
<path d="M10 482.242C10 485.003 7.76142 487.242 5 487.242C2.23858 487.242 0 485.003 0 482.242C0 479.48 2.23858 477.242 5 477.242C7.76142 477.242 10 479.48 10 482.242Z" fill="url(#paint10_linear_381_1076)"/>
<path d="M10 529.966C10 532.727 7.76142 534.966 5 534.966C2.23858 534.966 0 532.727 0 529.966C0 527.204 2.23858 524.966 5 524.966C7.76142 524.966 10 527.204 10 529.966Z" fill="url(#paint11_linear_381_1076)"/>
<path d="M10 577.69C10 580.451 7.76142 582.69 5 582.69C2.23858 582.69 0 580.451 0 577.69C0 574.929 2.23858 572.69 5 572.69C7.76142 572.69 10 574.929 10 577.69Z" fill="url(#paint12_linear_381_1076)"/>
<path d="M51.7586 5C51.7586 7.76142 49.52 10 46.7586 10C43.9972 10 41.7586 7.76142 41.7586 5C41.7586 2.23858 43.9972 0 46.7586 0C49.52 0 51.7586 2.23858 51.7586 5Z" fill="url(#paint13_linear_381_1076)"/>
<path d="M51.7586 52.7242C51.7586 55.4856 49.52 57.7242 46.7586 57.7242C43.9972 57.7242 41.7586 55.4856 41.7586 52.7242C41.7586 49.9627 43.9972 47.7242 46.7586 47.7242C49.52 47.7242 51.7586 49.9627 51.7586 52.7242Z" fill="url(#paint14_linear_381_1076)"/>
<path d="M51.7586 100.448C51.7586 103.21 49.52 105.448 46.7586 105.448C43.9972 105.448 41.7586 103.21 41.7586 100.448C41.7586 97.6869 43.9972 95.4483 46.7586 95.4483C49.52 95.4483 51.7586 97.6869 51.7586 100.448Z" fill="url(#paint15_linear_381_1076)"/>
<path d="M51.7586 148.173C51.7586 150.934 49.52 153.173 46.7586 153.173C43.9972 153.173 41.7586 150.934 41.7586 148.173C41.7586 145.411 43.9972 143.173 46.7586 143.173C49.52 143.173 51.7586 145.411 51.7586 148.173Z" fill="url(#paint16_linear_381_1076)"/>
<path d="M51.7586 195.897C51.7586 198.658 49.52 200.897 46.7586 200.897C43.9972 200.897 41.7586 198.658 41.7586 195.897C41.7586 193.135 43.9972 190.897 46.7586 190.897C49.52 190.897 51.7586 193.135 51.7586 195.897Z" fill="url(#paint17_linear_381_1076)"/>
<path d="M51.7586 243.621C51.7586 246.382 49.52 248.621 46.7586 248.621C43.9972 248.621 41.7586 246.382 41.7586 243.621C41.7586 240.859 43.9972 238.621 46.7586 238.621C49.52 238.621 51.7586 240.859 51.7586 243.621Z" fill="url(#paint18_linear_381_1076)"/>
<path d="M51.7586 291.345C51.7586 294.106 49.52 296.345 46.7586 296.345C43.9972 296.345 41.7586 294.106 41.7586 291.345C41.7586 288.584 43.9972 286.345 46.7586 286.345C49.52 286.345 51.7586 288.584 51.7586 291.345Z" fill="url(#paint19_linear_381_1076)"/>
<path d="M51.7586 339.069C51.7586 341.831 49.52 344.069 46.7586 344.069C43.9972 344.069 41.7586 341.831 41.7586 339.069C41.7586 336.308 43.9972 334.069 46.7586 334.069C49.52 334.069 51.7586 336.308 51.7586 339.069Z" fill="url(#paint20_linear_381_1076)"/>
<path d="M51.7586 386.793C51.7586 389.555 49.52 391.793 46.7586 391.793C43.9972 391.793 41.7586 389.555 41.7586 386.793C41.7586 384.032 43.9972 381.793 46.7586 381.793C49.52 381.793 51.7586 384.032 51.7586 386.793Z" fill="url(#paint21_linear_381_1076)"/>
<path d="M51.7586 434.518C51.7586 437.279 49.52 439.518 46.7586 439.518C43.9972 439.518 41.7586 437.279 41.7586 434.518C41.7586 431.756 43.9972 429.518 46.7586 429.518C49.52 429.518 51.7586 431.756 51.7586 434.518Z" fill="url(#paint22_linear_381_1076)"/>
<path d="M51.7586 482.242C51.7586 485.003 49.52 487.242 46.7586 487.242C43.9972 487.242 41.7586 485.003 41.7586 482.242C41.7586 479.48 43.9972 477.242 46.7586 477.242C49.52 477.242 51.7586 479.48 51.7586 482.242Z" fill="url(#paint23_linear_381_1076)"/>
<path d="M51.7586 529.966C51.7586 532.727 49.52 534.966 46.7586 534.966C43.9972 534.966 41.7586 532.727 41.7586 529.966C41.7586 527.204 43.9972 524.966 46.7586 524.966C49.52 524.966 51.7586 527.204 51.7586 529.966Z" fill="url(#paint24_linear_381_1076)"/>
<path d="M51.7586 577.69C51.7586 580.451 49.52 582.69 46.7586 582.69C43.9972 582.69 41.7586 580.451 41.7586 577.69C41.7586 574.929 43.9972 572.69 46.7586 572.69C49.52 572.69 51.7586 574.929 51.7586 577.69Z" fill="url(#paint25_linear_381_1076)"/>
<path d="M93.5172 5C93.5172 7.76142 91.2787 10 88.5172 10C85.7558 10 83.5172 7.76142 83.5172 5C83.5172 2.23858 85.7558 0 88.5172 0C91.2787 0 93.5172 2.23858 93.5172 5Z" fill="url(#paint26_linear_381_1076)"/>
<path d="M93.5172 52.7242C93.5172 55.4856 91.2787 57.7242 88.5172 57.7242C85.7558 57.7242 83.5172 55.4856 83.5172 52.7242C83.5172 49.9627 85.7558 47.7242 88.5172 47.7242C91.2787 47.7242 93.5172 49.9627 93.5172 52.7242Z" fill="url(#paint27_linear_381_1076)"/>
<path d="M93.5172 100.448C93.5172 103.21 91.2787 105.448 88.5172 105.448C85.7558 105.448 83.5172 103.21 83.5172 100.448C83.5172 97.6869 85.7558 95.4483 88.5172 95.4483C91.2787 95.4483 93.5172 97.6869 93.5172 100.448Z" fill="url(#paint28_linear_381_1076)"/>
<path d="M93.5172 148.173C93.5172 150.934 91.2787 153.173 88.5172 153.173C85.7558 153.173 83.5172 150.934 83.5172 148.173C83.5172 145.411 85.7558 143.173 88.5172 143.173C91.2787 143.173 93.5172 145.411 93.5172 148.173Z" fill="url(#paint29_linear_381_1076)"/>
<path d="M93.5172 195.897C93.5172 198.658 91.2787 200.897 88.5172 200.897C85.7558 200.897 83.5172 198.658 83.5172 195.897C83.5172 193.135 85.7558 190.897 88.5172 190.897C91.2787 190.897 93.5172 193.135 93.5172 195.897Z" fill="url(#paint30_linear_381_1076)"/>
<path d="M93.5172 243.621C93.5172 246.382 91.2787 248.621 88.5172 248.621C85.7558 248.621 83.5172 246.382 83.5172 243.621C83.5172 240.859 85.7558 238.621 88.5172 238.621C91.2787 238.621 93.5172 240.859 93.5172 243.621Z" fill="url(#paint31_linear_381_1076)"/>
<path d="M93.5172 291.345C93.5172 294.106 91.2787 296.345 88.5172 296.345C85.7558 296.345 83.5172 294.106 83.5172 291.345C83.5172 288.584 85.7558 286.345 88.5172 286.345C91.2787 286.345 93.5172 288.584 93.5172 291.345Z" fill="url(#paint32_linear_381_1076)"/>
<path d="M93.5172 339.069C93.5172 341.831 91.2787 344.069 88.5172 344.069C85.7558 344.069 83.5172 341.831 83.5172 339.069C83.5172 336.308 85.7558 334.069 88.5172 334.069C91.2787 334.069 93.5172 336.308 93.5172 339.069Z" fill="url(#paint33_linear_381_1076)"/>
<path d="M93.5172 386.793C93.5172 389.555 91.2787 391.793 88.5172 391.793C85.7558 391.793 83.5172 389.555 83.5172 386.793C83.5172 384.032 85.7558 381.793 88.5172 381.793C91.2787 381.793 93.5172 384.032 93.5172 386.793Z" fill="url(#paint34_linear_381_1076)"/>
<path d="M93.5172 434.518C93.5172 437.279 91.2787 439.518 88.5172 439.518C85.7558 439.518 83.5172 437.279 83.5172 434.518C83.5172 431.756 85.7558 429.518 88.5172 429.518C91.2787 429.518 93.5172 431.756 93.5172 434.518Z" fill="url(#paint35_linear_381_1076)"/>
<path d="M93.5172 482.242C93.5172 485.003 91.2787 487.242 88.5172 487.242C85.7558 487.242 83.5172 485.003 83.5172 482.242C83.5172 479.48 85.7558 477.242 88.5172 477.242C91.2787 477.242 93.5172 479.48 93.5172 482.242Z" fill="url(#paint36_linear_381_1076)"/>
<path d="M93.5172 529.966C93.5172 532.727 91.2787 534.966 88.5172 534.966C85.7558 534.966 83.5172 532.727 83.5172 529.966C83.5172 527.204 85.7558 524.966 88.5172 524.966C91.2787 524.966 93.5172 527.204 93.5172 529.966Z" fill="url(#paint37_linear_381_1076)"/>
<path d="M93.5172 577.69C93.5172 580.451 91.2787 582.69 88.5172 582.69C85.7558 582.69 83.5172 580.451 83.5172 577.69C83.5172 574.929 85.7558 572.69 88.5172 572.69C91.2787 572.69 93.5172 574.929 93.5172 577.69Z" fill="url(#paint38_linear_381_1076)"/>
<path d="M135.276 5C135.276 7.76142 133.037 10 130.276 10C127.514 10 125.276 7.76142 125.276 5C125.276 2.23858 127.514 0 130.276 0C133.037 0 135.276 2.23858 135.276 5Z" fill="url(#paint39_linear_381_1076)"/>
<path d="M135.276 52.7242C135.276 55.4856 133.037 57.7242 130.276 57.7242C127.514 57.7242 125.276 55.4856 125.276 52.7242C125.276 49.9627 127.514 47.7242 130.276 47.7242C133.037 47.7242 135.276 49.9627 135.276 52.7242Z" fill="url(#paint40_linear_381_1076)"/>
<path d="M135.276 100.448C135.276 103.21 133.037 105.448 130.276 105.448C127.514 105.448 125.276 103.21 125.276 100.448C125.276 97.6869 127.514 95.4483 130.276 95.4483C133.037 95.4483 135.276 97.6869 135.276 100.448Z" fill="url(#paint41_linear_381_1076)"/>
<path d="M135.276 148.173C135.276 150.934 133.037 153.173 130.276 153.173C127.514 153.173 125.276 150.934 125.276 148.173C125.276 145.411 127.514 143.173 130.276 143.173C133.037 143.173 135.276 145.411 135.276 148.173Z" fill="url(#paint42_linear_381_1076)"/>
<path d="M135.276 195.897C135.276 198.658 133.037 200.897 130.276 200.897C127.514 200.897 125.276 198.658 125.276 195.897C125.276 193.135 127.514 190.897 130.276 190.897C133.037 190.897 135.276 193.135 135.276 195.897Z" fill="url(#paint43_linear_381_1076)"/>
<path d="M135.276 243.621C135.276 246.382 133.037 248.621 130.276 248.621C127.514 248.621 125.276 246.382 125.276 243.621C125.276 240.859 127.514 238.621 130.276 238.621C133.037 238.621 135.276 240.859 135.276 243.621Z" fill="url(#paint44_linear_381_1076)"/>
<path d="M135.276 291.345C135.276 294.106 133.037 296.345 130.276 296.345C127.514 296.345 125.276 294.106 125.276 291.345C125.276 288.584 127.514 286.345 130.276 286.345C133.037 286.345 135.276 288.584 135.276 291.345Z" fill="url(#paint45_linear_381_1076)"/>
<path d="M135.276 339.069C135.276 341.831 133.037 344.069 130.276 344.069C127.514 344.069 125.276 341.831 125.276 339.069C125.276 336.308 127.514 334.069 130.276 334.069C133.037 334.069 135.276 336.308 135.276 339.069Z" fill="url(#paint46_linear_381_1076)"/>
<path d="M135.276 386.793C135.276 389.555 133.037 391.793 130.276 391.793C127.514 391.793 125.276 389.555 125.276 386.793C125.276 384.032 127.514 381.793 130.276 381.793C133.037 381.793 135.276 384.032 135.276 386.793Z" fill="url(#paint47_linear_381_1076)"/>
<path d="M135.276 434.518C135.276 437.279 133.037 439.518 130.276 439.518C127.514 439.518 125.276 437.279 125.276 434.518C125.276 431.756 127.514 429.518 130.276 429.518C133.037 429.518 135.276 431.756 135.276 434.518Z" fill="url(#paint48_linear_381_1076)"/>
<path d="M135.276 482.242C135.276 485.003 133.037 487.242 130.276 487.242C127.514 487.242 125.276 485.003 125.276 482.242C125.276 479.48 127.514 477.242 130.276 477.242C133.037 477.242 135.276 479.48 135.276 482.242Z" fill="url(#paint49_linear_381_1076)"/>
<path d="M135.276 529.966C135.276 532.727 133.037 534.966 130.276 534.966C127.514 534.966 125.276 532.727 125.276 529.966C125.276 527.204 127.514 524.966 130.276 524.966C133.037 524.966 135.276 527.204 135.276 529.966Z" fill="url(#paint50_linear_381_1076)"/>
<path d="M135.276 577.69C135.276 580.451 133.037 582.69 130.276 582.69C127.514 582.69 125.276 580.451 125.276 577.69C125.276 574.929 127.514 572.69 130.276 572.69C133.037 572.69 135.276 574.929 135.276 577.69Z" fill="url(#paint51_linear_381_1076)"/>
<path d="M177.034 5C177.034 7.76142 174.796 10 172.034 10C169.273 10 167.034 7.76142 167.034 5C167.034 2.23858 169.273 0 172.034 0C174.796 0 177.034 2.23858 177.034 5Z" fill="url(#paint52_linear_381_1076)"/>
<path d="M177.034 52.7242C177.034 55.4856 174.796 57.7242 172.034 57.7242C169.273 57.7242 167.034 55.4856 167.034 52.7242C167.034 49.9627 169.273 47.7242 172.034 47.7242C174.796 47.7242 177.034 49.9627 177.034 52.7242Z" fill="url(#paint53_linear_381_1076)"/>
<path d="M177.034 100.448C177.034 103.21 174.796 105.448 172.034 105.448C169.273 105.448 167.034 103.21 167.034 100.448C167.034 97.6869 169.273 95.4483 172.034 95.4483C174.796 95.4483 177.034 97.6869 177.034 100.448Z" fill="url(#paint54_linear_381_1076)"/>
<path d="M177.034 148.173C177.034 150.934 174.796 153.173 172.034 153.173C169.273 153.173 167.034 150.934 167.034 148.173C167.034 145.411 169.273 143.173 172.034 143.173C174.796 143.173 177.034 145.411 177.034 148.173Z" fill="url(#paint55_linear_381_1076)"/>
<path d="M177.034 195.897C177.034 198.658 174.796 200.897 172.034 200.897C169.273 200.897 167.034 198.658 167.034 195.897C167.034 193.135 169.273 190.897 172.034 190.897C174.796 190.897 177.034 193.135 177.034 195.897Z" fill="url(#paint56_linear_381_1076)"/>
<path d="M177.034 243.621C177.034 246.382 174.796 248.621 172.034 248.621C169.273 248.621 167.034 246.382 167.034 243.621C167.034 240.859 169.273 238.621 172.034 238.621C174.796 238.621 177.034 240.859 177.034 243.621Z" fill="url(#paint57_linear_381_1076)"/>
<path d="M177.034 291.345C177.034 294.106 174.796 296.345 172.034 296.345C169.273 296.345 167.034 294.106 167.034 291.345C167.034 288.584 169.273 286.345 172.034 286.345C174.796 286.345 177.034 288.584 177.034 291.345Z" fill="url(#paint58_linear_381_1076)"/>
<path d="M177.034 339.069C177.034 341.831 174.796 344.069 172.034 344.069C169.273 344.069 167.034 341.831 167.034 339.069C167.034 336.308 169.273 334.069 172.034 334.069C174.796 334.069 177.034 336.308 177.034 339.069Z" fill="url(#paint59_linear_381_1076)"/>
<path d="M177.034 386.793C177.034 389.555 174.796 391.793 172.034 391.793C169.273 391.793 167.034 389.555 167.034 386.793C167.034 384.032 169.273 381.793 172.034 381.793C174.796 381.793 177.034 384.032 177.034 386.793Z" fill="url(#paint60_linear_381_1076)"/>
<path d="M177.034 434.518C177.034 437.279 174.796 439.518 172.034 439.518C169.273 439.518 167.034 437.279 167.034 434.518C167.034 431.756 169.273 429.518 172.034 429.518C174.796 429.518 177.034 431.756 177.034 434.518Z" fill="url(#paint61_linear_381_1076)"/>
<path d="M177.034 482.242C177.034 485.003 174.796 487.242 172.034 487.242C169.273 487.242 167.034 485.003 167.034 482.242C167.034 479.48 169.273 477.242 172.034 477.242C174.796 477.242 177.034 479.48 177.034 482.242Z" fill="url(#paint62_linear_381_1076)"/>
<path d="M177.034 529.966C177.034 532.727 174.796 534.966 172.034 534.966C169.273 534.966 167.034 532.727 167.034 529.966C167.034 527.204 169.273 524.966 172.034 524.966C174.796 524.966 177.034 527.204 177.034 529.966Z" fill="url(#paint63_linear_381_1076)"/>
<path d="M177.034 577.69C177.034 580.451 174.796 582.69 172.034 582.69C169.273 582.69 167.034 580.451 167.034 577.69C167.034 574.929 169.273 572.69 172.034 572.69C174.796 572.69 177.034 574.929 177.034 577.69Z" fill="url(#paint64_linear_381_1076)"/>
<path d="M218.793 5C218.793 7.76142 216.555 10 213.793 10C211.032 10 208.793 7.76142 208.793 5C208.793 2.23858 211.032 0 213.793 0C216.555 0 218.793 2.23858 218.793 5Z" fill="url(#paint65_linear_381_1076)"/>
<path d="M218.793 52.7242C218.793 55.4856 216.555 57.7242 213.793 57.7242C211.032 57.7242 208.793 55.4856 208.793 52.7242C208.793 49.9627 211.032 47.7242 213.793 47.7242C216.555 47.7242 218.793 49.9627 218.793 52.7242Z" fill="url(#paint66_linear_381_1076)"/>
<path d="M218.793 100.448C218.793 103.21 216.555 105.448 213.793 105.448C211.032 105.448 208.793 103.21 208.793 100.448C208.793 97.6869 211.032 95.4483 213.793 95.4483C216.555 95.4483 218.793 97.6869 218.793 100.448Z" fill="url(#paint67_linear_381_1076)"/>
<path d="M218.793 148.173C218.793 150.934 216.555 153.173 213.793 153.173C211.032 153.173 208.793 150.934 208.793 148.173C208.793 145.411 211.032 143.173 213.793 143.173C216.555 143.173 218.793 145.411 218.793 148.173Z" fill="url(#paint68_linear_381_1076)"/>
<path d="M218.793 195.897C218.793 198.658 216.555 200.897 213.793 200.897C211.032 200.897 208.793 198.658 208.793 195.897C208.793 193.135 211.032 190.897 213.793 190.897C216.555 190.897 218.793 193.135 218.793 195.897Z" fill="url(#paint69_linear_381_1076)"/>
<path d="M218.793 243.621C218.793 246.382 216.555 248.621 213.793 248.621C211.032 248.621 208.793 246.382 208.793 243.621C208.793 240.859 211.032 238.621 213.793 238.621C216.555 238.621 218.793 240.859 218.793 243.621Z" fill="url(#paint70_linear_381_1076)"/>
<path d="M218.793 291.345C218.793 294.106 216.555 296.345 213.793 296.345C211.032 296.345 208.793 294.106 208.793 291.345C208.793 288.584 211.032 286.345 213.793 286.345C216.555 286.345 218.793 288.584 218.793 291.345Z" fill="url(#paint71_linear_381_1076)"/>
<path d="M218.793 339.069C218.793 341.831 216.555 344.069 213.793 344.069C211.032 344.069 208.793 341.831 208.793 339.069C208.793 336.308 211.032 334.069 213.793 334.069C216.555 334.069 218.793 336.308 218.793 339.069Z" fill="url(#paint72_linear_381_1076)"/>
<path d="M218.793 386.793C218.793 389.555 216.555 391.793 213.793 391.793C211.032 391.793 208.793 389.555 208.793 386.793C208.793 384.032 211.032 381.793 213.793 381.793C216.555 381.793 218.793 384.032 218.793 386.793Z" fill="url(#paint73_linear_381_1076)"/>
<path d="M218.793 434.518C218.793 437.279 216.555 439.518 213.793 439.518C211.032 439.518 208.793 437.279 208.793 434.518C208.793 431.756 211.032 429.518 213.793 429.518C216.555 429.518 218.793 431.756 218.793 434.518Z" fill="url(#paint74_linear_381_1076)"/>
<path d="M218.793 482.242C218.793 485.003 216.555 487.242 213.793 487.242C211.032 487.242 208.793 485.003 208.793 482.242C208.793 479.48 211.032 477.242 213.793 477.242C216.555 477.242 218.793 479.48 218.793 482.242Z" fill="url(#paint75_linear_381_1076)"/>
<path d="M218.793 529.966C218.793 532.727 216.555 534.966 213.793 534.966C211.032 534.966 208.793 532.727 208.793 529.966C208.793 527.204 211.032 524.966 213.793 524.966C216.555 524.966 218.793 527.204 218.793 529.966Z" fill="url(#paint76_linear_381_1076)"/>
<path d="M218.793 577.69C218.793 580.451 216.555 582.69 213.793 582.69C211.032 582.69 208.793 580.451 208.793 577.69C208.793 574.929 211.032 572.69 213.793 572.69C216.555 572.69 218.793 574.929 218.793 577.69Z" fill="url(#paint77_linear_381_1076)"/>
<path d="M260.552 5C260.552 7.76142 258.313 10 255.552 10C252.79 10 250.552 7.76142 250.552 5C250.552 2.23858 252.79 0 255.552 0C258.313 0 260.552 2.23858 260.552 5Z" fill="url(#paint78_linear_381_1076)"/>
<path d="M260.552 52.7242C260.552 55.4856 258.313 57.7242 255.552 57.7242C252.79 57.7242 250.552 55.4856 250.552 52.7242C250.552 49.9627 252.79 47.7242 255.552 47.7242C258.313 47.7242 260.552 49.9627 260.552 52.7242Z" fill="url(#paint79_linear_381_1076)"/>
<path d="M260.552 100.448C260.552 103.21 258.313 105.448 255.552 105.448C252.79 105.448 250.552 103.21 250.552 100.448C250.552 97.6869 252.79 95.4483 255.552 95.4483C258.313 95.4483 260.552 97.6869 260.552 100.448Z" fill="url(#paint80_linear_381_1076)"/>
<path d="M260.552 148.173C260.552 150.934 258.313 153.173 255.552 153.173C252.79 153.173 250.552 150.934 250.552 148.173C250.552 145.411 252.79 143.173 255.552 143.173C258.313 143.173 260.552 145.411 260.552 148.173Z" fill="url(#paint81_linear_381_1076)"/>
<path d="M260.552 195.897C260.552 198.658 258.313 200.897 255.552 200.897C252.79 200.897 250.552 198.658 250.552 195.897C250.552 193.135 252.79 190.897 255.552 190.897C258.313 190.897 260.552 193.135 260.552 195.897Z" fill="url(#paint82_linear_381_1076)"/>
<path d="M260.552 243.621C260.552 246.382 258.313 248.621 255.552 248.621C252.79 248.621 250.552 246.382 250.552 243.621C250.552 240.859 252.79 238.621 255.552 238.621C258.313 238.621 260.552 240.859 260.552 243.621Z" fill="url(#paint83_linear_381_1076)"/>
<path d="M260.552 291.345C260.552 294.106 258.313 296.345 255.552 296.345C252.79 296.345 250.552 294.106 250.552 291.345C250.552 288.584 252.79 286.345 255.552 286.345C258.313 286.345 260.552 288.584 260.552 291.345Z" fill="url(#paint84_linear_381_1076)"/>
<path d="M260.552 339.069C260.552 341.831 258.313 344.069 255.552 344.069C252.79 344.069 250.552 341.831 250.552 339.069C250.552 336.308 252.79 334.069 255.552 334.069C258.313 334.069 260.552 336.308 260.552 339.069Z" fill="url(#paint85_linear_381_1076)"/>
<path d="M260.552 386.793C260.552 389.555 258.313 391.793 255.552 391.793C252.79 391.793 250.552 389.555 250.552 386.793C250.552 384.032 252.79 381.793 255.552 381.793C258.313 381.793 260.552 384.032 260.552 386.793Z" fill="url(#paint86_linear_381_1076)"/>
<path d="M260.552 434.518C260.552 437.279 258.313 439.518 255.552 439.518C252.79 439.518 250.552 437.279 250.552 434.518C250.552 431.756 252.79 429.518 255.552 429.518C258.313 429.518 260.552 431.756 260.552 434.518Z" fill="url(#paint87_linear_381_1076)"/>
<path d="M260.552 482.242C260.552 485.003 258.313 487.242 255.552 487.242C252.79 487.242 250.552 485.003 250.552 482.242C250.552 479.48 252.79 477.242 255.552 477.242C258.313 477.242 260.552 479.48 260.552 482.242Z" fill="url(#paint88_linear_381_1076)"/>
<path d="M260.552 529.966C260.552 532.727 258.313 534.966 255.552 534.966C252.79 534.966 250.552 532.727 250.552 529.966C250.552 527.204 252.79 524.966 255.552 524.966C258.313 524.966 260.552 527.204 260.552 529.966Z" fill="url(#paint89_linear_381_1076)"/>
<path d="M260.552 577.69C260.552 580.451 258.313 582.69 255.552 582.69C252.79 582.69 250.552 580.451 250.552 577.69C250.552 574.929 252.79 572.69 255.552 572.69C258.313 572.69 260.552 574.929 260.552 577.69Z" fill="url(#paint90_linear_381_1076)"/>
<path d="M302.31 5C302.31 7.76142 300.072 10 297.31 10C294.549 10 292.31 7.76142 292.31 5C292.31 2.23858 294.549 0 297.31 0C300.072 0 302.31 2.23858 302.31 5Z" fill="url(#paint91_linear_381_1076)"/>
<path d="M302.31 52.7242C302.31 55.4856 300.072 57.7242 297.31 57.7242C294.549 57.7242 292.31 55.4856 292.31 52.7242C292.31 49.9627 294.549 47.7242 297.31 47.7242C300.072 47.7242 302.31 49.9627 302.31 52.7242Z" fill="url(#paint92_linear_381_1076)"/>
<path d="M302.31 100.448C302.31 103.21 300.072 105.448 297.31 105.448C294.549 105.448 292.31 103.21 292.31 100.448C292.31 97.6869 294.549 95.4483 297.31 95.4483C300.072 95.4483 302.31 97.6869 302.31 100.448Z" fill="url(#paint93_linear_381_1076)"/>
<path d="M302.31 148.173C302.31 150.934 300.072 153.173 297.31 153.173C294.549 153.173 292.31 150.934 292.31 148.173C292.31 145.411 294.549 143.173 297.31 143.173C300.072 143.173 302.31 145.411 302.31 148.173Z" fill="url(#paint94_linear_381_1076)"/>
<path d="M302.31 195.897C302.31 198.658 300.072 200.897 297.31 200.897C294.549 200.897 292.31 198.658 292.31 195.897C292.31 193.135 294.549 190.897 297.31 190.897C300.072 190.897 302.31 193.135 302.31 195.897Z" fill="url(#paint95_linear_381_1076)"/>
<path d="M302.31 243.621C302.31 246.382 300.072 248.621 297.31 248.621C294.549 248.621 292.31 246.382 292.31 243.621C292.31 240.859 294.549 238.621 297.31 238.621C300.072 238.621 302.31 240.859 302.31 243.621Z" fill="url(#paint96_linear_381_1076)"/>
<path d="M302.31 291.345C302.31 294.106 300.072 296.345 297.31 296.345C294.549 296.345 292.31 294.106 292.31 291.345C292.31 288.584 294.549 286.345 297.31 286.345C300.072 286.345 302.31 288.584 302.31 291.345Z" fill="url(#paint97_linear_381_1076)"/>
<path d="M302.31 339.069C302.31 341.831 300.072 344.069 297.31 344.069C294.549 344.069 292.31 341.831 292.31 339.069C292.31 336.308 294.549 334.069 297.31 334.069C300.072 334.069 302.31 336.308 302.31 339.069Z" fill="url(#paint98_linear_381_1076)"/>
<path d="M302.31 386.793C302.31 389.555 300.072 391.793 297.31 391.793C294.549 391.793 292.31 389.555 292.31 386.793C292.31 384.032 294.549 381.793 297.31 381.793C300.072 381.793 302.31 384.032 302.31 386.793Z" fill="url(#paint99_linear_381_1076)"/>
<path d="M302.31 434.518C302.31 437.279 300.072 439.518 297.31 439.518C294.549 439.518 292.31 437.279 292.31 434.518C292.31 431.756 294.549 429.518 297.31 429.518C300.072 429.518 302.31 431.756 302.31 434.518Z" fill="url(#paint100_linear_381_1076)"/>
<path d="M302.31 482.242C302.31 485.003 300.072 487.242 297.31 487.242C294.549 487.242 292.31 485.003 292.31 482.242C292.31 479.48 294.549 477.242 297.31 477.242C300.072 477.242 302.31 479.48 302.31 482.242Z" fill="url(#paint101_linear_381_1076)"/>
<path d="M302.31 529.966C302.31 532.727 300.072 534.966 297.31 534.966C294.549 534.966 292.31 532.727 292.31 529.966C292.31 527.204 294.549 524.966 297.31 524.966C300.072 524.966 302.31 527.204 302.31 529.966Z" fill="url(#paint102_linear_381_1076)"/>
<path d="M302.31 577.69C302.31 580.451 300.072 582.69 297.31 582.69C294.549 582.69 292.31 580.451 292.31 577.69C292.31 574.929 294.549 572.69 297.31 572.69C300.072 572.69 302.31 574.929 302.31 577.69Z" fill="url(#paint103_linear_381_1076)"/>
<path d="M344.069 5C344.069 7.76142 341.831 10 339.069 10C336.308 10 334.069 7.76142 334.069 5C334.069 2.23858 336.308 0 339.069 0C341.831 0 344.069 2.23858 344.069 5Z" fill="url(#paint104_linear_381_1076)"/>
<path d="M344.069 52.7241C344.069 55.4855 341.831 57.7241 339.069 57.7241C336.308 57.7241 334.069 55.4855 334.069 52.7241C334.069 49.9627 336.308 47.7241 339.069 47.7241C341.831 47.7241 344.069 49.9627 344.069 52.7241Z" fill="url(#paint105_linear_381_1076)"/>
<path d="M344.069 100.448C344.069 103.21 341.831 105.448 339.069 105.448C336.308 105.448 334.069 103.21 334.069 100.448C334.069 97.6869 336.308 95.4484 339.069 95.4484C341.831 95.4484 344.069 97.6869 344.069 100.448Z" fill="url(#paint106_linear_381_1076)"/>
<path d="M344.069 148.172C344.069 150.934 341.831 153.172 339.069 153.172C336.308 153.172 334.069 150.934 334.069 148.172C334.069 145.411 336.308 143.172 339.069 143.172C341.831 143.172 344.069 145.411 344.069 148.172Z" fill="url(#paint107_linear_381_1076)"/>
<path d="M344.069 195.897C344.069 198.658 341.831 200.897 339.069 200.897C336.308 200.897 334.069 198.658 334.069 195.897C334.069 193.135 336.308 190.897 339.069 190.897C341.831 190.897 344.069 193.135 344.069 195.897Z" fill="url(#paint108_linear_381_1076)"/>
<path d="M344.069 243.621C344.069 246.382 341.831 248.621 339.069 248.621C336.308 248.621 334.069 246.382 334.069 243.621C334.069 240.859 336.308 238.621 339.069 238.621C341.831 238.621 344.069 240.859 344.069 243.621Z" fill="url(#paint109_linear_381_1076)"/>
<path d="M344.069 291.345C344.069 294.106 341.831 296.345 339.069 296.345C336.308 296.345 334.069 294.106 334.069 291.345C334.069 288.584 336.308 286.345 339.069 286.345C341.831 286.345 344.069 288.584 344.069 291.345Z" fill="url(#paint110_linear_381_1076)"/>
<path d="M344.069 339.069C344.069 341.831 341.831 344.069 339.069 344.069C336.308 344.069 334.069 341.831 334.069 339.069C334.069 336.308 336.308 334.069 339.069 334.069C341.831 334.069 344.069 336.308 344.069 339.069Z" fill="url(#paint111_linear_381_1076)"/>
<path d="M344.069 386.793C344.069 389.555 341.831 391.793 339.069 391.793C336.308 391.793 334.069 389.555 334.069 386.793C334.069 384.032 336.308 381.793 339.069 381.793C341.831 381.793 344.069 384.032 344.069 386.793Z" fill="url(#paint112_linear_381_1076)"/>
<path d="M344.069 434.518C344.069 437.279 341.831 439.518 339.069 439.518C336.308 439.518 334.069 437.279 334.069 434.518C334.069 431.756 336.308 429.518 339.069 429.518C341.831 429.518 344.069 431.756 344.069 434.518Z" fill="url(#paint113_linear_381_1076)"/>
<path d="M344.069 482.242C344.069 485.003 341.831 487.242 339.069 487.242C336.308 487.242 334.069 485.003 334.069 482.242C334.069 479.48 336.308 477.242 339.069 477.242C341.831 477.242 344.069 479.48 344.069 482.242Z" fill="url(#paint114_linear_381_1076)"/>
<path d="M344.069 529.966C344.069 532.727 341.831 534.966 339.069 534.966C336.308 534.966 334.069 532.727 334.069 529.966C334.069 527.204 336.308 524.966 339.069 524.966C341.831 524.966 344.069 527.204 344.069 529.966Z" fill="url(#paint115_linear_381_1076)"/>
<path d="M344.069 577.69C344.069 580.451 341.831 582.69 339.069 582.69C336.308 582.69 334.069 580.451 334.069 577.69C334.069 574.929 336.308 572.69 339.069 572.69C341.831 572.69 344.069 574.929 344.069 577.69Z" fill="url(#paint116_linear_381_1076)"/>
</g>
<defs>
<linearGradient id="paint0_linear_381_1076" x1="-87.6227" y1="-36.3318" x2="375.346" y2="674.138" gradientUnits="userSpaceOnUse">
<stop stop-color="#12D790"/>
<stop offset="1" stop-color="#12BFD7"/>
</linearGradient>
<linearGradient id="paint1_linear_381_1076" x1="-87.6227" y1="-36.3318" x2="375.346" y2="674.138" gradientUnits="userSpaceOnUse">
<stop stop-color="#12D790"/>
<stop offset="1" stop-color="#12BFD7"/>
</linearGradient>
<linearGradient id="paint2_linear_381_1076" x1="-87.6227" y1="-36.3318" x2="375.346" y2="674.138" gradientUnits="userSpaceOnUse">
<stop stop-color="#12D790"/>
<stop offset="1" stop-color="#12BFD7"/>
</linearGradient>
<linearGradient id="paint3_linear_381_1076" x1="-87.6227" y1="-36.3318" x2="375.346" y2="674.138" gradientUnits="userSpaceOnUse">
<stop stop-color="#12D790"/>
<stop offset="1" stop-color="#12BFD7"/>
</linearGradient>
<linearGradient id="paint4_linear_381_1076" x1="-87.6227" y1="-36.3318" x2="375.346" y2="674.138" gradientUnits="userSpaceOnUse">
<stop stop-color="#12D790"/>
<stop offset="1" stop-color="#12BFD7"/>
</linearGradient>
<linearGradient id="paint5_linear_381_1076" x1="-87.6227" y1="-36.3318" x2="375.346" y2="674.138" gradientUnits="userSpaceOnUse">
<stop stop-color="#12D790"/>
<stop offset="1" stop-color="#12BFD7"/>
</linearGradient>
<linearGradient id="paint6_linear_381_1076" x1="-87.6227" y1="-36.3318" x2="375.346" y2="674.138" gradientUnits="userSpaceOnUse">
<stop stop-color="#12D790"/>
<stop offset="1" stop-color="#12BFD7"/>
</linearGradient>
<linearGradient id="paint7_linear_381_1076" x1="-87.6227" y1="-36.3318" x2="375.346" y2="674.138" gradientUnits="userSpaceOnUse">
<stop stop-color="#12D790"/>
<stop offset="1" stop-color="#12BFD7"/>
</linearGradient>
<linearGradient id="paint8_linear_381_1076" x1="-87.6227" y1="-36.3318" x2="375.346" y2="674.138" gradientUnits="userSpaceOnUse">
<stop stop-color="#12D790"/>
<stop offset="1" stop-color="#12BFD7"/>
</linearGradient>
<linearGradient id="paint9_linear_381_1076" x1="-87.6227" y1="-36.3318" x2="375.346" y2="674.138" gradientUnits="userSpaceOnUse">
<stop stop-color="#12D790"/>
<stop offset="1" stop-color="#12BFD7"/>
</linearGradient>
<linearGradient id="paint10_linear_381_1076" x1="-87.6227" y1="-36.3318" x2="375.346" y2="674.138" gradientUnits="userSpaceOnUse">
<stop stop-color="#12D790"/>
<stop offset="1" stop-color="#12BFD7"/>
</linearGradient>
<linearGradient id="paint11_linear_381_1076" x1="-87.6227" y1="-36.3318" x2="375.346" y2="674.138" gradientUnits="userSpaceOnUse">
<stop stop-color="#12D790"/>
<stop offset="1" stop-color="#12BFD7"/>
</linearGradient>
<linearGradient id="paint12_linear_381_1076" x1="-87.6227" y1="-36.3318" x2="375.346" y2="674.138" gradientUnits="userSpaceOnUse">
<stop stop-color="#12D790"/>
<stop offset="1" stop-color="#12BFD7"/>
</linearGradient>
<linearGradient id="paint13_linear_381_1076" x1="-87.6227" y1="-36.3318" x2="375.346" y2="674.138" gradientUnits="userSpaceOnUse">
<stop stop-color="#12D790"/>
<stop offset="1" stop-color="#12BFD7"/>
</linearGradient>
<linearGradient id="paint14_linear_381_1076" x1="-87.6227" y1="-36.3318" x2="375.346" y2="674.138" gradientUnits="userSpaceOnUse">
<stop stop-color="#12D790"/>
<stop offset="1" stop-color="#12BFD7"/>
</linearGradient>
<linearGradient id="paint15_linear_381_1076" x1="-87.6227" y1="-36.3318" x2="375.346" y2="674.138" gradientUnits="userSpaceOnUse">
<stop stop-color="#12D790"/>
<stop offset="1" stop-color="#12BFD7"/>
</linearGradient>
<linearGradient id="paint16_linear_381_1076" x1="-87.6227" y1="-36.3318" x2="375.346" y2="674.138" gradientUnits="userSpaceOnUse">
<stop stop-color="#12D790"/>
<stop offset="1" stop-color="#12BFD7"/>
</linearGradient>
<linearGradient id="paint17_linear_381_1076" x1="-87.6227" y1="-36.3318" x2="375.346" y2="674.138" gradientUnits="userSpaceOnUse">
<stop stop-color="#12D790"/>
<stop offset="1" stop-color="#12BFD7"/>
</linearGradient>
<linearGradient id="paint18_linear_381_1076" x1="-87.6227" y1="-36.3318" x2="375.346" y2="674.138" gradientUnits="userSpaceOnUse">
<stop stop-color="#12D790"/>
<stop offset="1" stop-color="#12BFD7"/>
</linearGradient>
<linearGradient id="paint19_linear_381_1076" x1="-87.6227" y1="-36.3318" x2="375.346" y2="674.138" gradientUnits="userSpaceOnUse">
<stop stop-color="#12D790"/>
<stop offset="1" stop-color="#12BFD7"/>
</linearGradient>
<linearGradient id="paint20_linear_381_1076" x1="-87.6227" y1="-36.3318" x2="375.346" y2="674.138" gradientUnits="userSpaceOnUse">
<stop stop-color="#12D790"/>
<stop offset="1" stop-color="#12BFD7"/>
</linearGradient>
<linearGradient id="paint21_linear_381_1076" x1="-87.6227" y1="-36.3318" x2="375.346" y2="674.138" gradientUnits="userSpaceOnUse">
<stop stop-color="#12D790"/>
<stop offset="1" stop-color="#12BFD7"/>
</linearGradient>
<linearGradient id="paint22_linear_381_1076" x1="-87.6227" y1="-36.3318" x2="375.346" y2="674.138" gradientUnits="userSpaceOnUse">
<stop stop-color="#12D790"/>
<stop offset="1" stop-color="#12BFD7"/>
</linearGradient>
<linearGradient id="paint23_linear_381_1076" x1="-87.6227" y1="-36.3318" x2="375.346" y2="674.138" gradientUnits="userSpaceOnUse">
<stop stop-color="#12D790"/>
<stop offset="1" stop-color="#12BFD7"/>
</linearGradient>
<linearGradient id="paint24_linear_381_1076" x1="-87.6227" y1="-36.3318" x2="375.346" y2="674.138" gradientUnits="userSpaceOnUse">
<stop stop-color="#12D790"/>
<stop offset="1" stop-color="#12BFD7"/>
</linearGradient>
<linearGradient id="paint25_linear_381_1076" x1="-87.6227" y1="-36.3318" x2="375.346" y2="674.138" gradientUnits="userSpaceOnUse">
<stop stop-color="#12D790"/>
<stop offset="1" stop-color="#12BFD7"/>
</linearGradient>
<linearGradient id="paint26_linear_381_1076" x1="-87.6227" y1="-36.3318" x2="375.346" y2="674.138" gradientUnits="userSpaceOnUse">
<stop stop-color="#12D790"/>
<stop offset="1" stop-color="#12BFD7"/>
</linearGradient>
<linearGradient id="paint27_linear_381_1076" x1="-87.6227" y1="-36.3318" x2="375.346" y2="674.138" gradientUnits="userSpaceOnUse">
<stop stop-color="#12D790"/>
<stop offset="1" stop-color="#12BFD7"/>
</linearGradient>
<linearGradient id="paint28_linear_381_1076" x1="-87.6227" y1="-36.3318" x2="375.346" y2="674.138" gradientUnits="userSpaceOnUse">
<stop stop-color="#12D790"/>
<stop offset="1" stop-color="#12BFD7"/>
</linearGradient>
<linearGradient id="paint29_linear_381_1076" x1="-87.6227" y1="-36.3318" x2="375.346" y2="674.138" gradientUnits="userSpaceOnUse">
<stop stop-color="#12D790"/>
<stop offset="1" stop-color="#12BFD7"/>
</linearGradient>
<linearGradient id="paint30_linear_381_1076" x1="-87.6227" y1="-36.3318" x2="375.346" y2="674.138" gradientUnits="userSpaceOnUse">
<stop stop-color="#12D790"/>
<stop offset="1" stop-color="#12BFD7"/>
</linearGradient>
<linearGradient id="paint31_linear_381_1076" x1="-87.6227" y1="-36.3318" x2="375.346" y2="674.138" gradientUnits="userSpaceOnUse">
<stop stop-color="#12D790"/>
<stop offset="1" stop-color="#12BFD7"/>
</linearGradient>
<linearGradient id="paint32_linear_381_1076" x1="-87.6227" y1="-36.3318" x2="375.346" y2="674.138" gradientUnits="userSpaceOnUse">
<stop stop-color="#12D790"/>
<stop offset="1" stop-color="#12BFD7"/>
</linearGradient>
<linearGradient id="paint33_linear_381_1076" x1="-87.6227" y1="-36.3318" x2="375.346" y2="674.138" gradientUnits="userSpaceOnUse">
<stop stop-color="#12D790"/>
<stop offset="1" stop-color="#12BFD7"/>
</linearGradient>
<linearGradient id="paint34_linear_381_1076" x1="-87.6227" y1="-36.3318" x2="375.346" y2="674.138" gradientUnits="userSpaceOnUse">
<stop stop-color="#12D790"/>
<stop offset="1" stop-color="#12BFD7"/>
</linearGradient>
<linearGradient id="paint35_linear_381_1076" x1="-87.6227" y1="-36.3318" x2="375.346" y2="674.138" gradientUnits="userSpaceOnUse">
<stop stop-color="#12D790"/>
<stop offset="1" stop-color="#12BFD7"/>
</linearGradient>
<linearGradient id="paint36_linear_381_1076" x1="-87.6227" y1="-36.3318" x2="375.346" y2="674.138" gradientUnits="userSpaceOnUse">
<stop stop-color="#12D790"/>
<stop offset="1" stop-color="#12BFD7"/>
</linearGradient>
<linearGradient id="paint37_linear_381_1076" x1="-87.6227" y1="-36.3318" x2="375.346" y2="674.138" gradientUnits="userSpaceOnUse">
<stop stop-color="#12D790"/>
<stop offset="1" stop-color="#12BFD7"/>
</linearGradient>
<linearGradient id="paint38_linear_381_1076" x1="-87.6227" y1="-36.3318" x2="375.346" y2="674.138" gradientUnits="userSpaceOnUse">
<stop stop-color="#12D790"/>
<stop offset="1" stop-color="#12BFD7"/>
</linearGradient>
<linearGradient id="paint39_linear_381_1076" x1="-87.6227" y1="-36.3318" x2="375.346" y2="674.138" gradientUnits="userSpaceOnUse">
<stop stop-color="#12D790"/>
<stop offset="1" stop-color="#12BFD7"/>
</linearGradient>
<linearGradient id="paint40_linear_381_1076" x1="-87.6227" y1="-36.3318" x2="375.346" y2="674.138" gradientUnits="userSpaceOnUse">
<stop stop-color="#12D790"/>
<stop offset="1" stop-color="#12BFD7"/>
</linearGradient>
<linearGradient id="paint41_linear_381_1076" x1="-87.6227" y1="-36.3318" x2="375.346" y2="674.138" gradientUnits="userSpaceOnUse">
<stop stop-color="#12D790"/>
<stop offset="1" stop-color="#12BFD7"/>
</linearGradient>
<linearGradient id="paint42_linear_381_1076" x1="-87.6227" y1="-36.3318" x2="375.346" y2="674.138" gradientUnits="userSpaceOnUse">
<stop stop-color="#12D790"/>
<stop offset="1" stop-color="#12BFD7"/>
</linearGradient>
<linearGradient id="paint43_linear_381_1076" x1="-87.6227" y1="-36.3318" x2="375.346" y2="674.138" gradientUnits="userSpaceOnUse">
<stop stop-color="#12D790"/>
<stop offset="1" stop-color="#12BFD7"/>
</linearGradient>
<linearGradient id="paint44_linear_381_1076" x1="-87.6227" y1="-36.3318" x2="375.346" y2="674.138" gradientUnits="userSpaceOnUse">
<stop stop-color="#12D790"/>
<stop offset="1" stop-color="#12BFD7"/>
</linearGradient>
<linearGradient id="paint45_linear_381_1076" x1="-87.6227" y1="-36.3318" x2="375.346" y2="674.138" gradientUnits="userSpaceOnUse">
<stop stop-color="#12D790"/>
<stop offset="1" stop-color="#12BFD7"/>
</linearGradient>
<linearGradient id="paint46_linear_381_1076" x1="-87.6227" y1="-36.3318" x2="375.346" y2="674.138" gradientUnits="userSpaceOnUse">
<stop stop-color="#12D790"/>
<stop offset="1" stop-color="#12BFD7"/>
</linearGradient>
<linearGradient id="paint47_linear_381_1076" x1="-87.6227" y1="-36.3318" x2="375.346" y2="674.138" gradientUnits="userSpaceOnUse">
<stop stop-color="#12D790"/>
<stop offset="1" stop-color="#12BFD7"/>
</linearGradient>
<linearGradient id="paint48_linear_381_1076" x1="-87.6227" y1="-36.3318" x2="375.346" y2="674.138" gradientUnits="userSpaceOnUse">
<stop stop-color="#12D790"/>
<stop offset="1" stop-color="#12BFD7"/>
</linearGradient>
<linearGradient id="paint49_linear_381_1076" x1="-87.6227" y1="-36.3318" x2="375.346" y2="674.138" gradientUnits="userSpaceOnUse">
<stop stop-color="#12D790"/>
<stop offset="1" stop-color="#12BFD7"/>
</linearGradient>
<linearGradient id="paint50_linear_381_1076" x1="-87.6227" y1="-36.3318" x2="375.346" y2="674.138" gradientUnits="userSpaceOnUse">
<stop stop-color="#12D790"/>
<stop offset="1" stop-color="#12BFD7"/>
</linearGradient>
<linearGradient id="paint51_linear_381_1076" x1="-87.6227" y1="-36.3318" x2="375.346" y2="674.138" gradientUnits="userSpaceOnUse">
<stop stop-color="#12D790"/>
<stop offset="1" stop-color="#12BFD7"/>
</linearGradient>
<linearGradient id="paint52_linear_381_1076" x1="-87.6227" y1="-36.3318" x2="375.346" y2="674.138" gradientUnits="userSpaceOnUse">
<stop stop-color="#12D790"/>
<stop offset="1" stop-color="#12BFD7"/>
</linearGradient>
<linearGradient id="paint53_linear_381_1076" x1="-87.6227" y1="-36.3318" x2="375.346" y2="674.138" gradientUnits="userSpaceOnUse">
<stop stop-color="#12D790"/>
<stop offset="1" stop-color="#12BFD7"/>
</linearGradient>
<linearGradient id="paint54_linear_381_1076" x1="-87.6227" y1="-36.3318" x2="375.346" y2="674.138" gradientUnits="userSpaceOnUse">
<stop stop-color="#12D790"/>
<stop offset="1" stop-color="#12BFD7"/>
</linearGradient>
<linearGradient id="paint55_linear_381_1076" x1="-87.6227" y1="-36.3318" x2="375.346" y2="674.138" gradientUnits="userSpaceOnUse">
<stop stop-color="#12D790"/>
<stop offset="1" stop-color="#12BFD7"/>
</linearGradient>
<linearGradient id="paint56_linear_381_1076" x1="-87.6227" y1="-36.3318" x2="375.346" y2="674.138" gradientUnits="userSpaceOnUse">
<stop stop-color="#12D790"/>
<stop offset="1" stop-color="#12BFD7"/>
</linearGradient>
<linearGradient id="paint57_linear_381_1076" x1="-87.6227" y1="-36.3318" x2="375.346" y2="674.138" gradientUnits="userSpaceOnUse">
<stop stop-color="#12D790"/>
<stop offset="1" stop-color="#12BFD7"/>
</linearGradient>
<linearGradient id="paint58_linear_381_1076" x1="-87.6227" y1="-36.3318" x2="375.346" y2="674.138" gradientUnits="userSpaceOnUse">
<stop stop-color="#12D790"/>
<stop offset="1" stop-color="#12BFD7"/>
</linearGradient>
<linearGradient id="paint59_linear_381_1076" x1="-87.6227" y1="-36.3318" x2="375.346" y2="674.138" gradientUnits="userSpaceOnUse">
<stop stop-color="#12D790"/>
<stop offset="1" stop-color="#12BFD7"/>
</linearGradient>
<linearGradient id="paint60_linear_381_1076" x1="-87.6227" y1="-36.3318" x2="375.346" y2="674.138" gradientUnits="userSpaceOnUse">
<stop stop-color="#12D790"/>
<stop offset="1" stop-color="#12BFD7"/>
</linearGradient>
<linearGradient id="paint61_linear_381_1076" x1="-87.6227" y1="-36.3318" x2="375.346" y2="674.138" gradientUnits="userSpaceOnUse">
<stop stop-color="#12D790"/>
<stop offset="1" stop-color="#12BFD7"/>
</linearGradient>
<linearGradient id="paint62_linear_381_1076" x1="-87.6227" y1="-36.3318" x2="375.346" y2="674.138" gradientUnits="userSpaceOnUse">
<stop stop-color="#12D790"/>
<stop offset="1" stop-color="#12BFD7"/>
</linearGradient>
<linearGradient id="paint63_linear_381_1076" x1="-87.6227" y1="-36.3318" x2="375.346" y2="674.138" gradientUnits="userSpaceOnUse">
<stop stop-color="#12D790"/>
<stop offset="1" stop-color="#12BFD7"/>
</linearGradient>
<linearGradient id="paint64_linear_381_1076" x1="-87.6227" y1="-36.3318" x2="375.346" y2="674.138" gradientUnits="userSpaceOnUse">
<stop stop-color="#12D790"/>
<stop offset="1" stop-color="#12BFD7"/>
</linearGradient>
<linearGradient id="paint65_linear_381_1076" x1="-87.6227" y1="-36.3318" x2="375.346" y2="674.138" gradientUnits="userSpaceOnUse">
<stop stop-color="#12D790"/>
<stop offset="1" stop-color="#12BFD7"/>
</linearGradient>
<linearGradient id="paint66_linear_381_1076" x1="-87.6227" y1="-36.3318" x2="375.346" y2="674.138" gradientUnits="userSpaceOnUse">
<stop stop-color="#12D790"/>
<stop offset="1" stop-color="#12BFD7"/>
</linearGradient>
<linearGradient id="paint67_linear_381_1076" x1="-87.6227" y1="-36.3318" x2="375.346" y2="674.138" gradientUnits="userSpaceOnUse">
<stop stop-color="#12D790"/>
<stop offset="1" stop-color="#12BFD7"/>
</linearGradient>
<linearGradient id="paint68_linear_381_1076" x1="-87.6227" y1="-36.3318" x2="375.346" y2="674.138" gradientUnits="userSpaceOnUse">
<stop stop-color="#12D790"/>
<stop offset="1" stop-color="#12BFD7"/>
</linearGradient>
<linearGradient id="paint69_linear_381_1076" x1="-87.6227" y1="-36.3318" x2="375.346" y2="674.138" gradientUnits="userSpaceOnUse">
<stop stop-color="#12D790"/>
<stop offset="1" stop-color="#12BFD7"/>
</linearGradient>
<linearGradient id="paint70_linear_381_1076" x1="-87.6227" y1="-36.3318" x2="375.346" y2="674.138" gradientUnits="userSpaceOnUse">
<stop stop-color="#12D790"/>
<stop offset="1" stop-color="#12BFD7"/>
</linearGradient>
<linearGradient id="paint71_linear_381_1076" x1="-87.6227" y1="-36.3318" x2="375.346" y2="674.138" gradientUnits="userSpaceOnUse">
<stop stop-color="#12D790"/>
<stop offset="1" stop-color="#12BFD7"/>
</linearGradient>
<linearGradient id="paint72_linear_381_1076" x1="-87.6227" y1="-36.3318" x2="375.346" y2="674.138" gradientUnits="userSpaceOnUse">
<stop stop-color="#12D790"/>
<stop offset="1" stop-color="#12BFD7"/>
</linearGradient>
<linearGradient id="paint73_linear_381_1076" x1="-87.6227" y1="-36.3318" x2="375.346" y2="674.138" gradientUnits="userSpaceOnUse">
<stop stop-color="#12D790"/>
<stop offset="1" stop-color="#12BFD7"/>
</linearGradient>
<linearGradient id="paint74_linear_381_1076" x1="-87.6227" y1="-36.3318" x2="375.346" y2="674.138" gradientUnits="userSpaceOnUse">
<stop stop-color="#12D790"/>
<stop offset="1" stop-color="#12BFD7"/>
</linearGradient>
<linearGradient id="paint75_linear_381_1076" x1="-87.6227" y1="-36.3318" x2="375.346" y2="674.138" gradientUnits="userSpaceOnUse">
<stop stop-color="#12D790"/>
<stop offset="1" stop-color="#12BFD7"/>
</linearGradient>
<linearGradient id="paint76_linear_381_1076" x1="-87.6227" y1="-36.3318" x2="375.346" y2="674.138" gradientUnits="userSpaceOnUse">
<stop stop-color="#12D790"/>
<stop offset="1" stop-color="#12BFD7"/>
</linearGradient>
<linearGradient id="paint77_linear_381_1076" x1="-87.6227" y1="-36.3318" x2="375.346" y2="674.138" gradientUnits="userSpaceOnUse">
<stop stop-color="#12D790"/>
<stop offset="1" stop-color="#12BFD7"/>
</linearGradient>
<linearGradient id="paint78_linear_381_1076" x1="-87.6227" y1="-36.3318" x2="375.346" y2="674.138" gradientUnits="userSpaceOnUse">
<stop stop-color="#12D790"/>
<stop offset="1" stop-color="#12BFD7"/>
</linearGradient>
<linearGradient id="paint79_linear_381_1076" x1="-87.6227" y1="-36.3318" x2="375.346" y2="674.138" gradientUnits="userSpaceOnUse">
<stop stop-color="#12D790"/>
<stop offset="1" stop-color="#12BFD7"/>
</linearGradient>
<linearGradient id="paint80_linear_381_1076" x1="-87.6227" y1="-36.3318" x2="375.346" y2="674.138" gradientUnits="userSpaceOnUse">
<stop stop-color="#12D790"/>
<stop offset="1" stop-color="#12BFD7"/>
</linearGradient>
<linearGradient id="paint81_linear_381_1076" x1="-87.6227" y1="-36.3318" x2="375.346" y2="674.138" gradientUnits="userSpaceOnUse">
<stop stop-color="#12D790"/>
<stop offset="1" stop-color="#12BFD7"/>
</linearGradient>
<linearGradient id="paint82_linear_381_1076" x1="-87.6227" y1="-36.3318" x2="375.346" y2="674.138" gradientUnits="userSpaceOnUse">
<stop stop-color="#12D790"/>
<stop offset="1" stop-color="#12BFD7"/>
</linearGradient>
<linearGradient id="paint83_linear_381_1076" x1="-87.6227" y1="-36.3318" x2="375.346" y2="674.138" gradientUnits="userSpaceOnUse">
<stop stop-color="#12D790"/>
<stop offset="1" stop-color="#12BFD7"/>
</linearGradient>
<linearGradient id="paint84_linear_381_1076" x1="-87.6227" y1="-36.3318" x2="375.346" y2="674.138" gradientUnits="userSpaceOnUse">
<stop stop-color="#12D790"/>
<stop offset="1" stop-color="#12BFD7"/>
</linearGradient>
<linearGradient id="paint85_linear_381_1076" x1="-87.6227" y1="-36.3318" x2="375.346" y2="674.138" gradientUnits="userSpaceOnUse">
<stop stop-color="#12D790"/>
<stop offset="1" stop-color="#12BFD7"/>
</linearGradient>
<linearGradient id="paint86_linear_381_1076" x1="-87.6227" y1="-36.3318" x2="375.346" y2="674.138" gradientUnits="userSpaceOnUse">
<stop stop-color="#12D790"/>
<stop offset="1" stop-color="#12BFD7"/>
</linearGradient>
<linearGradient id="paint87_linear_381_1076" x1="-87.6227" y1="-36.3318" x2="375.346" y2="674.138" gradientUnits="userSpaceOnUse">
<stop stop-color="#12D790"/>
<stop offset="1" stop-color="#12BFD7"/>
</linearGradient>
<linearGradient id="paint88_linear_381_1076" x1="-87.6227" y1="-36.3318" x2="375.346" y2="674.138" gradientUnits="userSpaceOnUse">
<stop stop-color="#12D790"/>
<stop offset="1" stop-color="#12BFD7"/>
</linearGradient>
<linearGradient id="paint89_linear_381_1076" x1="-87.6227" y1="-36.3318" x2="375.346" y2="674.138" gradientUnits="userSpaceOnUse">
<stop stop-color="#12D790"/>
<stop offset="1" stop-color="#12BFD7"/>
</linearGradient>
<linearGradient id="paint90_linear_381_1076" x1="-87.6227" y1="-36.3318" x2="375.346" y2="674.138" gradientUnits="userSpaceOnUse">
<stop stop-color="#12D790"/>
<stop offset="1" stop-color="#12BFD7"/>
</linearGradient>
<linearGradient id="paint91_linear_381_1076" x1="-87.6227" y1="-36.3318" x2="375.346" y2="674.138" gradientUnits="userSpaceOnUse">
<stop stop-color="#12D790"/>
<stop offset="1" stop-color="#12BFD7"/>
</linearGradient>
<linearGradient id="paint92_linear_381_1076" x1="-87.6227" y1="-36.3318" x2="375.346" y2="674.138" gradientUnits="userSpaceOnUse">
<stop stop-color="#12D790"/>
<stop offset="1" stop-color="#12BFD7"/>
</linearGradient>
<linearGradient id="paint93_linear_381_1076" x1="-87.6227" y1="-36.3318" x2="375.346" y2="674.138" gradientUnits="userSpaceOnUse">
<stop stop-color="#12D790"/>
<stop offset="1" stop-color="#12BFD7"/>
</linearGradient>
<linearGradient id="paint94_linear_381_1076" x1="-87.6227" y1="-36.3318" x2="375.346" y2="674.138" gradientUnits="userSpaceOnUse">
<stop stop-color="#12D790"/>
<stop offset="1" stop-color="#12BFD7"/>
</linearGradient>
<linearGradient id="paint95_linear_381_1076" x1="-87.6227" y1="-36.3318" x2="375.346" y2="674.138" gradientUnits="userSpaceOnUse">
<stop stop-color="#12D790"/>
<stop offset="1" stop-color="#12BFD7"/>
</linearGradient>
<linearGradient id="paint96_linear_381_1076" x1="-87.6227" y1="-36.3318" x2="375.346" y2="674.138" gradientUnits="userSpaceOnUse">
<stop stop-color="#12D790"/>
<stop offset="1" stop-color="#12BFD7"/>
</linearGradient>
<linearGradient id="paint97_linear_381_1076" x1="-87.6227" y1="-36.3318" x2="375.346" y2="674.138" gradientUnits="userSpaceOnUse">
<stop stop-color="#12D790"/>
<stop offset="1" stop-color="#12BFD7"/>
</linearGradient>
<linearGradient id="paint98_linear_381_1076" x1="-87.6227" y1="-36.3318" x2="375.346" y2="674.138" gradientUnits="userSpaceOnUse">
<stop stop-color="#12D790"/>
<stop offset="1" stop-color="#12BFD7"/>
</linearGradient>
<linearGradient id="paint99_linear_381_1076" x1="-87.6227" y1="-36.3318" x2="375.346" y2="674.138" gradientUnits="userSpaceOnUse">
<stop stop-color="#12D790"/>
<stop offset="1" stop-color="#12BFD7"/>
</linearGradient>
<linearGradient id="paint100_linear_381_1076" x1="-87.6227" y1="-36.3318" x2="375.346" y2="674.138" gradientUnits="userSpaceOnUse">
<stop stop-color="#12D790"/>
<stop offset="1" stop-color="#12BFD7"/>
</linearGradient>
<linearGradient id="paint101_linear_381_1076" x1="-87.6227" y1="-36.3318" x2="375.346" y2="674.138" gradientUnits="userSpaceOnUse">
<stop stop-color="#12D790"/>
<stop offset="1" stop-color="#12BFD7"/>
</linearGradient>
<linearGradient id="paint102_linear_381_1076" x1="-87.6227" y1="-36.3318" x2="375.346" y2="674.138" gradientUnits="userSpaceOnUse">
<stop stop-color="#12D790"/>
<stop offset="1" stop-color="#12BFD7"/>
</linearGradient>
<linearGradient id="paint103_linear_381_1076" x1="-87.6227" y1="-36.3318" x2="375.346" y2="674.138" gradientUnits="userSpaceOnUse">
<stop stop-color="#12D790"/>
<stop offset="1" stop-color="#12BFD7"/>
</linearGradient>
<linearGradient id="paint104_linear_381_1076" x1="-87.6227" y1="-36.3318" x2="375.346" y2="674.138" gradientUnits="userSpaceOnUse">
<stop stop-color="#12D790"/>
<stop offset="1" stop-color="#12BFD7"/>
</linearGradient>
<linearGradient id="paint105_linear_381_1076" x1="-87.6227" y1="-36.3318" x2="375.346" y2="674.138" gradientUnits="userSpaceOnUse">
<stop stop-color="#12D790"/>
<stop offset="1" stop-color="#12BFD7"/>
</linearGradient>
<linearGradient id="paint106_linear_381_1076" x1="-87.6227" y1="-36.3318" x2="375.346" y2="674.138" gradientUnits="userSpaceOnUse">
<stop stop-color="#12D790"/>
<stop offset="1" stop-color="#12BFD7"/>
</linearGradient>
<linearGradient id="paint107_linear_381_1076" x1="-87.6227" y1="-36.3318" x2="375.346" y2="674.138" gradientUnits="userSpaceOnUse">
<stop stop-color="#12D790"/>
<stop offset="1" stop-color="#12BFD7"/>
</linearGradient>
<linearGradient id="paint108_linear_381_1076" x1="-87.6227" y1="-36.3318" x2="375.346" y2="674.138" gradientUnits="userSpaceOnUse">
<stop stop-color="#12D790"/>
<stop offset="1" stop-color="#12BFD7"/>
</linearGradient>
<linearGradient id="paint109_linear_381_1076" x1="-87.6227" y1="-36.3318" x2="375.346" y2="674.138" gradientUnits="userSpaceOnUse">
<stop stop-color="#12D790"/>
<stop offset="1" stop-color="#12BFD7"/>
</linearGradient>
<linearGradient id="paint110_linear_381_1076" x1="-87.6227" y1="-36.3318" x2="375.346" y2="674.138" gradientUnits="userSpaceOnUse">
<stop stop-color="#12D790"/>
<stop offset="1" stop-color="#12BFD7"/>
</linearGradient>
<linearGradient id="paint111_linear_381_1076" x1="-87.6227" y1="-36.3318" x2="375.346" y2="674.138" gradientUnits="userSpaceOnUse">
<stop stop-color="#12D790"/>
<stop offset="1" stop-color="#12BFD7"/>
</linearGradient>
<linearGradient id="paint112_linear_381_1076" x1="-87.6227" y1="-36.3318" x2="375.346" y2="674.138" gradientUnits="userSpaceOnUse">
<stop stop-color="#12D790"/>
<stop offset="1" stop-color="#12BFD7"/>
</linearGradient>
<linearGradient id="paint113_linear_381_1076" x1="-87.6227" y1="-36.3318" x2="375.346" y2="674.138" gradientUnits="userSpaceOnUse">
<stop stop-color="#12D790"/>
<stop offset="1" stop-color="#12BFD7"/>
</linearGradient>
<linearGradient id="paint114_linear_381_1076" x1="-87.6227" y1="-36.3318" x2="375.346" y2="674.138" gradientUnits="userSpaceOnUse">
<stop stop-color="#12D790"/>
<stop offset="1" stop-color="#12BFD7"/>
</linearGradient>
<linearGradient id="paint115_linear_381_1076" x1="-87.6227" y1="-36.3318" x2="375.346" y2="674.138" gradientUnits="userSpaceOnUse">
<stop stop-color="#12D790"/>
<stop offset="1" stop-color="#12BFD7"/>
</linearGradient>
<linearGradient id="paint116_linear_381_1076" x1="-87.6227" y1="-36.3318" x2="375.346" y2="674.138" gradientUnits="userSpaceOnUse">
<stop stop-color="#12D790"/>
<stop offset="1" stop-color="#12BFD7"/>
</linearGradient>
</defs>
</svg>
