<svg viewBox="0 0 383 192" fill="none" xmlns="http://www.w3.org/2000/svg">
<g filter="url(#filter0_d_20_1376)">
<rect width="383" height="184" rx="8" fill="white" shape-rendering="crispEdges"/>
<path d="M28.912 22.88V34H27.088V26.384L23.696 34H22.432L19.024 26.384V34H17.2V22.88H19.168L23.072 31.6L26.96 22.88H28.912ZM39.5494 29.376C39.5494 29.7067 39.528 30.0053 39.4854 30.272H32.7494C32.8027 30.976 33.064 31.5413 33.5334 31.968C34.0027 32.3947 34.5787 32.608 35.2614 32.608C36.2427 32.608 36.936 32.1973 37.3414 31.376H39.3094C39.0427 32.1867 38.5574 32.8533 37.8534 33.376C37.16 33.888 36.296 34.144 35.2614 34.144C34.4187 34.144 33.6614 33.9573 32.9894 33.584C32.328 33.2 31.8054 32.6667 31.4214 31.984C31.048 31.2907 30.8614 30.4907 30.8614 29.584C30.8614 28.6773 31.0427 27.8827 31.4054 27.2C31.7787 26.5067 32.296 25.9733 32.9574 25.6C33.6294 25.2267 34.3974 25.04 35.2614 25.04C36.0934 25.04 36.8347 25.2213 37.4854 25.584C38.136 25.9467 38.6427 26.4587 39.0054 27.12C39.368 27.7707 39.5494 28.5227 39.5494 29.376ZM37.6454 28.8C37.6347 28.128 37.3947 27.5893 36.9254 27.184C36.456 26.7787 35.8747 26.576 35.1814 26.576C34.552 26.576 34.0134 26.7787 33.5654 27.184C33.1174 27.5787 32.8507 28.1173 32.7654 28.8H37.6454ZM45.9524 25.04C46.6457 25.04 47.2644 25.184 47.8084 25.472C48.363 25.76 48.795 26.1867 49.1044 26.752C49.4137 27.3173 49.5684 28 49.5684 28.8V34H47.7604V29.072C47.7604 28.2827 47.563 27.68 47.1684 27.264C46.7737 26.8373 46.235 26.624 45.5524 26.624C44.8697 26.624 44.3257 26.8373 43.9204 27.264C43.5257 27.68 43.3284 28.2827 43.3284 29.072V34H41.5044V25.184H43.3284V26.192C43.627 25.8293 44.0057 25.5467 44.4644 25.344C44.9337 25.1413 45.4297 25.04 45.9524 25.04ZM55.255 34.144C54.5617 34.144 53.9377 34.0213 53.383 33.776C52.839 33.52 52.407 33.1787 52.087 32.752C51.767 32.3147 51.5963 31.8293 51.575 31.296H53.463C53.495 31.6693 53.671 31.984 53.991 32.24C54.3217 32.4853 54.7323 32.608 55.223 32.608C55.735 32.608 56.1297 32.512 56.407 32.32C56.695 32.1173 56.839 31.8613 56.839 31.552C56.839 31.2213 56.679 30.976 56.359 30.816C56.0497 30.656 55.5537 30.48 54.871 30.288C54.2097 30.1067 53.671 29.9307 53.255 29.76C52.839 29.5893 52.4763 29.328 52.167 28.976C51.8683 28.624 51.719 28.16 51.719 27.584C51.719 27.1147 51.8577 26.688 52.135 26.304C52.4123 25.9093 52.807 25.6 53.319 25.376C53.8417 25.152 54.439 25.04 55.111 25.04C56.1137 25.04 56.919 25.296 57.527 25.808C58.1457 26.3093 58.4763 26.9973 58.519 27.872H56.695C56.663 27.4773 56.503 27.1627 56.215 26.928C55.927 26.6933 55.5377 26.576 55.047 26.576C54.567 26.576 54.199 26.6667 53.943 26.848C53.687 27.0293 53.559 27.2693 53.559 27.568C53.559 27.8027 53.6443 28 53.815 28.16C53.9857 28.32 54.1937 28.448 54.439 28.544C54.6843 28.6293 55.047 28.7413 55.527 28.88C56.167 29.0507 56.6897 29.2267 57.095 29.408C57.511 29.5787 57.8683 29.8347 58.167 30.176C58.4657 30.5173 58.6203 30.9707 58.631 31.536C58.631 32.0373 58.4923 32.4853 58.215 32.88C57.9377 33.2747 57.543 33.584 57.031 33.808C56.5297 34.032 55.9377 34.144 55.255 34.144ZM60.1539 29.552C60.1539 28.6667 60.3352 27.8827 60.6979 27.2C61.0712 26.5173 61.5725 25.9893 62.2019 25.616C62.8419 25.232 63.5459 25.04 64.3139 25.04C65.0072 25.04 65.6099 25.1787 66.1219 25.456C66.6445 25.7227 67.0605 26.0587 67.3699 26.464V25.184H69.2099V34H67.3699V32.688C67.0605 33.104 66.6392 33.4507 66.1059 33.728C65.5725 34.0053 64.9645 34.144 64.2819 34.144C63.5245 34.144 62.8312 33.952 62.2019 33.568C61.5725 33.1733 61.0712 32.6293 60.6979 31.936C60.3352 31.232 60.1539 30.4373 60.1539 29.552ZM67.3699 29.584C67.3699 28.976 67.2419 28.448 66.9859 28C66.7405 27.552 66.4152 27.2107 66.0099 26.976C65.6045 26.7413 65.1672 26.624 64.6979 26.624C64.2285 26.624 63.7912 26.7413 63.3859 26.976C62.9805 27.2 62.6499 27.536 62.3939 27.984C62.1485 28.4213 62.0259 28.944 62.0259 29.552C62.0259 30.16 62.1485 30.6933 62.3939 31.152C62.6499 31.6107 62.9805 31.9627 63.3859 32.208C63.8019 32.4427 64.2392 32.56 64.6979 32.56C65.1672 32.56 65.6045 32.4427 66.0099 32.208C66.4152 31.9733 66.7405 31.632 66.9859 31.184C67.2419 30.7253 67.3699 30.192 67.3699 29.584ZM75.3176 25.04C76.0003 25.04 76.603 25.1787 77.1256 25.456C77.659 25.7227 78.075 26.0587 78.3736 26.464V25.184H80.2136V34.144C80.2136 34.9547 80.043 35.6747 79.7016 36.304C79.3603 36.944 78.8643 37.4453 78.2136 37.808C77.5736 38.1707 76.8056 38.352 75.9096 38.352C74.715 38.352 73.723 38.0693 72.9336 37.504C72.1443 36.9493 71.6963 36.192 71.5896 35.232H73.3976C73.5363 35.6907 73.8296 36.0587 74.2776 36.336C74.7363 36.624 75.2803 36.768 75.9096 36.768C76.6456 36.768 77.2376 36.544 77.6856 36.096C78.1443 35.648 78.3736 34.9973 78.3736 34.144V32.672C78.0643 33.088 77.643 33.44 77.1096 33.728C76.587 34.0053 75.9896 34.144 75.3176 34.144C74.5496 34.144 73.8456 33.952 73.2056 33.568C72.5763 33.1733 72.075 32.6293 71.7016 31.936C71.339 31.232 71.1576 30.4373 71.1576 29.552C71.1576 28.6667 71.339 27.8827 71.7016 27.2C72.075 26.5173 72.5763 25.9893 73.2056 25.616C73.8456 25.232 74.5496 25.04 75.3176 25.04ZM78.3736 29.584C78.3736 28.976 78.2456 28.448 77.9896 28C77.7443 27.552 77.419 27.2107 77.0136 26.976C76.6083 26.7413 76.171 26.624 75.7016 26.624C75.2323 26.624 74.795 26.7413 74.3896 26.976C73.9843 27.2 73.6536 27.536 73.3976 27.984C73.1523 28.4213 73.0296 28.944 73.0296 29.552C73.0296 30.16 73.1523 30.6933 73.3976 31.152C73.6536 31.6107 73.9843 31.9627 74.3896 32.208C74.8056 32.4427 75.243 32.56 75.7016 32.56C76.171 32.56 76.6083 32.4427 77.0136 32.208C77.419 31.9733 77.7443 31.632 77.9896 31.184C78.2456 30.7253 78.3736 30.192 78.3736 29.584ZM90.8494 29.376C90.8494 29.7067 90.828 30.0053 90.7854 30.272H84.0494C84.1027 30.976 84.364 31.5413 84.8334 31.968C85.3027 32.3947 85.8787 32.608 86.5614 32.608C87.5427 32.608 88.236 32.1973 88.6414 31.376H90.6094C90.3427 32.1867 89.8574 32.8533 89.1534 33.376C88.46 33.888 87.596 34.144 86.5614 34.144C85.7187 34.144 84.9614 33.9573 84.2894 33.584C83.628 33.2 83.1054 32.6667 82.7214 31.984C82.348 31.2907 82.1614 30.4907 82.1614 29.584C82.1614 28.6773 82.3427 27.8827 82.7054 27.2C83.0787 26.5067 83.596 25.9733 84.2574 25.6C84.9294 25.2267 85.6974 25.04 86.5614 25.04C87.3934 25.04 88.1347 25.2213 88.7854 25.584C89.436 25.9467 89.9427 26.4587 90.3054 27.12C90.668 27.7707 90.8494 28.5227 90.8494 29.376ZM88.9454 28.8C88.9347 28.128 88.6947 27.5893 88.2254 27.184C87.756 26.7787 87.1747 26.576 86.4814 26.576C85.852 26.576 85.3134 26.7787 84.8654 27.184C84.4174 27.5787 84.1507 28.1173 84.0654 28.8H88.9454ZM97.2524 25.04C97.9457 25.04 98.5644 25.184 99.1084 25.472C99.663 25.76 100.095 26.1867 100.404 26.752C100.714 27.3173 100.868 28 100.868 28.8V34H99.0604V29.072C99.0604 28.2827 98.863 27.68 98.4684 27.264C98.0737 26.8373 97.535 26.624 96.8524 26.624C96.1697 26.624 95.6257 26.8373 95.2204 27.264C94.8257 27.68 94.6284 28.2827 94.6284 29.072V34H92.8044V25.184H94.6284V26.192C94.927 25.8293 95.3057 25.5467 95.7644 25.344C96.2337 25.1413 96.7297 25.04 97.2524 25.04ZM106.555 34.144C105.862 34.144 105.238 34.0213 104.683 33.776C104.139 33.52 103.707 33.1787 103.387 32.752C103.067 32.3147 102.896 31.8293 102.875 31.296H104.763C104.795 31.6693 104.971 31.984 105.291 32.24C105.622 32.4853 106.032 32.608 106.523 32.608C107.035 32.608 107.43 32.512 107.707 32.32C107.995 32.1173 108.139 31.8613 108.139 31.552C108.139 31.2213 107.979 30.976 107.659 30.816C107.35 30.656 106.854 30.48 106.171 30.288C105.51 30.1067 104.971 29.9307 104.555 29.76C104.139 29.5893 103.776 29.328 103.467 28.976C103.168 28.624 103.019 28.16 103.019 27.584C103.019 27.1147 103.158 26.688 103.435 26.304C103.712 25.9093 104.107 25.6 104.619 25.376C105.142 25.152 105.739 25.04 106.411 25.04C107.414 25.04 108.219 25.296 108.827 25.808C109.446 26.3093 109.776 26.9973 109.819 27.872H107.995C107.963 27.4773 107.803 27.1627 107.515 26.928C107.227 26.6933 106.838 26.576 106.347 26.576C105.867 26.576 105.499 26.6667 105.243 26.848C104.987 27.0293 104.859 27.2693 104.859 27.568C104.859 27.8027 104.944 28 105.115 28.16C105.286 28.32 105.494 28.448 105.739 28.544C105.984 28.6293 106.347 28.7413 106.827 28.88C107.467 29.0507 107.99 29.2267 108.395 29.408C108.811 29.5787 109.168 29.8347 109.467 30.176C109.766 30.5173 109.92 30.9707 109.931 31.536C109.931 32.0373 109.792 32.4853 109.515 32.88C109.238 33.2747 108.843 33.584 108.331 33.808C107.83 34.032 107.238 34.144 106.555 34.144ZM118.202 26.48C118.511 26.0747 118.933 25.7333 119.466 25.456C119.999 25.1787 120.602 25.04 121.274 25.04C122.042 25.04 122.741 25.232 123.37 25.616C124.01 25.9893 124.511 26.5173 124.874 27.2C125.237 27.8827 125.418 28.6667 125.418 29.552C125.418 30.4373 125.237 31.232 124.874 31.936C124.511 32.6293 124.01 33.1733 123.37 33.568C122.741 33.952 122.042 34.144 121.274 34.144C120.602 34.144 120.005 34.0107 119.482 33.744C118.959 33.4667 118.533 33.1253 118.202 32.72V38.192H116.378V25.184H118.202V26.48ZM123.562 29.552C123.562 28.944 123.434 28.4213 123.178 27.984C122.933 27.536 122.602 27.2 122.186 26.976C121.781 26.7413 121.343 26.624 120.874 26.624C120.415 26.624 119.978 26.7413 119.562 26.976C119.157 27.2107 118.826 27.552 118.57 28C118.325 28.448 118.202 28.976 118.202 29.584C118.202 30.192 118.325 30.7253 118.57 31.184C118.826 31.632 119.157 31.9733 119.562 32.208C119.978 32.4427 120.415 32.56 120.874 32.56C121.343 32.56 121.781 32.4427 122.186 32.208C122.602 31.9627 122.933 31.6107 123.178 31.152C123.434 30.6933 123.562 30.16 123.562 29.552ZM131.206 34.144C130.374 34.144 129.622 33.9573 128.95 33.584C128.278 33.2 127.75 32.6667 127.366 31.984C126.982 31.2907 126.79 30.4907 126.79 29.584C126.79 28.688 126.987 27.8933 127.382 27.2C127.777 26.5067 128.315 25.9733 128.998 25.6C129.681 25.2267 130.443 25.04 131.286 25.04C132.129 25.04 132.891 25.2267 133.574 25.6C134.257 25.9733 134.795 26.5067 135.19 27.2C135.585 27.8933 135.782 28.688 135.782 29.584C135.782 30.48 135.579 31.2747 135.174 31.968C134.769 32.6613 134.214 33.2 133.51 33.584C132.817 33.9573 132.049 34.144 131.206 34.144ZM131.206 32.56C131.675 32.56 132.113 32.448 132.518 32.224C132.934 32 133.27 31.664 133.526 31.216C133.782 30.768 133.91 30.224 133.91 29.584C133.91 28.944 133.787 28.4053 133.542 27.968C133.297 27.52 132.971 27.184 132.566 26.96C132.161 26.736 131.723 26.624 131.254 26.624C130.785 26.624 130.347 26.736 129.942 26.96C129.547 27.184 129.233 27.52 128.998 27.968C128.763 28.4053 128.646 28.944 128.646 29.584C128.646 30.5333 128.886 31.2693 129.366 31.792C129.857 32.304 130.47 32.56 131.206 32.56ZM139.569 26.464C139.836 26.016 140.188 25.6693 140.625 25.424C141.073 25.168 141.601 25.04 142.209 25.04V26.928H141.745C141.03 26.928 140.486 27.1093 140.113 27.472C139.75 27.8347 139.569 28.464 139.569 29.36V34H137.745V25.184H139.569V26.464ZM151.562 34.144C150.869 34.144 150.245 34.0213 149.69 33.776C149.146 33.52 148.714 33.1787 148.394 32.752C148.074 32.3147 147.903 31.8293 147.882 31.296H149.77C149.802 31.6693 149.978 31.984 150.298 32.24C150.629 32.4853 151.039 32.608 151.53 32.608C152.042 32.608 152.437 32.512 152.714 32.32C153.002 32.1173 153.146 31.8613 153.146 31.552C153.146 31.2213 152.986 30.976 152.666 30.816C152.357 30.656 151.861 30.48 151.178 30.288C150.517 30.1067 149.978 29.9307 149.562 29.76C149.146 29.5893 148.783 29.328 148.474 28.976C148.175 28.624 148.026 28.16 148.026 27.584C148.026 27.1147 148.165 26.688 148.442 26.304C148.719 25.9093 149.114 25.6 149.626 25.376C150.149 25.152 150.746 25.04 151.418 25.04C152.421 25.04 153.226 25.296 153.834 25.808C154.453 26.3093 154.783 26.9973 154.826 27.872H153.002C152.97 27.4773 152.81 27.1627 152.522 26.928C152.234 26.6933 151.845 26.576 151.354 26.576C150.874 26.576 150.506 26.6667 150.25 26.848C149.994 27.0293 149.866 27.2693 149.866 27.568C149.866 27.8027 149.951 28 150.122 28.16C150.293 28.32 150.501 28.448 150.746 28.544C150.991 28.6293 151.354 28.7413 151.834 28.88C152.474 29.0507 152.997 29.2267 153.402 29.408C153.818 29.5787 154.175 29.8347 154.474 30.176C154.773 30.5173 154.927 30.9707 154.938 31.536C154.938 32.0373 154.799 32.4853 154.522 32.88C154.245 33.2747 153.85 33.584 153.338 33.808C152.837 34.032 152.245 34.144 151.562 34.144ZM165.149 29.376C165.149 29.7067 165.127 30.0053 165.085 30.272H158.349C158.402 30.976 158.663 31.5413 159.133 31.968C159.602 32.3947 160.178 32.608 160.861 32.608C161.842 32.608 162.535 32.1973 162.941 31.376H164.909C164.642 32.1867 164.157 32.8533 163.453 33.376C162.759 33.888 161.895 34.144 160.861 34.144C160.018 34.144 159.261 33.9573 158.589 33.584C157.927 33.2 157.405 32.6667 157.021 31.984C156.647 31.2907 156.461 30.4907 156.461 29.584C156.461 28.6773 156.642 27.8827 157.005 27.2C157.378 26.5067 157.895 25.9733 158.557 25.6C159.229 25.2267 159.997 25.04 160.861 25.04C161.693 25.04 162.434 25.2213 163.085 25.584C163.735 25.9467 164.242 26.4587 164.605 27.12C164.967 27.7707 165.149 28.5227 165.149 29.376ZM163.245 28.8C163.234 28.128 162.994 27.5893 162.525 27.184C162.055 26.7787 161.474 26.576 160.781 26.576C160.151 26.576 159.613 26.7787 159.165 27.184C158.717 27.5787 158.45 28.1173 158.365 28.8H163.245ZM177.776 25.04C178.469 25.04 179.088 25.184 179.632 25.472C180.186 25.76 180.618 26.1867 180.928 26.752C181.248 27.3173 181.408 28 181.408 28.8V34H179.6V29.072C179.6 28.2827 179.402 27.68 179.008 27.264C178.613 26.8373 178.074 26.624 177.392 26.624C176.709 26.624 176.165 26.8373 175.76 27.264C175.365 27.68 175.168 28.2827 175.168 29.072V34H173.36V29.072C173.36 28.2827 173.162 27.68 172.768 27.264C172.373 26.8373 171.834 26.624 171.152 26.624C170.469 26.624 169.925 26.8373 169.52 27.264C169.125 27.68 168.928 28.2827 168.928 29.072V34H167.104V25.184H168.928V26.192C169.226 25.8293 169.605 25.5467 170.064 25.344C170.522 25.1413 171.013 25.04 171.536 25.04C172.24 25.04 172.869 25.1893 173.424 25.488C173.978 25.7867 174.405 26.2187 174.704 26.784C174.97 26.2507 175.386 25.8293 175.952 25.52C176.517 25.2 177.125 25.04 177.776 25.04ZM183.281 29.552C183.281 28.6667 183.462 27.8827 183.825 27.2C184.198 26.5173 184.699 25.9893 185.329 25.616C185.969 25.232 186.673 25.04 187.441 25.04C188.134 25.04 188.737 25.1787 189.249 25.456C189.771 25.7227 190.187 26.0587 190.497 26.464V25.184H192.337V34H190.497V32.688C190.187 33.104 189.766 33.4507 189.233 33.728C188.699 34.0053 188.091 34.144 187.409 34.144C186.651 34.144 185.958 33.952 185.329 33.568C184.699 33.1733 184.198 32.6293 183.825 31.936C183.462 31.232 183.281 30.4373 183.281 29.552ZM190.497 29.584C190.497 28.976 190.369 28.448 190.113 28C189.867 27.552 189.542 27.2107 189.137 26.976C188.731 26.7413 188.294 26.624 187.825 26.624C187.355 26.624 186.918 26.7413 186.513 26.976C186.107 27.2 185.777 27.536 185.521 27.984C185.275 28.4213 185.153 28.944 185.153 29.552C185.153 30.16 185.275 30.6933 185.521 31.152C185.777 31.6107 186.107 31.9627 186.513 32.208C186.929 32.4427 187.366 32.56 187.825 32.56C188.294 32.56 188.731 32.4427 189.137 32.208C189.542 31.9733 189.867 31.632 190.113 31.184C190.369 30.7253 190.497 30.192 190.497 29.584ZM199.341 25.04C200.034 25.04 200.653 25.184 201.197 25.472C201.751 25.76 202.183 26.1867 202.493 26.752C202.802 27.3173 202.957 28 202.957 28.8V34H201.149V29.072C201.149 28.2827 200.951 27.68 200.557 27.264C200.162 26.8373 199.623 26.624 198.941 26.624C198.258 26.624 197.714 26.8373 197.309 27.264C196.914 27.68 196.717 28.2827 196.717 29.072V34H194.893V25.184H196.717V26.192C197.015 25.8293 197.394 25.5467 197.853 25.344C198.322 25.1413 198.818 25.04 199.341 25.04ZM204.835 29.552C204.835 28.6667 205.016 27.8827 205.379 27.2C205.752 26.5173 206.254 25.9893 206.883 25.616C207.523 25.232 208.227 25.04 208.995 25.04C209.688 25.04 210.291 25.1787 210.803 25.456C211.326 25.7227 211.742 26.0587 212.051 26.464V25.184H213.891V34H212.051V32.688C211.742 33.104 211.32 33.4507 210.787 33.728C210.254 34.0053 209.646 34.144 208.963 34.144C208.206 34.144 207.512 33.952 206.883 33.568C206.254 33.1733 205.752 32.6293 205.379 31.936C205.016 31.232 204.835 30.4373 204.835 29.552ZM212.051 29.584C212.051 28.976 211.923 28.448 211.667 28C211.422 27.552 211.096 27.2107 210.691 26.976C210.286 26.7413 209.848 26.624 209.379 26.624C208.91 26.624 208.472 26.7413 208.067 26.976C207.662 27.2 207.331 27.536 207.075 27.984C206.83 28.4213 206.707 28.944 206.707 29.552C206.707 30.16 206.83 30.6933 207.075 31.152C207.331 31.6107 207.662 31.9627 208.067 32.208C208.483 32.4427 208.92 32.56 209.379 32.56C209.848 32.56 210.286 32.4427 210.691 32.208C211.096 31.9733 211.422 31.632 211.667 31.184C211.923 30.7253 212.051 30.192 212.051 29.584Z" fill="#16A34A"/>
<path d="M17.3299 56.592C17.3859 55.864 17.6659 55.292 18.1699 54.876C18.6819 54.452 19.3419 54.24 20.1499 54.24C20.6859 54.24 21.1459 54.336 21.5299 54.528C21.9139 54.72 22.2019 54.984 22.3939 55.32C22.5939 55.648 22.6939 56.02 22.6939 56.436C22.6939 56.94 22.5459 57.376 22.2499 57.744C21.9539 58.112 21.5339 58.34 20.9899 58.428V58.488C21.5579 58.6 22.0099 58.848 22.3459 59.232C22.6819 59.608 22.8499 60.104 22.8499 60.72C22.8499 61.408 22.6179 61.972 22.1539 62.412C21.6979 62.844 21.0339 63.06 20.1619 63.06C19.3299 63.06 18.6459 62.844 18.1099 62.412C17.5739 61.972 17.2659 61.352 17.1859 60.552H18.0019C18.0739 61.088 18.2979 61.524 18.6739 61.86C19.0499 62.188 19.5459 62.352 20.1619 62.352C20.7699 62.352 21.2339 62.192 21.5539 61.872C21.8819 61.552 22.0459 61.144 22.0459 60.648C22.0459 59.432 21.1699 58.824 19.4179 58.824H19.1539V58.116H19.4299C21.0619 58.116 21.8779 57.584 21.8779 56.52C21.8779 56.056 21.7259 55.684 21.4219 55.404C21.1179 55.116 20.6859 54.972 20.1259 54.972C19.5819 54.972 19.1299 55.116 18.7699 55.404C18.4179 55.684 18.2099 56.08 18.1459 56.592H17.3299ZM24.3855 58.62C24.3855 57.244 24.5975 56.176 25.0215 55.416C25.4455 54.656 26.2055 54.276 27.3015 54.276C28.3975 54.276 29.1575 54.656 29.5815 55.416C30.0055 56.176 30.2175 57.244 30.2175 58.62C30.2175 60.02 30.0055 61.104 29.5815 61.872C29.1575 62.64 28.3975 63.024 27.3015 63.024C26.1975 63.024 25.4335 62.64 25.0095 61.872C24.5935 61.104 24.3855 60.02 24.3855 58.62ZM29.3895 58.62C29.3895 57.876 29.3375 57.248 29.2335 56.736C29.1295 56.224 28.9255 55.812 28.6215 55.5C28.3175 55.188 27.8775 55.032 27.3015 55.032C26.7255 55.032 26.2855 55.188 25.9815 55.5C25.6775 55.812 25.4735 56.224 25.3695 56.736C25.2655 57.248 25.2135 57.876 25.2135 58.62C25.2135 59.388 25.2655 60.032 25.3695 60.552C25.4735 61.064 25.6775 61.476 25.9815 61.788C26.2855 62.1 26.7255 62.256 27.3015 62.256C27.8775 62.256 28.3175 62.1 28.6215 61.788C28.9255 61.476 29.1295 61.064 29.2335 60.552C29.3375 60.032 29.3895 59.388 29.3895 58.62ZM20.4618 91.152V90.396H22.5018V99H21.6498V91.152H20.4618ZM29.7978 91.116H25.4058V94.188C25.6058 93.908 25.8978 93.68 26.2818 93.504C26.6658 93.32 27.0818 93.228 27.5298 93.228C28.1858 93.228 28.7218 93.364 29.1378 93.636C29.5538 93.9 29.8537 94.248 30.0378 94.68C30.2218 95.104 30.3138 95.56 30.3138 96.048C30.3138 96.608 30.2058 97.116 29.9898 97.572C29.7818 98.02 29.4578 98.376 29.0178 98.64C28.5858 98.904 28.0458 99.036 27.3978 99.036C26.5738 99.036 25.9058 98.824 25.3938 98.4C24.8818 97.968 24.5698 97.388 24.4578 96.66H25.2858C25.3898 97.188 25.6298 97.596 26.0058 97.884C26.3818 98.172 26.8458 98.316 27.3978 98.316C28.0938 98.316 28.6178 98.112 28.9698 97.704C29.3298 97.288 29.5098 96.74 29.5098 96.06C29.5098 95.396 29.3298 94.88 28.9698 94.512C28.6098 94.136 28.0938 93.948 27.4218 93.948C26.9578 93.948 26.5498 94.056 26.1978 94.272C25.8458 94.488 25.5858 94.78 25.4178 95.148H24.6258V90.384H29.7978V91.116ZM24.3855 130.62C24.3855 129.244 24.5975 128.176 25.0215 127.416C25.4455 126.656 26.2055 126.276 27.3015 126.276C28.3975 126.276 29.1575 126.656 29.5815 127.416C30.0055 128.176 30.2175 129.244 30.2175 130.62C30.2175 132.02 30.0055 133.104 29.5815 133.872C29.1575 134.64 28.3975 135.024 27.3015 135.024C26.1975 135.024 25.4335 134.64 25.0095 133.872C24.5935 133.104 24.3855 132.02 24.3855 130.62ZM29.3895 130.62C29.3895 129.876 29.3375 129.248 29.2335 128.736C29.1295 128.224 28.9255 127.812 28.6215 127.5C28.3175 127.188 27.8775 127.032 27.3015 127.032C26.7255 127.032 26.2855 127.188 25.9815 127.5C25.6775 127.812 25.4735 128.224 25.3695 128.736C25.2655 129.248 25.2135 129.876 25.2135 130.62C25.2135 131.388 25.2655 132.032 25.3695 132.552C25.4735 133.064 25.6775 133.476 25.9815 133.788C26.2855 134.1 26.7255 134.256 27.3015 134.256C27.8775 134.256 28.3175 134.1 28.6215 133.788C28.9255 133.476 29.1295 133.064 29.2335 132.552C29.3375 132.032 29.3895 131.388 29.3895 130.62Z" fill="black" fill-opacity="0.48"/>
<path d="M77.026 62.4026C71.3749 56.0704 50.654 56.8326 41 58.0052V140H367V62.4026H350.047C337.332 62.4026 339.098 82.3375 325.323 82.3375C311.548 82.3375 306.957 69.7316 300.952 70.9042C294.948 72.0769 283.999 73.8358 275.875 62.4026C267.752 50.9694 241.262 46.8651 225.368 65.6273C209.475 84.3896 206.296 65.6273 193.228 77.0606C180.159 88.4938 164.619 81.1648 158.614 65.6273C152.61 50.0899 114.465 43.6404 104.575 58.0052C94.6858 72.3701 84.0899 70.3179 77.026 62.4026Z" fill="url(#paint0_linear_20_1376)"/>
<path d="M41 57.9942C50.654 56.8232 71.3749 56.062 77.026 62.3856C84.0899 70.29 94.6858 72.3393 104.575 57.9942C114.465 43.6491 152.61 50.0898 158.614 65.6059C164.619 81.122 180.159 88.4409 193.228 77.0234C206.296 65.6059 209.475 84.3423 225.368 65.6059C241.262 46.8694 267.752 50.9681 275.875 62.3856C283.999 73.803 294.948 72.0465 300.952 70.8755C306.957 69.7045 311.548 82.293 325.323 82.293C339.098 82.293 337.332 62.3856 350.047 62.3856C360.219 62.3856 365.587 62.3856 367 62.3856" stroke="#00DF5A" stroke-width="1.8375"/>
<path d="M42.2643 162.34C43.7363 161.236 44.8723 160.248 45.6723 159.376C46.4803 158.496 46.8843 157.636 46.8843 156.796C46.8843 156.244 46.7443 155.804 46.4643 155.476C46.1923 155.14 45.7443 154.972 45.1203 154.972C44.5123 154.972 44.0403 155.164 43.7043 155.548C43.3763 155.924 43.1923 156.428 43.1523 157.06H42.3363C42.3843 156.172 42.6563 155.484 43.1523 154.996C43.6563 154.5 44.3123 154.252 45.1203 154.252C45.8963 154.252 46.5243 154.472 47.0043 154.912C47.4843 155.344 47.7243 155.96 47.7243 156.76C47.7243 157.728 47.3203 158.668 46.5123 159.58C45.7123 160.484 44.7243 161.368 43.5483 162.232H47.9883V162.94H42.2643V162.34ZM48.9275 160.96V160.324L53.2955 154.444H54.2915V160.228H55.5755V160.96H54.2915V163H53.4635V160.96H48.9275ZM53.4995 155.368L49.8995 160.228H53.4995V155.368ZM60.5709 151.72L57.2589 164.992H56.4309L59.7189 151.72H60.5709ZM61.9558 158.62C61.9558 157.244 62.1678 156.176 62.5918 155.416C63.0158 154.656 63.7758 154.276 64.8718 154.276C65.9678 154.276 66.7278 154.656 67.1518 155.416C67.5758 156.176 67.7878 157.244 67.7878 158.62C67.7878 160.02 67.5758 161.104 67.1518 161.872C66.7278 162.64 65.9678 163.024 64.8718 163.024C63.7678 163.024 63.0038 162.64 62.5798 161.872C62.1638 161.104 61.9558 160.02 61.9558 158.62ZM66.9598 158.62C66.9598 157.876 66.9078 157.248 66.8038 156.736C66.6998 156.224 66.4958 155.812 66.1918 155.5C65.8878 155.188 65.4478 155.032 64.8718 155.032C64.2958 155.032 63.8558 155.188 63.5518 155.5C63.2478 155.812 63.0438 156.224 62.9398 156.736C62.8358 157.248 62.7838 157.876 62.7838 158.62C62.7838 159.388 62.8358 160.032 62.9398 160.552C63.0438 161.064 63.2478 161.476 63.5518 161.788C63.8558 162.1 64.2958 162.256 64.8718 162.256C65.4478 162.256 65.8878 162.1 66.1918 161.788C66.4958 161.476 66.6998 161.064 66.8038 160.552C66.9078 160.032 66.9598 159.388 66.9598 158.62ZM74.4983 155.056L71.1503 163H70.2983L73.6823 155.128H68.8823V154.408H74.4983V155.056ZM79.6608 151.72L76.3488 164.992H75.5208L78.8088 151.72H79.6608ZM80.8776 162.34C82.3496 161.236 83.4856 160.248 84.2856 159.376C85.0936 158.496 85.4976 157.636 85.4976 156.796C85.4976 156.244 85.3576 155.804 85.0776 155.476C84.8056 155.14 84.3576 154.972 83.7336 154.972C83.1256 154.972 82.6536 155.164 82.3176 155.548C81.9896 155.924 81.8056 156.428 81.7656 157.06H80.9496C80.9976 156.172 81.2696 155.484 81.7656 154.996C82.2696 154.5 82.9256 154.252 83.7336 154.252C84.5096 154.252 85.1376 154.472 85.6176 154.912C86.0976 155.344 86.3376 155.96 86.3376 156.76C86.3376 157.728 85.9336 158.668 85.1256 159.58C84.3256 160.484 83.3376 161.368 82.1616 162.232H86.6016V162.94H80.8776V162.34ZM87.7448 162.34C89.2168 161.236 90.3528 160.248 91.1528 159.376C91.9608 158.496 92.3648 157.636 92.3648 156.796C92.3648 156.244 92.2248 155.804 91.9448 155.476C91.6728 155.14 91.2248 154.972 90.6008 154.972C89.9928 154.972 89.5208 155.164 89.1848 155.548C88.8568 155.924 88.6728 156.428 88.6328 157.06H87.8168C87.8648 156.172 88.1368 155.484 88.6328 154.996C89.1368 154.5 89.7928 154.252 90.6008 154.252C91.3768 154.252 92.0048 154.472 92.4848 154.912C92.9648 155.344 93.2048 155.96 93.2048 156.76C93.2048 157.728 92.8008 158.668 91.9928 159.58C91.1928 160.484 90.2048 161.368 89.0288 162.232H93.4688V162.94H87.7448V162.34Z" fill="black" fill-opacity="0.48"/>
<path d="M112.349 156.592C112.405 155.864 112.685 155.292 113.189 154.876C113.701 154.452 114.361 154.24 115.169 154.24C115.705 154.24 116.165 154.336 116.549 154.528C116.933 154.72 117.221 154.984 117.413 155.32C117.613 155.648 117.713 156.02 117.713 156.436C117.713 156.94 117.565 157.376 117.269 157.744C116.973 158.112 116.553 158.34 116.009 158.428V158.488C116.577 158.6 117.029 158.848 117.365 159.232C117.701 159.608 117.869 160.104 117.869 160.72C117.869 161.408 117.637 161.972 117.173 162.412C116.717 162.844 116.053 163.06 115.181 163.06C114.349 163.06 113.665 162.844 113.129 162.412C112.593 161.972 112.285 161.352 112.205 160.552H113.021C113.093 161.088 113.317 161.524 113.693 161.86C114.069 162.188 114.565 162.352 115.181 162.352C115.789 162.352 116.253 162.192 116.573 161.872C116.901 161.552 117.065 161.144 117.065 160.648C117.065 159.432 116.189 158.824 114.437 158.824H114.173V158.116H114.449C116.081 158.116 116.897 157.584 116.897 156.52C116.897 156.056 116.745 155.684 116.441 155.404C116.137 155.116 115.705 154.972 115.145 154.972C114.601 154.972 114.149 155.116 113.789 155.404C113.437 155.684 113.229 156.08 113.165 156.592H112.349ZM118.997 155.152V154.396H121.037V163H120.185V155.152H118.997ZM126.821 151.72L123.509 164.992H122.681L125.969 151.72H126.821ZM128.206 158.62C128.206 157.244 128.418 156.176 128.842 155.416C129.266 154.656 130.026 154.276 131.122 154.276C132.218 154.276 132.978 154.656 133.402 155.416C133.826 156.176 134.038 157.244 134.038 158.62C134.038 160.02 133.826 161.104 133.402 161.872C132.978 162.64 132.218 163.024 131.122 163.024C130.018 163.024 129.254 162.64 128.83 161.872C128.414 161.104 128.206 160.02 128.206 158.62ZM133.21 158.62C133.21 157.876 133.158 157.248 133.054 156.736C132.95 156.224 132.746 155.812 132.442 155.5C132.138 155.188 131.698 155.032 131.122 155.032C130.546 155.032 130.106 155.188 129.802 155.5C129.498 155.812 129.294 156.224 129.19 156.736C129.086 157.248 129.034 157.876 129.034 158.62C129.034 159.388 129.086 160.032 129.19 160.552C129.294 161.064 129.498 161.476 129.802 161.788C130.106 162.1 130.546 162.256 131.122 162.256C131.698 162.256 132.138 162.1 132.442 161.788C132.746 161.476 132.95 161.064 133.054 160.552C133.158 160.032 133.21 159.388 133.21 158.62ZM140.748 155.056L137.4 163H136.548L139.932 155.128H135.132V154.408H140.748V155.056ZM145.911 151.72L142.599 164.992H141.771L145.059 151.72H145.911ZM147.128 162.34C148.6 161.236 149.736 160.248 150.536 159.376C151.344 158.496 151.748 157.636 151.748 156.796C151.748 156.244 151.608 155.804 151.328 155.476C151.056 155.14 150.608 154.972 149.984 154.972C149.376 154.972 148.904 155.164 148.568 155.548C148.24 155.924 148.056 156.428 148.016 157.06H147.2C147.248 156.172 147.52 155.484 148.016 154.996C148.52 154.5 149.176 154.252 149.984 154.252C150.76 154.252 151.388 154.472 151.868 154.912C152.348 155.344 152.588 155.96 152.588 156.76C152.588 157.728 152.184 158.668 151.376 159.58C150.576 160.484 149.588 161.368 148.412 162.232H152.852V162.94H147.128V162.34ZM153.995 162.34C155.467 161.236 156.603 160.248 157.403 159.376C158.211 158.496 158.615 157.636 158.615 156.796C158.615 156.244 158.475 155.804 158.195 155.476C157.923 155.14 157.475 154.972 156.851 154.972C156.243 154.972 155.771 155.164 155.435 155.548C155.107 155.924 154.923 156.428 154.883 157.06H154.067C154.115 156.172 154.387 155.484 154.883 154.996C155.387 154.5 156.043 154.252 156.851 154.252C157.627 154.252 158.255 154.472 158.735 154.912C159.215 155.344 159.455 155.96 159.455 156.76C159.455 157.728 159.051 158.668 158.243 159.58C157.443 160.484 156.455 161.368 155.279 162.232H159.719V162.94H153.995V162.34Z" fill="black" fill-opacity="0.48"/>
<path d="M179.276 158.62C179.276 157.244 179.488 156.176 179.912 155.416C180.336 154.656 181.096 154.276 182.192 154.276C183.288 154.276 184.048 154.656 184.472 155.416C184.896 156.176 185.108 157.244 185.108 158.62C185.108 160.02 184.896 161.104 184.472 161.872C184.048 162.64 183.288 163.024 182.192 163.024C181.088 163.024 180.324 162.64 179.9 161.872C179.484 161.104 179.276 160.02 179.276 158.62ZM184.28 158.62C184.28 157.876 184.228 157.248 184.124 156.736C184.02 156.224 183.816 155.812 183.512 155.5C183.208 155.188 182.768 155.032 182.192 155.032C181.616 155.032 181.176 155.188 180.872 155.5C180.568 155.812 180.364 156.224 180.26 156.736C180.156 157.248 180.104 157.876 180.104 158.62C180.104 159.388 180.156 160.032 180.26 160.552C180.364 161.064 180.568 161.476 180.872 161.788C181.176 162.1 181.616 162.256 182.192 162.256C182.768 162.256 183.208 162.1 183.512 161.788C183.816 161.476 184.02 161.064 184.124 160.552C184.228 160.032 184.28 159.388 184.28 158.62ZM191.819 155.056L188.471 163H187.619L191.003 155.128H186.203V154.408H191.819V155.056ZM196.981 151.72L193.669 164.992H192.841L196.129 151.72H196.981ZM198.366 158.62C198.366 157.244 198.578 156.176 199.002 155.416C199.426 154.656 200.186 154.276 201.282 154.276C202.378 154.276 203.138 154.656 203.562 155.416C203.986 156.176 204.198 157.244 204.198 158.62C204.198 160.02 203.986 161.104 203.562 161.872C203.138 162.64 202.378 163.024 201.282 163.024C200.178 163.024 199.414 162.64 198.99 161.872C198.574 161.104 198.366 160.02 198.366 158.62ZM203.37 158.62C203.37 157.876 203.318 157.248 203.214 156.736C203.11 156.224 202.906 155.812 202.602 155.5C202.298 155.188 201.858 155.032 201.282 155.032C200.706 155.032 200.266 155.188 199.962 155.5C199.658 155.812 199.454 156.224 199.35 156.736C199.246 157.248 199.194 157.876 199.194 158.62C199.194 159.388 199.246 160.032 199.35 160.552C199.454 161.064 199.658 161.476 199.962 161.788C200.266 162.1 200.706 162.256 201.282 162.256C201.858 162.256 202.298 162.1 202.602 161.788C202.906 161.476 203.11 161.064 203.214 160.552C203.318 160.032 203.37 159.388 203.37 158.62ZM207.428 158.536C206.932 158.376 206.552 158.124 206.288 157.78C206.032 157.436 205.904 157.02 205.904 156.532C205.904 156.1 206.012 155.716 206.228 155.38C206.452 155.036 206.776 154.768 207.2 154.576C207.624 154.376 208.132 154.276 208.724 154.276C209.316 154.276 209.824 154.376 210.248 154.576C210.672 154.768 210.992 155.036 211.208 155.38C211.432 155.716 211.544 156.1 211.544 156.532C211.544 157.012 211.412 157.428 211.148 157.78C210.892 158.132 210.516 158.384 210.02 158.536C210.564 158.672 210.992 158.932 211.304 159.316C211.616 159.7 211.772 160.168 211.772 160.72C211.772 161.232 211.644 161.68 211.388 162.064C211.14 162.44 210.784 162.732 210.32 162.94C209.864 163.148 209.332 163.252 208.724 163.252C208.116 163.252 207.58 163.148 207.116 162.94C206.66 162.732 206.304 162.44 206.048 162.064C205.8 161.68 205.676 161.232 205.676 160.72C205.676 160.168 205.832 159.7 206.144 159.316C206.456 158.932 206.884 158.672 207.428 158.536ZM210.728 156.628C210.728 156.1 210.548 155.692 210.188 155.404C209.828 155.116 209.34 154.972 208.724 154.972C208.108 154.972 207.62 155.116 207.26 155.404C206.9 155.684 206.72 156.092 206.72 156.628C206.72 157.124 206.904 157.52 207.272 157.816C207.64 158.112 208.124 158.26 208.724 158.26C209.324 158.26 209.808 158.112 210.176 157.816C210.544 157.52 210.728 157.124 210.728 156.628ZM208.724 158.908C208.068 158.908 207.532 159.056 207.116 159.352C206.7 159.648 206.492 160.096 206.492 160.696C206.492 161.272 206.692 161.724 207.092 162.052C207.492 162.38 208.036 162.544 208.724 162.544C209.404 162.544 209.944 162.38 210.344 162.052C210.744 161.716 210.944 161.264 210.944 160.696C210.944 160.104 210.736 159.66 210.32 159.364C209.912 159.06 209.38 158.908 208.724 158.908ZM217.161 151.72L213.849 164.992H213.021L216.309 151.72H217.161ZM218.378 162.34C219.85 161.236 220.986 160.248 221.786 159.376C222.594 158.496 222.998 157.636 222.998 156.796C222.998 156.244 222.858 155.804 222.578 155.476C222.306 155.14 221.858 154.972 221.234 154.972C220.626 154.972 220.154 155.164 219.818 155.548C219.49 155.924 219.306 156.428 219.266 157.06H218.45C218.498 156.172 218.77 155.484 219.266 154.996C219.77 154.5 220.426 154.252 221.234 154.252C222.01 154.252 222.638 154.472 223.118 154.912C223.598 155.344 223.838 155.96 223.838 156.76C223.838 157.728 223.434 158.668 222.626 159.58C221.826 160.484 220.838 161.368 219.662 162.232H224.102V162.94H218.378V162.34ZM225.245 162.34C226.717 161.236 227.853 160.248 228.653 159.376C229.461 158.496 229.865 157.636 229.865 156.796C229.865 156.244 229.725 155.804 229.445 155.476C229.173 155.14 228.725 154.972 228.101 154.972C227.493 154.972 227.021 155.164 226.685 155.548C226.357 155.924 226.173 156.428 226.133 157.06H225.317C225.365 156.172 225.637 155.484 226.133 154.996C226.637 154.5 227.293 154.252 228.101 154.252C228.877 154.252 229.505 154.472 229.985 154.912C230.465 155.344 230.705 155.96 230.705 156.76C230.705 157.728 230.301 158.668 229.493 159.58C228.693 160.484 227.705 161.368 226.529 162.232H230.969V162.94H225.245V162.34Z" fill="black" fill-opacity="0.48"/>
<path d="M250.048 155.152V154.396H252.088V163H251.236V155.152H250.048ZM253.588 160.96V160.324L257.956 154.444H258.952V160.228H260.236V160.96H258.952V163H258.124V160.96H253.588ZM258.16 155.368L254.56 160.228H258.16V155.368ZM265.231 151.72L261.919 164.992H261.091L264.379 151.72H265.231ZM266.616 158.62C266.616 157.244 266.828 156.176 267.252 155.416C267.676 154.656 268.436 154.276 269.532 154.276C270.628 154.276 271.388 154.656 271.812 155.416C272.236 156.176 272.448 157.244 272.448 158.62C272.448 160.02 272.236 161.104 271.812 161.872C271.388 162.64 270.628 163.024 269.532 163.024C268.428 163.024 267.664 162.64 267.24 161.872C266.824 161.104 266.616 160.02 266.616 158.62ZM271.62 158.62C271.62 157.876 271.568 157.248 271.464 156.736C271.36 156.224 271.156 155.812 270.852 155.5C270.548 155.188 270.108 155.032 269.532 155.032C268.956 155.032 268.516 155.188 268.212 155.5C267.908 155.812 267.704 156.224 267.6 156.736C267.496 157.248 267.444 157.876 267.444 158.62C267.444 159.388 267.496 160.032 267.6 160.552C267.704 161.064 267.908 161.476 268.212 161.788C268.516 162.1 268.956 162.256 269.532 162.256C270.108 162.256 270.548 162.1 270.852 161.788C271.156 161.476 271.36 161.064 271.464 160.552C271.568 160.032 271.62 159.388 271.62 158.62ZM275.678 158.536C275.182 158.376 274.802 158.124 274.538 157.78C274.282 157.436 274.154 157.02 274.154 156.532C274.154 156.1 274.262 155.716 274.478 155.38C274.702 155.036 275.026 154.768 275.45 154.576C275.874 154.376 276.382 154.276 276.974 154.276C277.566 154.276 278.074 154.376 278.498 154.576C278.922 154.768 279.242 155.036 279.458 155.38C279.682 155.716 279.794 156.1 279.794 156.532C279.794 157.012 279.662 157.428 279.398 157.78C279.142 158.132 278.766 158.384 278.27 158.536C278.814 158.672 279.242 158.932 279.554 159.316C279.866 159.7 280.022 160.168 280.022 160.72C280.022 161.232 279.894 161.68 279.638 162.064C279.39 162.44 279.034 162.732 278.57 162.94C278.114 163.148 277.582 163.252 276.974 163.252C276.366 163.252 275.83 163.148 275.366 162.94C274.91 162.732 274.554 162.44 274.298 162.064C274.05 161.68 273.926 161.232 273.926 160.72C273.926 160.168 274.082 159.7 274.394 159.316C274.706 158.932 275.134 158.672 275.678 158.536ZM278.978 156.628C278.978 156.1 278.798 155.692 278.438 155.404C278.078 155.116 277.59 154.972 276.974 154.972C276.358 154.972 275.87 155.116 275.51 155.404C275.15 155.684 274.97 156.092 274.97 156.628C274.97 157.124 275.154 157.52 275.522 157.816C275.89 158.112 276.374 158.26 276.974 158.26C277.574 158.26 278.058 158.112 278.426 157.816C278.794 157.52 278.978 157.124 278.978 156.628ZM276.974 158.908C276.318 158.908 275.782 159.056 275.366 159.352C274.95 159.648 274.742 160.096 274.742 160.696C274.742 161.272 274.942 161.724 275.342 162.052C275.742 162.38 276.286 162.544 276.974 162.544C277.654 162.544 278.194 162.38 278.594 162.052C278.994 161.716 279.194 161.264 279.194 160.696C279.194 160.104 278.986 159.66 278.57 159.364C278.162 159.06 277.63 158.908 276.974 158.908ZM285.411 151.72L282.099 164.992H281.271L284.559 151.72H285.411ZM286.628 162.34C288.1 161.236 289.236 160.248 290.036 159.376C290.844 158.496 291.248 157.636 291.248 156.796C291.248 156.244 291.108 155.804 290.828 155.476C290.556 155.14 290.108 154.972 289.484 154.972C288.876 154.972 288.404 155.164 288.068 155.548C287.74 155.924 287.556 156.428 287.516 157.06H286.7C286.748 156.172 287.02 155.484 287.516 154.996C288.02 154.5 288.676 154.252 289.484 154.252C290.26 154.252 290.888 154.472 291.368 154.912C291.848 155.344 292.088 155.96 292.088 156.76C292.088 157.728 291.684 158.668 290.876 159.58C290.076 160.484 289.088 161.368 287.912 162.232H292.352V162.94H286.628V162.34ZM293.495 162.34C294.967 161.236 296.103 160.248 296.903 159.376C297.711 158.496 298.115 157.636 298.115 156.796C298.115 156.244 297.975 155.804 297.695 155.476C297.423 155.14 296.975 154.972 296.351 154.972C295.743 154.972 295.271 155.164 294.935 155.548C294.607 155.924 294.423 156.428 294.383 157.06H293.567C293.615 156.172 293.887 155.484 294.383 154.996C294.887 154.5 295.543 154.252 296.351 154.252C297.127 154.252 297.755 154.472 298.235 154.912C298.715 155.344 298.955 155.96 298.955 156.76C298.955 157.728 298.551 158.668 297.743 159.58C296.943 160.484 295.955 161.368 294.779 162.232H299.219V162.94H293.495V162.34Z" fill="black" fill-opacity="0.48"/>
<path d="M318.03 162.34C319.502 161.236 320.638 160.248 321.438 159.376C322.246 158.496 322.65 157.636 322.65 156.796C322.65 156.244 322.51 155.804 322.23 155.476C321.958 155.14 321.51 154.972 320.886 154.972C320.278 154.972 319.806 155.164 319.47 155.548C319.142 155.924 318.958 156.428 318.918 157.06H318.102C318.15 156.172 318.422 155.484 318.918 154.996C319.422 154.5 320.078 154.252 320.886 154.252C321.662 154.252 322.29 154.472 322.77 154.912C323.25 155.344 323.49 155.96 323.49 156.76C323.49 157.728 323.086 158.668 322.278 159.58C321.478 160.484 320.49 161.368 319.314 162.232H323.754V162.94H318.03V162.34ZM324.657 155.152V154.396H326.697V163H325.845V155.152H324.657ZM332.481 151.72L329.169 164.992H328.341L331.629 151.72H332.481ZM333.866 158.62C333.866 157.244 334.078 156.176 334.502 155.416C334.926 154.656 335.686 154.276 336.782 154.276C337.878 154.276 338.638 154.656 339.062 155.416C339.486 156.176 339.698 157.244 339.698 158.62C339.698 160.02 339.486 161.104 339.062 161.872C338.638 162.64 337.878 163.024 336.782 163.024C335.678 163.024 334.914 162.64 334.49 161.872C334.074 161.104 333.866 160.02 333.866 158.62ZM338.87 158.62C338.87 157.876 338.818 157.248 338.714 156.736C338.61 156.224 338.406 155.812 338.102 155.5C337.798 155.188 337.358 155.032 336.782 155.032C336.206 155.032 335.766 155.188 335.462 155.5C335.158 155.812 334.954 156.224 334.85 156.736C334.746 157.248 334.694 157.876 334.694 158.62C334.694 159.388 334.746 160.032 334.85 160.552C334.954 161.064 335.158 161.476 335.462 161.788C335.766 162.1 336.206 162.256 336.782 162.256C337.358 162.256 337.798 162.1 338.102 161.788C338.406 161.476 338.61 161.064 338.714 160.552C338.818 160.032 338.87 159.388 338.87 158.62ZM342.928 158.536C342.432 158.376 342.052 158.124 341.788 157.78C341.532 157.436 341.404 157.02 341.404 156.532C341.404 156.1 341.512 155.716 341.728 155.38C341.952 155.036 342.276 154.768 342.7 154.576C343.124 154.376 343.632 154.276 344.224 154.276C344.816 154.276 345.324 154.376 345.748 154.576C346.172 154.768 346.492 155.036 346.708 155.38C346.932 155.716 347.044 156.1 347.044 156.532C347.044 157.012 346.912 157.428 346.648 157.78C346.392 158.132 346.016 158.384 345.52 158.536C346.064 158.672 346.492 158.932 346.804 159.316C347.116 159.7 347.272 160.168 347.272 160.72C347.272 161.232 347.144 161.68 346.888 162.064C346.64 162.44 346.284 162.732 345.82 162.94C345.364 163.148 344.832 163.252 344.224 163.252C343.616 163.252 343.08 163.148 342.616 162.94C342.16 162.732 341.804 162.44 341.548 162.064C341.3 161.68 341.176 161.232 341.176 160.72C341.176 160.168 341.332 159.7 341.644 159.316C341.956 158.932 342.384 158.672 342.928 158.536ZM346.228 156.628C346.228 156.1 346.048 155.692 345.688 155.404C345.328 155.116 344.84 154.972 344.224 154.972C343.608 154.972 343.12 155.116 342.76 155.404C342.4 155.684 342.22 156.092 342.22 156.628C342.22 157.124 342.404 157.52 342.772 157.816C343.14 158.112 343.624 158.26 344.224 158.26C344.824 158.26 345.308 158.112 345.676 157.816C346.044 157.52 346.228 157.124 346.228 156.628ZM344.224 158.908C343.568 158.908 343.032 159.056 342.616 159.352C342.2 159.648 341.992 160.096 341.992 160.696C341.992 161.272 342.192 161.724 342.592 162.052C342.992 162.38 343.536 162.544 344.224 162.544C344.904 162.544 345.444 162.38 345.844 162.052C346.244 161.716 346.444 161.264 346.444 160.696C346.444 160.104 346.236 159.66 345.82 159.364C345.412 159.06 344.88 158.908 344.224 158.908ZM352.661 151.72L349.349 164.992H348.521L351.809 151.72H352.661ZM353.878 162.34C355.35 161.236 356.486 160.248 357.286 159.376C358.094 158.496 358.498 157.636 358.498 156.796C358.498 156.244 358.358 155.804 358.078 155.476C357.806 155.14 357.358 154.972 356.734 154.972C356.126 154.972 355.654 155.164 355.318 155.548C354.99 155.924 354.806 156.428 354.766 157.06H353.95C353.998 156.172 354.27 155.484 354.766 154.996C355.27 154.5 355.926 154.252 356.734 154.252C357.51 154.252 358.138 154.472 358.618 154.912C359.098 155.344 359.338 155.96 359.338 156.76C359.338 157.728 358.934 158.668 358.126 159.58C357.326 160.484 356.338 161.368 355.162 162.232H359.602V162.94H353.878V162.34ZM360.745 162.34C362.217 161.236 363.353 160.248 364.153 159.376C364.961 158.496 365.365 157.636 365.365 156.796C365.365 156.244 365.225 155.804 364.945 155.476C364.673 155.14 364.225 154.972 363.601 154.972C362.993 154.972 362.521 155.164 362.185 155.548C361.857 155.924 361.673 156.428 361.633 157.06H360.817C360.865 156.172 361.137 155.484 361.633 154.996C362.137 154.5 362.793 154.252 363.601 154.252C364.377 154.252 365.005 154.472 365.485 154.912C365.965 155.344 366.205 155.96 366.205 156.76C366.205 157.728 365.801 158.668 364.993 159.58C364.193 160.484 363.205 161.368 362.029 162.232H366.469V162.94H360.745V162.34Z" fill="black" fill-opacity="0.48"/>
<rect x="0.5" y="0.5" width="382" height="183" rx="7.5" stroke="black" stroke-opacity="0.08" shape-rendering="crispEdges"/>
</g>
<defs>
<filter id="filter0_d_20_1376" x="0" y="0" width="391" height="192" filterUnits="userSpaceOnUse" color-interpolation-filters="sRGB">
<feFlood flood-opacity="0" result="BackgroundImageFix"/>
<feColorMatrix in="SourceAlpha" type="matrix" values="0 0 0 0 0 0 0 0 0 0 0 0 0 0 0 0 0 0 127 0" result="hardAlpha"/>
<feOffset dx="4" dy="4"/>
<feGaussianBlur stdDeviation="2"/>
<feComposite in2="hardAlpha" operator="out"/>
<feColorMatrix type="matrix" values="0 0 0 0 0 0 0 0 0 0 0 0 0 0 0 0 0 0 0.05 0"/>
<feBlend mode="normal" in2="BackgroundImageFix" result="effect1_dropShadow_20_1376"/>
<feBlend mode="normal" in="SourceGraphic" in2="effect1_dropShadow_20_1376" result="shape"/>
</filter>
<linearGradient id="paint0_linear_20_1376" x1="204" y1="23.3621" x2="204" y2="192.5" gradientUnits="userSpaceOnUse">
<stop stop-color="#00DF5A" stop-opacity="0.16"/>
<stop offset="1" stop-color="#00DF5A" stop-opacity="0"/>
</linearGradient>
</defs>
</svg>
