<svg width="304" height="256" viewBox="0 0 304 256" fill="none" xmlns="http://www.w3.org/2000/svg">
<path d="M3.12074 146.36L120.353 78.1825C121.196 77.696 122.151 77.44 123.124 77.44C124.097 77.44 125.053 77.696 125.895 78.1825L301.206 178.535C302.052 179.021 302.754 179.721 303.243 180.565C303.731 181.409 303.988 182.366 303.988 183.342C303.988 184.317 303.731 185.274 303.243 186.118C302.754 186.962 302.052 187.662 301.206 188.148L189.119 252.874C186.368 254.462 183.248 255.299 180.071 255.299C176.894 255.299 173.773 254.462 171.022 252.874L3.14105 155.982C2.29205 155.499 1.58579 154.8 1.09383 153.956C0.601864 153.113 0.341673 152.154 0.339612 151.177C0.337551 150.2 0.593694 149.24 1.08209 148.394C1.57049 147.548 2.27379 146.847 3.12074 146.36Z" fill="#F0FDF4"/>
<path style="mix-blend-mode:multiply" d="M174.93 254.346L215.347 232.513L195.047 195.862L138.065 233.477C144.236 237.71 168.89 249.992 174.93 254.346Z" fill="url(#paint0_linear_203_233)"/>
<path style="mix-blend-mode:multiply" d="M130.859 229.245L193.048 194.451L93.4051 128.973L24.6997 168.883C30.8405 173.085 124.819 224.901 130.859 229.245Z" fill="url(#paint1_linear_203_233)"/>
<path style="mix-blend-mode:multiply" d="M207.501 224.84L274.806 182.9L249.614 166.863L180.908 206.773C187.049 210.975 201.472 220.455 207.501 224.84Z" fill="url(#paint2_linear_203_233)"/>
<path d="M180.908 201.678C184.115 201.066 187.121 199.672 189.658 197.618C194.337 194.004 180.908 194.522 180.908 194.522V201.678Z" fill="#F2E2D1"/>
<path d="M189.85 137.611C195.849 133.642 202.03 129.958 207.999 125.969L110.833 70.4076C108.916 69.3106 106.743 68.7394 104.535 68.7519C102.327 68.7644 100.161 69.36 98.2568 70.4786L71.3999 86.2314C66.9846 88.8298 67.6545 92.7782 67.6545 92.7782C67.6545 92.7782 66.467 129.673 67.6545 132.059C68.8421 134.444 72.5367 136.18 72.5367 136.18L180.908 201.678C189.83 194.938 182.593 142.412 189.85 137.611Z" fill="#E8BC95"/>
<path d="M194.864 146.055C194.864 146.055 104.529 94.2194 104.661 93.6713C104.793 93.1232 104.661 74.224 104.661 74.224L211.317 135.601L194.864 146.055Z" fill="#F2E2D1"/>
<path d="M77.642 108.876L104.935 93.6511L208.171 152.886L177.173 169.837C176.451 170.237 175.639 170.447 174.813 170.447C173.987 170.447 173.175 170.237 172.453 169.837L77.6319 116.641C76.9385 116.257 76.3607 115.693 75.9588 115.01C75.5569 114.327 75.3454 113.548 75.3464 112.755C75.3475 111.963 75.561 111.185 75.9647 110.502C76.3684 109.82 76.9476 109.259 77.642 108.876Z" fill="#F7ECDF"/>
<path d="M220.331 134.251L219.092 134.15C217.22 135.564 215.173 136.731 213.002 137.621C203.833 144.296 194.088 150.142 183.882 155.089V198.48C185.168 198.735 186.483 198.811 187.79 198.704L215.581 182.23C217.375 181.167 218.861 179.655 219.893 177.844C220.925 176.032 221.468 173.983 221.468 171.897V135.357C221.062 135.002 220.696 134.637 220.331 134.251Z" fill="#F2E2D1"/>
<path d="M68.5579 87.49C68.5579 87.49 65.9392 88.3629 68.5579 91.6109C71.1766 94.8589 80.7379 87.9975 80.7379 87.9975L104.631 74.2747L211.318 135.601L183.476 151.435C183.476 151.435 181.324 153.12 182.948 155.018C184.572 156.916 186.856 156.033 191.393 153.8C195.93 151.567 220.666 137.56 220.666 137.56C220.666 137.56 223.122 135.895 219.377 132.739C215.631 129.582 109.757 69.9508 109.757 69.9508C108.57 68.9169 107.104 68.258 105.543 68.0574C103.982 67.8569 102.396 68.1237 100.987 68.8242C96.1152 71.3515 68.5579 87.49 68.5579 87.49Z" fill="#F7ECDF"/>
<path d="M93.07 147.598C93.07 147.598 92.8974 152.907 91.8418 153.78C90.7862 154.653 85.7519 157.424 83.3971 157.555C81.0423 157.687 81.2351 160.134 82.646 161.615C84.0568 163.097 94.7042 162.438 95.4654 161.676C96.2267 160.915 99.16 156.124 98.7236 156.043C98.2871 155.962 98.0841 162.438 98.5003 162.661C99.0838 162.807 99.6869 162.858 100.287 162.813L101.829 145.832" fill="#334155"/>
<path d="M104.651 149.029C104.651 149.029 105.362 154.287 104.468 155.333C103.575 156.378 99.0585 159.931 96.7646 160.408C94.4707 160.885 95.0594 163.311 96.6936 164.468C98.3277 165.625 108.721 163.28 109.34 162.438C109.96 161.595 112.061 156.348 111.614 156.348C111.167 156.348 112.04 162.762 112.487 162.905C113.086 162.953 113.689 162.905 114.273 162.762L112.974 145.761" fill="#334155"/>
<path d="M112.781 80.2328C112.781 80.2328 98.9265 88.4441 83.9654 80.1313L83.2549 91.0527C83.2549 91.0527 99.6979 97.5994 111.309 94.9198" fill="#22C55E"/>
<path opacity="0.62" d="M112.781 80.2328C112.781 80.2328 98.9265 88.4441 83.9654 80.1313L83.2549 91.0527C83.2549 91.0527 99.6979 97.5994 111.309 94.9198" fill="#334155"/>
<path d="M83.8031 82.415C83.8031 82.415 82.0066 81.5827 81.8442 81.4711C81.0931 80.9737 80.3724 80.4053 79.6518 79.8775C79.0198 79.317 78.2709 78.9044 77.4594 78.6697C77.2707 78.6425 77.0783 78.6628 76.8995 78.7287C76.7206 78.7946 76.561 78.904 76.4351 79.0471C76.3091 79.1901 76.2209 79.3623 76.1782 79.5481C76.1355 79.7338 76.1398 79.9273 76.1906 80.111C76.3429 80.9433 77.7334 81.8466 78.2815 82.4455C78.2815 82.4455 78.7078 81.4305 78.7586 81.4305C78.6367 81.785 78.4768 82.1254 78.2815 82.4455C78.2653 82.5663 78.2275 82.6832 78.1699 82.7906C77.5101 84.0187 76.5865 85.1048 75.8861 86.3126C75.7983 86.5058 75.6965 86.6924 75.5816 86.8709L75.3989 87.2667C76.2454 87.4166 77.0992 87.5217 77.9567 87.5814C79.7614 87.9826 81.6112 88.1431 83.458 88.0584C83.6306 86.2314 83.661 84.3841 83.8031 82.415Z" fill="#FFE8E6"/>
<path d="M80.2101 85.8356C78.4846 85.1149 78.5556 83.3488 78.8297 81.7756C78.8804 81.4812 78.4237 81.3493 78.3729 81.6538C78.0481 83.5214 78.0989 85.46 80.0883 86.2923C80.3623 86.404 80.4943 85.9472 80.2101 85.8356Z" fill="#42210B"/>
<path d="M102.703 123.289C103.799 123.38 113.868 124.568 121.49 121.797C123.296 119.008 124.576 115.912 125.266 112.662C125.988 109.757 126.463 106.796 126.687 103.811L118.983 104.166C111.394 104.412 103.84 105.323 96.4095 106.887C92.0856 107.902 87.173 108.866 84.057 112.297C80.5146 116.204 81.5601 121.624 82.5751 126.314C84.2931 133.884 86.6356 141.298 89.5786 148.481L108.214 145.7C108.214 145.7 100.693 123.127 102.703 123.289Z" fill="#334155"/>
<path d="M110.518 126.344C117.014 126.872 128.433 129.298 131.315 121.269C131.66 120.315 132.787 106.927 131.315 106.998L126.798 107.211C119.213 107.455 111.663 108.361 104.235 109.922C99.9111 110.937 94.9985 111.901 91.8824 115.331C88.3401 119.239 89.3855 124.659 90.4005 129.349C92.1185 136.919 94.461 144.333 97.404 151.516L116.039 148.735C116.039 148.735 108.518 126.182 110.518 126.344Z" fill="#334155"/>
<path d="M77.845 98.4419L83.529 91.4079C83.6651 91.2406 83.7443 91.0344 83.7553 90.819C83.7662 90.6037 83.7083 90.3904 83.5899 90.2102L74.8 76.5382C74.7148 76.4033 74.5989 76.2904 74.4619 76.2087C74.3248 76.127 74.1705 76.0788 74.0113 76.0679C73.8521 76.057 73.6926 76.0838 73.5457 76.1461C73.3988 76.2084 73.2687 76.3045 73.1659 76.4265L66.5278 84.242C66.3811 84.4228 66.301 84.6486 66.301 84.8815C66.301 85.1143 66.3811 85.3401 66.5278 85.5209L76.3225 98.4216C76.4163 98.5308 76.5323 98.6189 76.6628 98.6799C76.7932 98.7409 76.9352 98.7735 77.0792 98.7754C77.2232 98.7773 77.366 98.7486 77.498 98.6911C77.6301 98.6335 77.7484 98.5486 77.845 98.4419Z" fill="#334155"/>
<path d="M87.6195 100.553H87.5484C87.6063 100.431 87.6393 100.299 87.6456 100.165C87.6519 100.03 87.6313 99.8953 87.585 99.7687C87.5387 99.6421 87.4676 99.526 87.3759 99.4271C87.2843 99.3283 87.1738 99.2487 87.0511 99.193C87.1071 99.0427 87.1294 98.8819 87.1165 98.722C87.1037 98.5621 87.0558 98.407 86.9765 98.2677C86.8971 98.1283 86.7881 98.008 86.6572 97.9153C86.5263 97.8227 86.3766 97.7599 86.2187 97.7314C84.9492 97.4905 83.7004 97.1512 82.4835 96.7164C81.7018 96.3904 80.9452 96.0071 80.2201 95.5694C79.4385 95.1634 78.6773 94.7371 77.9363 94.2601C76.9325 93.5865 76.0066 92.8035 75.1756 91.9256C74.7899 91.5297 74.4244 91.1136 74.0286 90.7279C73.6101 90.3826 73.2322 89.991 72.9019 89.5606C72.3335 88.6674 71.5825 88.434 71.0445 89.4388C70.5066 90.4437 71.6839 91.347 72.2828 92.3519C71.2678 92.1692 70.3441 92.0474 69.3697 91.956L69.2885 92.0169C68.3683 92.8221 68.2194 93.5259 68.8419 94.1281C68.8977 94.2261 68.9199 94.3396 68.9052 94.4513C68.8906 94.5631 68.8398 94.667 68.7608 94.7473C68.304 95.3055 67.7457 96.6758 68.8825 96.8686C69.0121 96.9065 69.1218 96.9935 69.1882 97.111C69.2545 97.2286 69.2723 97.3674 69.2378 97.4979C69.1635 98.0207 69.2264 98.5538 69.4203 99.045C69.6143 99.5361 69.9327 99.9684 70.3441 100.299C71.826 100.969 73.3891 100.858 75.1146 101.121C76.8409 101.453 78.5379 101.921 80.1896 102.522C81.9084 102.962 83.6 103.456 85.2646 104.004C85.4679 104.065 85.6842 104.068 85.8891 104.013C86.094 103.958 86.2793 103.846 86.4241 103.691C86.5688 103.535 86.6671 103.343 86.708 103.134C86.7488 102.926 86.7305 102.71 86.6552 102.512L87.0104 102.603C88.2487 102.888 88.7563 100.929 87.6195 100.553Z" fill="#FFE8E6"/>
<path d="M68.71 94.7574L68.6187 94.8894L72.1712 95.3258C72.2331 95.3339 72.2956 95.317 72.3451 95.279C72.3946 95.2409 72.427 95.1847 72.435 95.1228C72.4431 95.0609 72.4263 94.9983 72.3882 94.9488C72.3501 94.8993 72.294 94.867 72.232 94.8589L68.8623 94.4427C68.8398 94.5591 68.7873 94.6676 68.71 94.7574Z" fill="#42210B"/>
<path d="M69.2074 97.4877C70.2224 97.5892 71.3186 97.7009 72.3742 97.7821C72.6787 97.7821 72.7396 97.3355 72.4351 97.3152C71.3085 97.2238 70.1818 97.1122 69.0552 97.0005C69.1143 97.0659 69.1585 97.1433 69.1848 97.2274C69.2111 97.3115 69.2188 97.4004 69.2074 97.4877Z" fill="#42210B"/>
<path d="M69.7859 99.7614L72.7599 99.8933C73.0644 99.8933 73.1253 99.4366 72.8208 99.4264L69.5017 99.2742C69.5808 99.4452 69.676 99.6083 69.7859 99.7614Z" fill="#42210B"/>
<path d="M112.355 80.1313C108.461 84.9122 103.563 88.7774 98.0074 91.4525C92.452 94.1276 86.3758 95.547 80.2101 95.61L77.4595 104.562C77.4595 104.562 97.0287 110.916 109.838 100.238L111.99 105.689C111.99 105.689 122.911 110.916 131.468 106.877C131.468 106.877 131.163 82.953 113.989 74.9548" fill="#22C55E"/>
<path opacity="0.13" d="M112.355 80.1313C112.355 80.1313 100.226 95.61 80.2101 95.61L77.4595 104.562C77.4595 104.562 97.0287 110.916 109.838 100.238L111.99 105.689C111.99 105.689 122.911 110.916 131.468 106.877C131.468 106.877 131.163 82.953 113.989 74.9548" fill="#334155"/>
<path d="M103.311 69.3723C103.311 69.3723 102.733 80.1414 108.001 81.4406C114.02 82.9124 118.059 74.6097 115.37 69.9407C112.68 65.2717 104.722 65.7487 103.311 69.3723Z" fill="#FFE8E6"/>
<path d="M106.752 64.8048C105.694 65.133 104.717 65.6817 103.886 66.4147C103.055 67.1477 102.389 68.0485 101.931 69.0576C101.87 69.2099 101.819 69.352 101.769 69.5042C101.705 69.9342 101.685 70.3694 101.708 70.8034C101.71 71.3356 101.87 71.8552 102.166 72.2974C102.462 72.7396 102.881 73.0849 103.372 73.2902C103.296 72.3908 103.416 71.4855 103.725 70.6372C104.033 69.7889 104.522 69.0178 105.159 68.3776C105.159 68.3776 104.55 69.5651 110.335 72.1534C110.335 72.1534 114.314 77.4111 113.208 80.1313C113.309 79.8674 114.04 79.4918 114.223 79.3091C115.097 78.5778 115.89 77.7542 116.588 76.8528C121.49 70.4583 113.634 62.6225 106.752 64.8048Z" fill="#334155"/>
<path d="M105.169 68.3776C105.169 68.3776 105.341 73.3003 111.259 74.1935C114.811 74.7416 107.29 81.2985 110.812 83.3285C114.334 85.3585 120.962 80.8418 122.576 77.4618C124.19 74.0819 118.902 64.2668 110.457 63.7796C110.457 63.7796 104.367 62.6124 101.901 69.4433" fill="#334155"/>
<path d="M106.783 74.295C106.721 74.2856 106.658 74.3012 106.607 74.3383C106.557 74.3754 106.523 74.431 106.514 74.4929C106.504 74.5549 106.52 74.618 106.557 74.6684C106.594 74.7189 106.65 74.7525 106.712 74.7619C106.774 74.7713 106.837 74.7558 106.887 74.7187C106.938 74.6815 106.971 74.6259 106.981 74.564C106.99 74.5021 106.974 74.439 106.937 74.3885C106.9 74.3381 106.845 74.3044 106.783 74.295Z" fill="#42210B"/>
<path d="M104.123 73.8078H103.991C103.697 73.8992 103.88 74.3458 104.164 74.2544H104.296C104.59 74.1529 104.418 73.7063 104.123 73.8078Z" fill="#42210B"/>
<path d="M113.634 74.2037C112.619 72.468 110.325 74.3051 110.396 75.7667C110.397 75.8294 110.413 75.8909 110.441 75.9469C110.469 76.0028 110.51 76.0516 110.559 76.0896C110.609 76.1277 110.667 76.154 110.728 76.1666C110.79 76.1793 110.853 76.1779 110.914 76.1626C110.922 76.2191 110.939 76.274 110.965 76.325C110.85 76.3392 110.734 76.3392 110.619 76.325C110.021 76.2032 109.879 77.1471 110.477 77.2689C111.949 77.5328 114.629 75.9698 113.634 74.2037ZM111.604 75.0258C111.649 75.0862 111.709 75.1349 111.777 75.1679C111.85 75.2016 111.932 75.2147 112.012 75.2058C112.092 75.1968 112.169 75.1662 112.233 75.1171C112.211 75.1805 112.176 75.239 112.132 75.2897C112.045 75.3975 111.935 75.4845 111.811 75.5442C111.686 75.6039 111.549 75.6349 111.411 75.6348H111.34C111.363 75.4054 111.463 75.1906 111.624 75.0258H111.604Z" fill="#FFE8E6"/>
<path d="M105.839 77.0355C104.925 77.0355 105.423 75.9698 105.555 75.5029C105.687 75.036 105.869 74.4879 106.032 73.9702C106.133 73.6759 105.666 73.5541 105.575 73.8484C105.402 74.3559 105.24 74.8634 105.098 75.3811C104.935 75.8027 104.822 76.2422 104.763 76.6904C104.763 77.3197 105.311 77.5024 105.839 77.5227C106.143 77.5329 106.143 77.0558 105.839 77.0355Z" fill="#42210B"/>
<path d="M108.183 76.9848C108.051 77.3989 107.782 77.7564 107.422 77.9998C106.929 78.2101 106.384 78.2667 105.859 78.1622C105.565 78.1622 105.433 78.5783 105.737 78.6189C106.327 78.7342 106.937 78.6886 107.503 78.487C107.762 78.3575 107.992 78.1777 108.18 77.9581C108.369 77.7385 108.511 77.4835 108.599 77.2081C108.721 76.9442 108.295 76.7006 108.183 76.9848Z" fill="#42210B"/>
<path d="M207.501 186.848C205.095 188.878 202.02 193.75 200.193 196.166C199.797 196.694 199.361 197.242 198.945 197.831L194.245 192.664L201.35 181.499L207.501 186.848Z" fill="#22C55E"/>
<path d="M196.732 188.411C197.23 189.577 198.049 190.577 199.093 191.295C200.137 192.014 201.363 192.422 202.629 192.471C202.122 194.258 200.833 197.607 201.462 198.957C202.386 200.987 209.897 209.767 205.085 210.934C201.513 211.807 191.119 199.495 191.616 197.384C191.961 195.943 195.331 190.634 196.732 188.411Z" fill="#22C55E"/>
<path d="M209.44 210.579C209.79 213.207 210.371 215.798 211.176 218.323C212.83 222.444 220.392 231.752 213.388 234.005C205.958 236.401 201.34 223.033 200.883 220.638C200.403 217.236 200.365 213.787 200.772 210.376C203.319 211.939 206.618 211.655 209.44 210.579Z" fill="#22C55E"/>
<g opacity="0.9">
<path d="M207.501 186.848C205.095 188.878 202.02 193.75 200.193 196.166C199.797 196.694 199.361 197.242 198.945 197.831L194.245 192.664L201.35 181.499L207.501 186.848Z" fill="#334155"/>
<path d="M196.732 188.411C197.23 189.577 198.049 190.577 199.093 191.295C200.137 192.014 201.363 192.422 202.629 192.471C202.122 194.258 200.833 197.607 201.462 198.957C202.386 200.987 209.897 209.767 205.085 210.934C201.513 211.807 191.119 199.495 191.616 197.384C191.961 195.943 195.331 190.634 196.732 188.411Z" fill="#334155"/>
</g>
<path d="M211.703 122.122C211.703 122.122 232.369 150.278 230.227 159.809C228.085 169.34 210.556 187.518 210.556 187.518L208.78 168.883C208.78 168.883 213.804 160.134 213.368 158.834C212.931 157.535 207.968 152.937 207.968 152.937L200.863 125.39" fill="#22C55E"/>
<path d="M198.63 205.423C195.9 193.03 194.255 178.018 194.052 177.115C193.768 175.917 186.836 136.799 186.836 136.799C188.145 130.709 185.262 132.272 186.054 126.131C187.475 126.009 193.098 123.797 194.479 123.512C197.361 122.914 200.01 118.935 202.69 117.676C205.43 133.165 209.795 178.637 211.825 202.936C209.856 207.26 205.095 208.021 198.63 205.423Z" fill="#22C55E"/>
<path opacity="0.62" d="M211.703 122.122C211.703 122.122 232.369 150.278 230.227 159.809C228.085 169.34 210.556 187.518 210.556 187.518L208.78 168.883C208.78 168.883 213.804 160.134 213.368 158.834C212.931 157.535 207.014 151.729 207.014 151.729L203.583 123.817" fill="#334155"/>
<path d="M223.883 107.059C225.913 105.983 226.928 103.913 228.806 102.644L228.918 102.553L229.07 102.502C229.306 102.444 229.553 102.456 229.782 102.536C230.011 102.617 230.212 102.763 230.36 102.955C230.507 103.148 230.595 103.38 230.613 103.622C230.631 103.864 230.578 104.106 230.46 104.319C229.956 105.249 229.176 106 228.227 106.47C228.151 106.609 228.047 106.731 227.921 106.827C227.795 106.923 227.651 106.992 227.497 107.029C226.368 107.329 225.262 107.709 224.188 108.166C223.902 108.318 223.57 108.357 223.257 108.274C222.945 108.191 222.675 107.993 222.503 107.719C222.348 107.43 222.305 107.094 222.381 106.775C222.555 106.995 222.803 107.145 223.079 107.197C223.355 107.249 223.641 107.2 223.883 107.059Z" fill="#FFC4B0"/>
<path d="M223.792 110.693C224.513 109.008 225.132 107.293 225.822 105.618C226.248 105.181 226.654 104.725 227.081 104.278C227.175 104.267 227.27 104.267 227.365 104.278C227.545 104.28 227.721 104.325 227.881 104.408C228.04 104.491 228.178 104.611 228.283 104.757C228.387 104.903 228.456 105.072 228.484 105.25C228.511 105.428 228.496 105.609 228.441 105.78L228.288 106.176C228.358 106.336 228.393 106.509 228.393 106.684C228.393 106.858 228.358 107.031 228.288 107.191C227.774 108.287 227.257 109.384 226.735 110.48C226.56 111.022 226.311 111.538 225.995 112.012L225.68 112.672C224.99 114.103 222.858 112.855 223.548 111.424L223.792 110.693Z" fill="#FFC4B0"/>
<path d="M209.734 95.0213C210.445 100.685 209.734 106.704 212.089 112.053C212.864 113.759 213.891 115.34 215.134 116.742L215.347 116.976C210.272 116.864 208.374 116.123 208.374 116.123L209.176 91.1846C209.328 91.6312 209.653 92.6868 210.069 94.118C209.938 94.2253 209.838 94.3655 209.779 94.5242C209.72 94.683 209.705 94.8545 209.734 95.0213Z" fill="#42210B"/>
<path d="M209.49 205.007C208.968 208.245 208.873 211.538 209.206 214.801C209.308 215.502 209.399 216.273 209.551 217.034L201.259 215.634V205.007H209.49Z" fill="#FFC4B0"/>
<path opacity="0.9" d="M209.44 210.579C209.79 213.207 210.371 215.798 211.176 218.323C212.83 222.444 220.392 231.752 213.388 234.005C205.958 236.401 201.34 223.033 200.883 220.638C200.403 217.236 200.365 213.787 200.772 210.376C203.319 211.939 206.618 211.655 209.44 210.579Z" fill="#334155"/>
<path opacity="0.62" d="M198.63 205.423C195.9 193.03 194.255 178.018 194.052 177.115C193.768 175.917 186.836 136.799 186.836 136.799C188.145 130.709 185.262 132.272 186.054 126.131C187.475 126.009 193.098 123.797 194.479 123.512C197.361 122.914 200.01 118.935 202.69 117.676C205.43 133.165 209.795 178.637 211.825 202.936C209.856 207.26 205.095 208.021 198.63 205.423Z" fill="#334155"/>
<path d="M186.988 149.293C187.116 147.393 187.373 145.505 187.759 143.64C187.758 141.465 187.924 139.293 188.257 137.144C190.602 137.05 192.95 137.087 195.291 137.255C195.291 138.423 195.291 139.59 195.362 140.757C195.632 141.61 195.873 142.473 196.082 143.345C196.229 143.464 196.344 143.618 196.417 143.792C197.489 145.986 198.176 148.348 198.447 150.775C198.437 151.044 198.341 151.302 198.172 151.513C198.004 151.723 197.774 151.873 197.514 151.943C197.254 152.012 196.978 151.996 196.728 151.897C196.478 151.799 196.266 151.622 196.123 151.394C195.764 150.609 195.426 149.814 195.108 149.009C195.108 150.099 195.108 151.188 195.108 152.277C195.098 152.606 194.961 152.918 194.727 153.149C194.492 153.379 194.178 153.511 193.849 153.516C193.542 153.541 193.235 153.472 192.968 153.318C192.702 153.164 192.489 152.932 192.357 152.653C192.167 152.914 191.896 153.106 191.586 153.197C191.276 153.289 190.944 153.276 190.642 153.161C190.392 153.036 190.169 152.864 189.986 152.653C189.803 152.442 189.664 152.197 189.576 151.932C189.348 152.049 189.096 152.11 188.84 152.11C188.584 152.11 188.332 152.049 188.104 151.932C187.029 151.435 186.927 150.319 186.988 149.293Z" fill="#FFC4B0"/>
<path d="M225.538 102.715C224.736 103.101 223.954 103.486 223.193 103.791C220.25 104.948 216.088 105.466 214.109 102.37C212.597 99.9441 212.079 97.0006 211.653 94.2499C211.247 91.7835 211.216 88.6775 209.247 86.8607C208.151 85.9382 206.831 85.3219 205.42 85.0743C201.939 84.3029 200.122 85.0743 196.966 86.5866C192.906 88.5151 187.922 90.9004 185.943 95.1837C183.446 100.594 182.776 120.274 185.77 139.082C189.586 139.245 193.322 139.154 196.844 137.672C196.377 133.388 195.768 128.902 195.768 128.902C196.225 128.384 205.766 129.623 211.703 122.132L211.328 116.468C212.718 116.773 212.17 116.915 213.439 116.966C217.122 117.084 220.796 116.512 224.269 115.281C225.913 111.393 225.842 106.958 225.538 102.715Z" fill="#22C55E"/>
<path opacity="0.13" d="M225.538 102.715C224.736 103.101 223.954 103.486 223.193 103.791C220.25 104.948 216.088 105.466 214.109 102.37C212.597 99.9441 212.079 97.0006 211.653 94.2499C211.247 91.7835 211.216 88.6775 209.247 86.8607C208.151 85.9382 206.831 85.3219 205.42 85.0743C201.939 84.3029 200.122 85.0743 196.966 86.5866C192.906 88.5151 187.922 90.9004 185.943 95.1837C183.446 100.594 182.776 120.274 185.77 139.082C189.586 139.245 193.322 139.154 196.844 137.672C196.377 133.388 195.768 128.902 195.768 128.902C196.225 128.384 205.766 129.623 211.703 122.132L211.328 116.468C212.718 116.773 212.17 116.915 213.439 116.966C217.122 117.084 220.796 116.512 224.269 115.281C225.913 111.393 225.842 106.958 225.538 102.715Z" fill="#334155"/>
<path d="M201.218 90.535C200.432 90.9973 199.542 91.2555 198.63 91.2861C195.717 91.4384 193.992 88.3629 192.875 86.1401C191.454 83.5436 190.636 80.661 190.48 77.7054C190.461 77.2256 190.519 76.7458 190.652 76.2844C191.759 72.9552 203.705 70.4685 204.385 77.0457C204.801 80.923 205.116 88.1599 201.218 90.535Z" fill="#FFC4B0"/>
<path d="M191.901 81.2681C192.312 81.2442 192.724 81.3078 193.109 81.4548C193.493 81.6017 193.843 81.8287 194.134 82.1206C194.769 82.7078 195.181 83.4969 195.301 84.3537C195.338 84.5247 195.317 84.7031 195.241 84.861C195.166 85.0189 195.041 85.1475 194.885 85.2265C194.813 85.3478 194.718 85.4529 194.604 85.5352C194.49 85.6176 194.36 85.6754 194.223 85.7049C194.086 85.7345 193.944 85.7352 193.806 85.707C193.668 85.6789 193.538 85.6224 193.423 85.5412C192.623 85.0198 191.919 84.3639 191.342 83.6025C190.815 82.8413 190.733 81.4914 191.901 81.2681Z" fill="#FFC4B0"/>
<path d="M187.465 73.1988C187.57 72.4872 187.826 71.806 188.214 71.2006C188.603 70.5951 189.115 70.0791 189.718 69.6869C190.388 69.2482 191.145 68.9603 191.938 68.8429C192.73 68.7254 193.538 68.7814 194.306 69.0069C194.89 68.0247 195.793 67.2723 196.864 66.8754C197.843 66.5619 198.894 66.5532 199.879 66.8505C200.863 67.1477 201.733 67.7369 202.375 68.54C204.074 68.356 205.784 68.7532 207.227 69.6666C207.984 70.1869 208.61 70.8757 209.055 71.6788C209.501 72.4819 209.754 73.3775 209.795 74.295C209.825 74.5615 209.825 74.8304 209.795 75.0969C209.854 75.5702 209.837 76.0499 209.744 76.5179C209.125 79.776 206.293 80.5779 204.578 80.7403C204.852 78.9843 204.578 75.5739 202.548 76.4671C202.432 76.4692 202.317 76.497 202.213 76.5483C200.934 77.1573 202 78.9336 200.183 79.167C198.366 79.4005 197.27 77.9998 195.575 79.6644C193.88 81.329 197.605 83.1864 193.657 86.2416C193.641 86.4627 193.614 86.6829 193.575 86.9013C193.575 86.6374 192.012 85.2063 191.779 84.9322C191.139 84.1913 190.53 83.4199 189.952 82.6282C188.896 81.3332 188.063 79.872 187.485 78.3043C187.071 76.6284 187.064 74.8779 187.465 73.1988Z" fill="#334155"/>
<path d="M192.276 83.5924C192.104 82.4353 192.997 81.7756 193.92 82.2628C194.599 82.6694 195.164 83.2388 195.567 83.9194C195.969 84.6 196.195 85.3703 196.225 86.1604C196.235 86.3175 196.211 86.4749 196.155 86.6221C196.099 86.7692 196.012 86.9025 195.9 87.013C195.858 87.1016 195.803 87.1836 195.737 87.2566C195.631 87.3628 195.503 87.4455 195.363 87.4994C195.223 87.5533 195.073 87.5772 194.923 87.5696C194.772 87.5619 194.626 87.5229 194.491 87.455C194.357 87.3871 194.239 87.2918 194.144 87.1754C193.139 86.223 192.481 84.9617 192.276 83.5924Z" fill="#FFC4B0"/>
<path d="M202.487 81.9989C202.863 81.9278 206.405 80.6388 206.405 80.6388C206.405 80.6388 206.537 84.1608 204.659 84.9627C202.781 85.7645 202.487 81.9989 202.487 81.9989Z" stroke="#334155" stroke-width="0.76125" stroke-miterlimit="10"/>
<path d="M200.66 82.5876L196.519 83.9984C196.519 83.9984 196.519 87.5002 199.229 86.9115C201.939 86.3228 200.66 82.5876 200.66 82.5876Z" stroke="#334155" stroke-width="0.76125" stroke-miterlimit="10"/>
<path d="M194.57 82.1105L196.529 83.836C196.773 84.0492 196.407 84.4044 196.164 84.1913L194.205 82.4658C193.971 82.2425 194.337 81.8974 194.57 82.1105Z" fill="#334155"/>
<path d="M202.111 86.9115C202.436 86.9115 202.903 86.7795 202.893 86.3938C202.834 86.1505 202.739 85.9176 202.609 85.7036C202.416 85.2672 202.203 84.8409 201.98 84.4247C201.947 84.3655 201.94 84.2959 201.959 84.2311C201.978 84.1664 202.022 84.1119 202.081 84.0796C202.14 84.0473 202.21 84.0399 202.275 84.0589C202.339 84.0779 202.394 84.1219 202.426 84.1811C202.649 84.5973 202.873 85.0236 203.055 85.46C203.253 85.79 203.384 86.1555 203.441 86.5359C203.441 87.1449 202.578 87.3784 202.101 87.419C201.766 87.49 201.787 86.9318 202.111 86.9115Z" fill="#334155"/>
<path d="M200.467 82.415C201.206 82.2607 201.935 82.0607 202.649 81.8162C202.964 81.7147 203.076 82.2019 202.771 82.3135C202.057 82.558 201.328 82.758 200.589 82.9124C200.274 82.9327 200.153 82.415 200.467 82.415Z" fill="#334155"/>
<path d="M238.591 103.375L230.501 114.814L224.563 115.25L232.622 103.101L238.591 103.375Z" fill="#2D2D2D"/>
<path d="M236.287 101.284L230.684 101.873L221.874 114.174L224.563 115.25L231.739 105.303L238.591 103.375L236.287 101.284Z" fill="#606060"/>
<path d="M230.197 111.789H230.613C230.466 111.607 230.374 111.387 230.347 111.155C230.319 110.923 230.357 110.688 230.456 110.476C230.556 110.265 230.713 110.085 230.909 109.959C231.105 109.832 231.333 109.763 231.567 109.759H232.582C232.389 109.563 232.264 109.31 232.228 109.037C232.191 108.764 232.244 108.487 232.379 108.247C232.907 107.425 235.058 107.364 235.525 108.247C235.685 108.53 235.728 108.865 235.645 109.18C235.561 109.495 235.358 109.765 235.079 109.932L234.784 110.053C234.961 110.225 235.084 110.444 235.138 110.684C235.191 110.924 235.173 111.175 235.086 111.405C234.998 111.635 234.845 111.835 234.645 111.979C234.446 112.123 234.208 112.205 233.962 112.215H233.79C233.922 112.399 234 112.616 234.016 112.842C234.031 113.068 233.984 113.293 233.878 113.493C233.773 113.694 233.614 113.861 233.419 113.976C233.224 114.09 233.001 114.149 232.775 114.144C231.928 114.23 231.077 114.254 230.227 114.215C229.9 114.21 229.588 114.078 229.357 113.846C229.126 113.615 228.994 113.303 228.989 112.977C229.004 112.663 229.137 112.367 229.36 112.147C229.584 111.927 229.883 111.799 230.197 111.789Z" fill="#FFC4B0"/>
<path d="M206.567 140.108C206.507 139.58 205.674 139.57 205.735 140.108C208.002 160.624 209.792 181.188 211.104 201.799C211.104 202.337 211.977 202.337 211.937 201.799C210.631 181.202 208.841 160.638 206.567 140.108Z" fill="#334155"/>
<path d="M195.768 128.892C195.352 127.603 193.129 105.862 193.129 105.862L197.859 128.658L195.768 128.892Z" fill="#334155"/>
<path d="M215.144 116.925C214.2 115.504 209.876 108.896 208.689 104.481L211.378 116.59C212.611 116.881 213.879 116.994 215.144 116.925Z" fill="#334155"/>
<path d="M230.623 74.224L238.418 91.1744V76.6092" fill="#22C55E"/>
<path d="M230.004 48.4531L260.799 66.2359C261.042 66.3752 261.244 66.5761 261.385 66.8185C261.526 67.0608 261.6 67.336 261.601 67.6163V92.7376C261.599 93.0172 261.525 93.2916 261.384 93.5332C261.243 93.7748 261.041 93.9751 260.798 94.1139C260.556 94.2528 260.281 94.3253 260.001 94.3242C259.721 94.3232 259.447 94.2485 259.205 94.1078L228.41 76.051C228.17 75.9113 227.971 75.7114 227.832 75.4711C227.693 75.2307 227.62 74.9583 227.618 74.6807V49.8335C227.619 49.5545 227.693 49.2805 227.832 49.0389C227.972 48.7973 228.172 48.5966 228.414 48.4568C228.655 48.3171 228.929 48.2432 229.208 48.2425C229.487 48.2419 229.762 48.3145 230.004 48.4531Z" fill="#22C55E"/>
<path d="M90.2484 47.8746L82.4634 64.8251V50.2598" fill="#4ADE80"/>
<path d="M90.8777 22.1037L60.0826 39.8764C59.8394 40.0156 59.6371 40.2165 59.4964 40.4589C59.3556 40.7013 59.2812 40.9765 59.2808 41.2568V66.3882C59.282 66.6678 59.3567 66.9422 59.4976 67.1838C59.6384 67.4254 59.8403 67.6257 60.083 67.7645C60.3258 67.9034 60.6008 67.9759 60.8804 67.9748C61.1601 67.9738 61.4345 67.8991 61.6762 67.7584L92.4713 49.7016C92.7111 49.5619 92.9104 49.362 93.0492 49.1217C93.1881 48.8813 93.2618 48.6089 93.263 48.3313V23.4841C93.2625 23.2051 93.1888 22.9311 93.0492 22.6895C92.9097 22.4479 92.7091 22.2472 92.4676 22.1074C92.2261 21.9677 91.9522 21.8938 91.6732 21.8931C91.3941 21.8925 91.1199 21.9651 90.8777 22.1037Z" fill="#4ADE80"/>
<path d="M259.357 188.493C270.765 188.493 280.013 181.981 280.013 173.948C280.013 165.915 270.765 159.403 259.357 159.403C247.95 159.403 238.702 165.915 238.702 173.948C238.702 181.981 247.95 188.493 259.357 188.493Z" fill="#22C55E"/>
<path opacity="0.62" d="M259.357 188.493C270.765 188.493 280.013 181.981 280.013 173.948C280.013 165.915 270.765 159.403 259.357 159.403C247.95 159.403 238.702 165.915 238.702 173.948C238.702 181.981 247.95 188.493 259.357 188.493Z" fill="#334155"/>
<path d="M259.347 171.694C267.89 171.694 274.816 168.859 274.816 165.361C274.816 161.863 267.89 159.027 259.347 159.027C250.804 159.027 243.879 161.863 243.879 165.361C243.879 168.859 250.804 171.694 259.347 171.694Z" fill="#334155"/>
<path d="M258.769 154.795C258.769 151.932 258.667 149.08 258.444 146.228C258.383 145.49 258.315 144.753 258.241 144.015C258.241 143.894 258.119 143 258.079 142.554C258.038 142.107 257.845 141.031 257.855 141.072C257.76 140.49 257.659 139.911 257.551 139.336C255.86 129.645 252.093 120.435 246.508 112.337C244.417 117.343 243.38 122.726 243.463 128.151C243.463 129.724 243.584 131.277 243.716 132.84C243.716 133.256 243.716 133.439 243.767 133.5C243.818 133.561 243.767 133.409 243.838 133.764C243.97 134.535 244.102 135.296 244.264 136.068C244.875 138.978 245.692 141.841 246.711 144.634C247.626 147.208 248.743 149.706 250.05 152.105C251.451 154.805 252.983 157.434 254.617 159.991C255.896 162.021 257.114 163.798 258.332 165.493C258.596 161.95 258.769 158.378 258.769 154.795ZM250.649 122.69C250.706 122.321 250.682 121.943 250.578 121.584C250.977 121.99 251.363 122.403 251.735 122.822C251.382 122.722 251.015 122.678 250.649 122.69Z" fill="#4ADE80"/>
<path d="M264.098 157.007C265.64 154.602 267.143 152.146 268.452 149.628C268.804 148.952 269.142 148.295 269.467 147.659L270.117 146.34L270.736 144.969C270.966 144.428 271.192 143.887 271.416 143.345C275.256 134.281 277.088 124.492 276.785 114.651C272.302 117.722 268.501 121.686 265.62 126.293C264.778 127.623 264.027 128.993 263.296 130.353L262.981 130.942C262.981 130.942 263.042 130.871 262.9 131.206C262.595 131.927 262.291 132.647 262.017 133.368C260.955 136.148 260.093 139.001 259.439 141.904C258.816 144.574 258.406 147.289 258.211 150.024C257.926 153.069 257.805 156.114 257.794 159.159C257.794 161.534 257.794 163.706 257.947 165.797C260.088 162.925 262.159 160.012 264.098 157.007ZM274.623 125.603C274.877 125.31 275.061 124.963 275.161 124.588C275.276 125.143 275.378 125.701 275.466 126.263C275.22 126.002 274.936 125.779 274.623 125.603Z" fill="#4ADE80"/>
<path d="M263.986 164.123C265.596 163.324 267.173 162.465 268.716 161.544L269.903 160.814L270.675 160.316L271.446 159.778L272.339 159.119C277.333 155.458 281.474 150.759 284.479 145.345C281.074 145.561 277.75 146.477 274.714 148.035C273.831 148.481 272.989 148.979 272.146 149.496L271.791 149.71C271.791 149.71 271.842 149.71 271.659 149.821C271.263 150.105 270.868 150.4 270.482 150.704C269.01 151.862 267.622 153.124 266.33 154.48C265.135 155.715 264.039 157.042 263.052 158.449C261.925 159.991 260.87 161.595 259.885 163.229C259.114 164.508 258.444 165.696 257.855 166.863C259.906 166.021 261.966 165.127 263.986 164.123ZM279.83 150.572C280.057 150.5 280.265 150.379 280.439 150.217C280.324 150.555 280.199 150.894 280.063 151.232C280.021 151.001 279.942 150.778 279.83 150.572Z" fill="#4ADE80"/>
<path d="M258.769 154.795C258.769 151.932 258.667 149.08 258.444 146.228C258.383 145.49 258.315 144.753 258.241 144.015C258.241 143.894 258.119 143 258.079 142.554C258.038 142.107 257.845 141.031 257.855 141.072C257.76 140.49 257.659 139.911 257.551 139.336C255.86 129.645 252.093 120.435 246.508 112.337C244.417 117.343 243.38 122.726 243.463 128.151C243.463 129.724 243.584 131.277 243.716 132.84C243.716 133.256 243.716 133.439 243.767 133.5C243.818 133.561 243.767 133.409 243.838 133.764C243.97 134.535 244.102 135.296 244.264 136.068C244.875 138.978 245.692 141.841 246.711 144.634C247.626 147.208 248.743 149.706 250.05 152.105C251.451 154.805 252.983 157.434 254.617 159.991C255.896 162.021 257.114 163.798 258.332 165.493C258.596 161.95 258.769 158.378 258.769 154.795ZM250.649 122.69C250.706 122.321 250.682 121.943 250.578 121.584C250.977 121.99 251.363 122.403 251.735 122.822C251.382 122.722 251.015 122.678 250.649 122.69Z" fill="#4ADE80"/>
<path d="M264.098 157.007C265.64 154.602 267.143 152.146 268.452 149.628C268.804 148.952 269.142 148.295 269.467 147.659L270.117 146.34L270.736 144.969C270.966 144.428 271.192 143.887 271.416 143.345C275.256 134.281 277.088 124.492 276.785 114.651C272.302 117.722 268.501 121.686 265.62 126.293C264.778 127.623 264.027 128.993 263.296 130.353L262.981 130.942C262.981 130.942 263.042 130.871 262.9 131.206C262.595 131.927 262.291 132.647 262.017 133.368C260.955 136.148 260.093 139.001 259.439 141.904C258.816 144.574 258.406 147.289 258.211 150.024C257.926 153.069 257.805 156.114 257.794 159.159C257.794 161.534 257.794 163.706 257.947 165.797C260.088 162.925 262.159 160.012 264.098 157.007ZM274.623 125.603C274.877 125.31 275.061 124.963 275.161 124.588C275.276 125.143 275.378 125.701 275.466 126.263C275.22 126.002 274.936 125.779 274.623 125.603Z" fill="#4ADE80"/>
<path d="M263.986 164.123C265.596 163.324 267.173 162.465 268.716 161.544L269.903 160.814L270.675 160.316L271.446 159.778L272.339 159.119C277.333 155.458 281.474 150.759 284.479 145.345C281.074 145.561 277.75 146.477 274.714 148.035C273.831 148.481 272.989 148.979 272.146 149.496L271.791 149.71C271.791 149.71 271.842 149.71 271.659 149.821C271.263 150.105 270.868 150.4 270.482 150.704C269.01 151.862 267.622 153.124 266.33 154.48C265.135 155.715 264.039 157.042 263.052 158.449C261.925 159.991 260.87 161.595 259.885 163.229C259.114 164.508 258.444 165.696 257.855 166.863C259.906 166.021 261.966 165.127 263.986 164.123ZM279.83 150.572C280.057 150.5 280.265 150.379 280.439 150.217C280.324 150.555 280.199 150.894 280.063 151.232C280.021 151.001 279.942 150.778 279.83 150.572Z" fill="#4ADE80"/>
<path d="M173.61 22.459L172.839 64.9976C172.829 65.4485 172.706 65.8896 172.481 66.2801C172.255 66.6707 171.935 66.998 171.549 67.2318C171.164 67.4656 170.725 67.5983 170.275 67.6176C169.824 67.6369 169.376 67.5422 168.972 67.3423L132.818 49.3362C132.218 49.0369 131.716 48.5738 131.369 48.0007C131.023 47.4277 130.846 46.768 130.859 46.0983L131.64 3.53936C131.648 3.04781 131.781 2.56639 132.027 2.14055C132.272 1.71472 132.623 1.35852 133.044 1.10558C133.466 0.852646 133.945 0.711322 134.436 0.694949C134.928 0.678576 135.415 0.787696 135.852 1.01201L171.692 19.282C172.274 19.5824 172.762 20.0383 173.101 20.5992C173.439 21.16 173.616 21.8038 173.61 22.459Z" fill="#4ADE80"/>
<path d="M137.131 28.9042C144.013 30.8428 141.638 38.4858 146.581 42.5458C152.6 47.4888 154.873 33.4108 162.263 34.3446C171.124 35.3596 172.839 64.9976 172.839 64.9976C171.438 68.3572 168.972 67.3422 168.972 67.3422L130.818 48.3414L131.112 31.9695C132.716 30.1019 134.685 28.62 137.131 28.9042Z" fill="#15803D"/>
<path d="M114.933 107.404C106.499 107.841 93.1005 107.831 89.3552 117.331C87.4673 122.101 88.8883 128.141 89.954 132.962C91.4113 138.989 93.228 144.924 95.3944 150.735C95.6076 151.344 96.5921 151.08 96.4094 150.461C94.7245 145.66 93.0396 140.849 91.7506 135.926C90.4615 131.003 89.1014 125.553 89.7206 120.467C91.0604 108.998 106.306 108.876 114.994 108.419C115.583 108.389 115.583 107.374 114.933 107.404Z" fill="#334155"/>
<path d="M64.5081 49.4783L87.8531 36.2224C88.0848 36.0553 88.2458 35.8078 88.3047 35.5282C88.3635 35.2487 88.3159 34.9572 88.1712 34.7109C88.0264 34.4646 87.795 34.2812 87.5222 34.1965C87.2493 34.1119 86.9547 34.1321 86.696 34.2533L63.351 47.5092C63.1192 47.6762 62.9582 47.9238 62.8993 48.2033C62.8405 48.4829 62.8881 48.7743 63.0329 49.0206C63.1776 49.2669 63.409 49.4503 63.6819 49.535C63.9547 49.6196 64.2493 49.5994 64.5081 49.4783Z" fill="#F1F5F9"/>
<path d="M65.4214 56.8675L88.2792 43.845C88.5109 43.6779 88.672 43.4304 88.7308 43.1509C88.7897 42.8713 88.742 42.5799 88.5973 42.3336C88.4526 42.0873 88.2211 41.9038 87.9483 41.8192C87.6754 41.7345 87.3808 41.7548 87.1221 41.8759L64.2643 54.8679C64.0326 55.035 63.8715 55.2825 63.8127 55.5621C63.7538 55.8416 63.8014 56.1331 63.9462 56.3794C64.0909 56.6257 64.3224 56.8091 64.5952 56.8937C64.8681 56.9784 65.1627 56.9581 65.4214 56.837V56.8675Z" fill="#F1F5F9"/>
<path d="M256.485 74.224L233.14 60.9782C232.881 60.8571 232.587 60.8368 232.314 60.9215C232.041 61.0061 231.81 61.1896 231.665 61.4359C231.52 61.6822 231.473 61.9736 231.531 62.2532C231.59 62.5327 231.751 62.7802 231.983 62.9473L255.328 76.2032C255.587 76.3243 255.881 76.3446 256.154 76.2599C256.427 76.1753 256.659 75.9919 256.803 75.7456C256.948 75.4993 256.996 75.2078 256.937 74.9283C256.878 74.6487 256.717 74.4012 256.485 74.2341V74.224Z" fill="#F1F5F9"/>
<path d="M255.571 80.72L232.714 67.728C232.455 67.6068 232.16 67.5866 231.887 67.6712C231.615 67.7559 231.383 67.9393 231.238 68.1856C231.094 68.4319 231.046 68.7233 231.105 69.0029C231.164 69.2825 231.325 69.53 231.557 69.6971L254.455 82.6992C254.714 82.8203 255.008 82.8406 255.281 82.7559C255.554 82.6713 255.785 82.4879 255.93 82.2416C256.075 81.9953 256.122 81.7038 256.064 81.4243C256.005 81.1447 255.844 80.8972 255.612 80.7301L255.571 80.72Z" fill="#F1F5F9"/>
<defs>
<linearGradient id="paint0_linear_203_233" x1="208.374" y1="202.896" x2="175.265" y2="234.381" gradientUnits="userSpaceOnUse">
<stop stop-color="#CBD5E1"/>
<stop offset="1" stop-color="white"/>
</linearGradient>
<linearGradient id="paint1_linear_203_233" x1="128.453" y1="152.775" x2="102.875" y2="190.512" gradientUnits="userSpaceOnUse">
<stop stop-color="#CBD5E1"/>
<stop offset="1" stop-color="white"/>
</linearGradient>
<linearGradient id="paint2_linear_203_233" x1="257.48" y1="169.817" x2="232.663" y2="190.776" gradientUnits="userSpaceOnUse">
<stop stop-color="#CBD5E1"/>
<stop offset="1" stop-color="white"/>
</linearGradient>
</defs>
</svg>
