<svg width="120" height="48" viewBox="0 0 120 48" fill="none" xmlns="http://www.w3.org/2000/svg">
<path d="M51.4329 32C51.4329 33.4145 50.8322 34.771 49.7631 35.7712C48.6939 36.7714 47.2438 37.3333 45.7317 37.3333H11.5248L0.122536 48V5.33333C0.122536 3.91884 0.723196 2.56229 1.79237 1.5621C2.86154 0.561904 4.31164 0 5.82368 0H45.7317C47.2438 0 48.6939 0.561904 49.7631 1.5621C50.8322 2.56229 51.4329 3.91884 51.4329 5.33333V32Z" fill="#12D790"/>
<path d="M9.64767 16.7801C9.70615 16.1402 10.2757 15.6215 10.9197 15.6215H17.9169C18.5609 15.6215 19.0356 16.1402 18.9771 16.7801L18.077 26.6284C18.0185 27.2683 17.449 27.787 16.8049 27.787H9.80783C9.16376 27.787 8.68906 27.2683 8.74755 26.6284L9.64767 16.7801Z" fill="white"/>
<path d="M21.7318 11.5663C21.7903 10.9265 22.3598 10.4077 23.0039 10.4077H30.001C30.645 10.4077 31.1197 10.9265 31.0613 11.5663L29.6846 26.6284C29.6261 27.2683 29.0566 27.787 28.4125 27.787H21.4154C20.7714 27.787 20.2966 27.2683 20.3551 26.6284L21.7318 11.5663Z" fill="white"/>
<path d="M33.3394 16.7801C33.3978 16.1402 33.9674 15.6215 34.6115 15.6215H41.6086C42.2526 15.6215 42.7273 16.1402 42.6688 16.7801L41.7687 26.6284C41.7102 27.2683 41.1407 27.787 40.4966 27.787H33.4995C32.8555 27.787 32.3808 27.2683 32.4392 26.6284L33.3394 16.7801Z" fill="white"/>
<path d="M70.6403 19.8438C70.5607 19.0994 70.2255 18.5199 69.6346 18.1051C69.0494 17.6903 68.288 17.483 67.3505 17.483C66.6914 17.483 66.1261 17.5824 65.6545 17.7812C65.1829 17.9801 64.8221 18.25 64.5721 18.5909C64.3221 18.9318 64.1943 19.321 64.1886 19.7585C64.1886 20.1222 64.271 20.4375 64.4357 20.7045C64.6062 20.9716 64.8363 21.1989 65.1261 21.3864C65.4158 21.5682 65.7369 21.7216 66.0891 21.8466C66.4414 21.9716 66.7965 22.0767 67.1545 22.1619L68.7908 22.571C69.4499 22.7244 70.0835 22.9318 70.6914 23.1932C71.3051 23.4545 71.8533 23.7841 72.3363 24.1818C72.8249 24.5795 73.2113 25.0597 73.4954 25.6222C73.7795 26.1847 73.9215 26.8437 73.9215 27.5994C73.9215 28.6222 73.6602 29.5227 73.1374 30.3011C72.6147 31.0739 71.859 31.679 70.8704 32.1165C69.8874 32.5483 68.6971 32.7642 67.2994 32.7642C65.9414 32.7642 64.7624 32.554 63.7624 32.1335C62.7681 31.7131 61.9897 31.0994 61.4272 30.2926C60.8704 29.4858 60.5693 28.5028 60.5238 27.3438H63.6346C63.6801 27.9517 63.8676 28.4574 64.1971 28.8608C64.5266 29.2642 64.9556 29.5653 65.484 29.7642C66.0181 29.9631 66.6147 30.0625 67.2738 30.0625C67.9613 30.0625 68.5636 29.9602 69.0806 29.7557C69.6033 29.5455 70.0124 29.2557 70.3079 28.8864C70.6033 28.5114 70.7539 28.0739 70.7596 27.5739C70.7539 27.1193 70.6204 26.7443 70.359 26.4489C70.0977 26.1477 69.7312 25.8977 69.2596 25.6989C68.7937 25.4943 68.2482 25.3125 67.6232 25.1534L65.6374 24.642C64.1999 24.2727 63.0636 23.7131 62.2283 22.9631C61.3988 22.2074 60.984 21.2045 60.984 19.9545C60.984 18.9261 61.2624 18.0256 61.8193 17.2528C62.3818 16.4801 63.146 15.8807 64.1119 15.4545C65.0778 15.0227 66.1715 14.8068 67.3931 14.8068C68.6318 14.8068 69.717 15.0227 70.6488 15.4545C71.5863 15.8807 72.3221 16.4744 72.8562 17.2358C73.3903 17.9915 73.6658 18.8608 73.6829 19.8438H70.6403ZM83.141 19.4091V21.7955H75.6154V19.4091H83.141ZM77.4734 16.2727H80.5586V28.5625C80.5586 28.9773 80.6211 29.2955 80.7461 29.517C80.8768 29.733 81.0472 29.8807 81.2575 29.9602C81.4677 30.0398 81.7006 30.0795 81.9563 30.0795C82.1495 30.0795 82.3256 30.0653 82.4847 30.0369C82.6495 30.0085 82.7745 29.983 82.8597 29.9602L83.3796 32.3722C83.2149 32.429 82.9791 32.4915 82.6722 32.5597C82.3711 32.6278 82.0018 32.6676 81.5643 32.679C80.7916 32.7017 80.0955 32.5852 79.4762 32.3295C78.8569 32.0682 78.3654 31.6648 78.0018 31.1193C77.6438 30.5739 77.4677 29.892 77.4734 29.0739V16.2727ZM89.4883 32.7642C88.6587 32.7642 87.9116 32.6165 87.2468 32.321C86.5877 32.0199 86.065 31.5767 85.6786 30.9915C85.2979 30.4062 85.1076 29.6847 85.1076 28.8267C85.1076 28.0881 85.244 27.4773 85.5167 26.9943C85.7894 26.5114 86.1616 26.125 86.6332 25.8352C87.1048 25.5455 87.636 25.3267 88.2269 25.179C88.8235 25.0256 89.44 24.9148 90.0764 24.8466C90.8434 24.767 91.4656 24.696 91.9428 24.6335C92.4201 24.5653 92.7667 24.4631 92.9826 24.3267C93.2042 24.1847 93.315 23.9659 93.315 23.6705V23.6193C93.315 22.9773 93.1247 22.4801 92.744 22.1278C92.3633 21.7756 91.815 21.5994 91.0991 21.5994C90.3434 21.5994 89.744 21.7642 89.3008 22.0938C88.8633 22.4233 88.5678 22.8125 88.4144 23.2614L85.5337 22.8523C85.761 22.0568 86.136 21.392 86.6587 20.858C87.1815 20.3182 87.8207 19.9148 88.5764 19.6477C89.332 19.375 90.1673 19.2386 91.082 19.2386C91.7127 19.2386 92.3406 19.3125 92.9656 19.4602C93.5906 19.608 94.1616 19.8523 94.6786 20.1932C95.1957 20.5284 95.6104 20.9858 95.9229 21.5653C96.2411 22.1449 96.4002 22.8693 96.4002 23.7386V32.5H93.4343V30.7017H93.332C93.1445 31.0653 92.8803 31.4062 92.5394 31.7244C92.2042 32.0369 91.7809 32.2898 91.2695 32.483C90.7639 32.6705 90.1701 32.7642 89.4883 32.7642ZM90.2894 30.4972C90.9087 30.4972 91.4457 30.375 91.9002 30.1307C92.3548 29.8807 92.7042 29.5511 92.9485 29.142C93.1985 28.733 93.3235 28.2869 93.3235 27.804V26.2614C93.2269 26.3409 93.0622 26.4148 92.8292 26.483C92.6019 26.5511 92.3462 26.6108 92.0622 26.6619C91.7781 26.7131 91.4968 26.7585 91.2184 26.7983C90.94 26.8381 90.6985 26.8722 90.494 26.9006C90.0337 26.9631 89.6218 27.0653 89.2582 27.2074C88.8945 27.3494 88.6076 27.5483 88.3974 27.804C88.1872 28.054 88.082 28.3778 88.082 28.7756C88.082 29.3438 88.2894 29.7727 88.7042 30.0625C89.119 30.3523 89.6474 30.4972 90.2894 30.4972ZM106.039 19.4091V21.7955H98.5139V19.4091H106.039ZM100.372 16.2727H103.457V28.5625C103.457 28.9773 103.52 29.2955 103.645 29.517C103.775 29.733 103.946 29.8807 104.156 29.9602C104.366 30.0398 104.599 30.0795 104.855 30.0795C105.048 30.0795 105.224 30.0653 105.383 30.0369C105.548 30.0085 105.673 29.983 105.758 29.9602L106.278 32.3722C106.113 32.429 105.877 32.4915 105.571 32.5597C105.27 32.6278 104.9 32.6676 104.463 32.679C103.69 32.7017 102.994 32.5852 102.375 32.3295C101.755 32.0682 101.264 31.6648 100.9 31.1193C100.542 30.5739 100.366 29.892 100.372 29.0739V16.2727ZM118.779 22.8693L115.966 23.1761C115.887 22.892 115.748 22.625 115.549 22.375C115.355 22.125 115.094 21.9233 114.765 21.7699C114.435 21.6165 114.032 21.5398 113.554 21.5398C112.912 21.5398 112.373 21.679 111.935 21.9574C111.503 22.2358 111.29 22.5966 111.296 23.0398C111.29 23.4205 111.429 23.7301 111.713 23.9688C112.003 24.2074 112.48 24.4034 113.145 24.5568L115.378 25.0341C116.617 25.3011 117.537 25.7244 118.14 26.304C118.748 26.8835 119.054 27.642 119.06 28.5795C119.054 29.4034 118.813 30.1307 118.336 30.7614C117.864 31.3864 117.208 31.875 116.367 32.2273C115.526 32.5795 114.56 32.7557 113.469 32.7557C111.867 32.7557 110.577 32.4205 109.6 31.75C108.623 31.0739 108.04 30.1335 107.853 28.929L110.861 28.6392C110.998 29.2301 111.287 29.6761 111.73 29.9773C112.174 30.2784 112.75 30.429 113.461 30.429C114.194 30.429 114.782 30.2784 115.225 29.9773C115.674 29.6761 115.898 29.304 115.898 28.8608C115.898 28.4858 115.753 28.1761 115.463 27.9318C115.179 27.6875 114.736 27.5 114.134 27.3693L111.901 26.9006C110.645 26.6392 109.716 26.1989 109.114 25.5795C108.512 24.9545 108.213 24.1648 108.219 23.2102C108.213 22.4034 108.432 21.7045 108.875 21.1136C109.324 20.517 109.946 20.0568 110.742 19.733C111.543 19.4034 112.466 19.2386 113.512 19.2386C115.046 19.2386 116.253 19.5653 117.134 20.2188C118.02 20.8722 118.569 21.7557 118.779 22.8693Z" fill="#0F172A"/>
</svg>
