<svg width="120" height="49" viewBox="0 0 120 49" fill="none" xmlns="http://www.w3.org/2000/svg">
<path d="M51.4329 32.6899C51.4329 34.1044 50.8322 35.461 49.7631 36.4612C48.6939 37.4614 47.2438 38.0233 45.7317 38.0233H11.5248L0.122536 48.6899V6.02327C0.122536 4.60879 0.723196 3.25223 1.79237 2.25204C2.86154 1.25185 4.31164 0.689941 5.82368 0.689941H45.7317C47.2438 0.689941 48.6939 1.25185 49.7631 2.25204C50.8322 3.25223 51.4329 4.60879 51.4329 6.02327V32.6899Z" fill="#64748B"/>
<path d="M9.64767 17.4701C9.70615 16.8302 10.2757 16.3115 10.9197 16.3115H17.9169C18.5609 16.3115 19.0356 16.8302 18.9771 17.4701L18.077 27.3184C18.0185 27.9582 17.449 28.477 16.8049 28.477H9.80783C9.16376 28.477 8.68906 27.9582 8.74755 27.3184L9.64767 17.4701Z" fill="#1E293B"/>
<path d="M21.7318 12.2563C21.7903 11.6164 22.3598 11.0977 23.0039 11.0977H30.001C30.645 11.0977 31.1197 11.6164 31.0613 12.2563L29.6846 27.3184C29.6261 27.9582 29.0566 28.477 28.4125 28.477H21.4154C20.7714 28.477 20.2966 27.9582 20.3551 27.3184L21.7318 12.2563Z" fill="#1E293B"/>
<path d="M33.3394 17.4701C33.3978 16.8302 33.9674 16.3115 34.6115 16.3115H41.6086C42.2526 16.3115 42.7273 16.8302 42.6688 17.4701L41.7687 27.3184C41.7102 27.9582 41.1407 28.477 40.4966 28.477H33.4995C32.8555 28.477 32.3808 27.9582 32.4392 27.3184L33.3394 17.4701Z" fill="#1E293B"/>
<path d="M70.6403 20.5337C70.5607 19.7894 70.2255 19.2098 69.6346 18.7951C69.0494 18.3803 68.288 18.1729 67.3505 18.1729C66.6914 18.1729 66.1261 18.2723 65.6545 18.4712C65.1829 18.6701 64.8221 18.9399 64.5721 19.2808C64.3221 19.6218 64.1943 20.011 64.1886 20.4485C64.1886 20.8121 64.271 21.1274 64.4357 21.3945C64.6062 21.6615 64.8363 21.8888 65.1261 22.0763C65.4158 22.2581 65.7369 22.4115 66.0891 22.5365C66.4414 22.6615 66.7965 22.7666 67.1545 22.8519L68.7908 23.261C69.4499 23.4144 70.0835 23.6218 70.6914 23.8831C71.3051 24.1445 71.8533 24.474 72.3363 24.8718C72.8249 25.2695 73.2113 25.7496 73.4954 26.3121C73.7795 26.8746 73.9215 27.5337 73.9215 28.2894C73.9215 29.3121 73.6602 30.2127 73.1374 30.9911C72.6147 31.7638 71.859 32.3689 70.8704 32.8064C69.8874 33.2382 68.6971 33.4541 67.2994 33.4541C65.9414 33.4541 64.7624 33.2439 63.7624 32.8235C62.7681 32.403 61.9897 31.7894 61.4272 30.9826C60.8704 30.1757 60.5693 29.1928 60.5238 28.0337H63.6346C63.6801 28.6416 63.8676 29.1473 64.1971 29.5507C64.5266 29.9541 64.9556 30.2553 65.484 30.4541C66.0181 30.653 66.6147 30.7524 67.2738 30.7524C67.9613 30.7524 68.5636 30.6502 69.0806 30.4456C69.6033 30.2354 70.0124 29.9456 70.3079 29.5763C70.6033 29.2013 70.7539 28.7638 70.7596 28.2638C70.7539 27.8093 70.6204 27.4343 70.359 27.1388C70.0977 26.8377 69.7312 26.5877 69.2596 26.3888C68.7937 26.1843 68.2482 26.0024 67.6232 25.8434L65.6374 25.332C64.1999 24.9627 63.0636 24.403 62.2283 23.653C61.3988 22.8973 60.984 21.8945 60.984 20.6445C60.984 19.6161 61.2624 18.7155 61.8193 17.9428C62.3818 17.1701 63.146 16.5706 64.1119 16.1445C65.0778 15.7127 66.1715 15.4968 67.3931 15.4968C68.6318 15.4968 69.717 15.7127 70.6488 16.1445C71.5863 16.5706 72.3221 17.1644 72.8562 17.9257C73.3903 18.6814 73.6658 19.5507 73.6829 20.5337H70.6403ZM83.141 20.099V22.4854H75.6154V20.099H83.141ZM77.4734 16.9627H80.5586V29.2524C80.5586 29.6672 80.6211 29.9854 80.7461 30.207C80.8768 30.4229 81.0472 30.5706 81.2575 30.6502C81.4677 30.7297 81.7006 30.7695 81.9563 30.7695C82.1495 30.7695 82.3256 30.7553 82.4847 30.7269C82.6495 30.6985 82.7745 30.6729 82.8597 30.6502L83.3796 33.0621C83.2149 33.1189 82.9791 33.1814 82.6722 33.2496C82.3711 33.3178 82.0018 33.3576 81.5643 33.3689C80.7916 33.3916 80.0955 33.2752 79.4762 33.0195C78.8569 32.7581 78.3654 32.3547 78.0018 31.8093C77.6438 31.2638 77.4677 30.582 77.4734 29.7638V16.9627ZM89.4883 33.4541C88.6587 33.4541 87.9116 33.3064 87.2468 33.011C86.5877 32.7098 86.065 32.2666 85.6786 31.6814C85.2979 31.0962 85.1076 30.3746 85.1076 29.5166C85.1076 28.778 85.244 28.1672 85.5167 27.6843C85.7894 27.2013 86.1616 26.8149 86.6332 26.5252C87.1048 26.2354 87.636 26.0166 88.2269 25.8689C88.8235 25.7155 89.44 25.6047 90.0764 25.5365C90.8434 25.457 91.4656 25.386 91.9428 25.3235C92.4201 25.2553 92.7667 25.153 92.9826 25.0166C93.2042 24.8746 93.315 24.6558 93.315 24.3604V24.3093C93.315 23.6672 93.1247 23.1701 92.744 22.8178C92.3633 22.4655 91.815 22.2894 91.0991 22.2894C90.3434 22.2894 89.744 22.4541 89.3008 22.7837C88.8633 23.1132 88.5678 23.5024 88.4144 23.9513L85.5337 23.5422C85.761 22.7468 86.136 22.082 86.6587 21.5479C87.1815 21.0081 87.8207 20.6047 88.5764 20.3377C89.332 20.0649 90.1673 19.9286 91.082 19.9286C91.7127 19.9286 92.3406 20.0024 92.9656 20.1502C93.5906 20.2979 94.1616 20.5422 94.6786 20.8831C95.1957 21.2183 95.6104 21.6757 95.9229 22.2553C96.2411 22.8348 96.4002 23.5593 96.4002 24.4286V33.1899H93.4343V31.3916H93.332C93.1445 31.7553 92.8803 32.0962 92.5394 32.4144C92.2042 32.7269 91.7809 32.9797 91.2695 33.1729C90.7639 33.3604 90.1701 33.4541 89.4883 33.4541ZM90.2894 31.1871C90.9087 31.1871 91.4457 31.0649 91.9002 30.8206C92.3548 30.5706 92.7042 30.2411 92.9485 29.832C93.1985 29.4229 93.3235 28.9769 93.3235 28.4939V26.9513C93.2269 27.0309 93.0622 27.1047 92.8292 27.1729C92.6019 27.2411 92.3462 27.3007 92.0622 27.3519C91.7781 27.403 91.4968 27.4485 91.2184 27.4882C90.94 27.528 90.6985 27.5621 90.494 27.5905C90.0337 27.653 89.6218 27.7553 89.2582 27.8973C88.8945 28.0394 88.6076 28.2382 88.3974 28.4939C88.1872 28.7439 88.082 29.0678 88.082 29.4655C88.082 30.0337 88.2894 30.4627 88.7042 30.7524C89.119 31.0422 89.6474 31.1871 90.2894 31.1871ZM106.039 20.099V22.4854H98.5139V20.099H106.039ZM100.372 16.9627H103.457V29.2524C103.457 29.6672 103.52 29.9854 103.645 30.207C103.775 30.4229 103.946 30.5706 104.156 30.6502C104.366 30.7297 104.599 30.7695 104.855 30.7695C105.048 30.7695 105.224 30.7553 105.383 30.7269C105.548 30.6985 105.673 30.6729 105.758 30.6502L106.278 33.0621C106.113 33.1189 105.877 33.1814 105.571 33.2496C105.27 33.3178 104.9 33.3576 104.463 33.3689C103.69 33.3916 102.994 33.2752 102.375 33.0195C101.755 32.7581 101.264 32.3547 100.9 31.8093C100.542 31.2638 100.366 30.582 100.372 29.7638V16.9627ZM118.779 23.5593L115.966 23.8661C115.887 23.582 115.748 23.3149 115.549 23.0649C115.355 22.8149 115.094 22.6132 114.765 22.4598C114.435 22.3064 114.032 22.2297 113.554 22.2297C112.912 22.2297 112.373 22.3689 111.935 22.6473C111.503 22.9257 111.29 23.2865 111.296 23.7297C111.29 24.1104 111.429 24.4201 111.713 24.6587C112.003 24.8973 112.48 25.0934 113.145 25.2468L115.378 25.724C116.617 25.9911 117.537 26.4144 118.14 26.9939C118.748 27.5735 119.054 28.332 119.06 29.2695C119.054 30.0934 118.813 30.8206 118.336 31.4513C117.864 32.0763 117.208 32.5649 116.367 32.9172C115.526 33.2695 114.56 33.4456 113.469 33.4456C111.867 33.4456 110.577 33.1104 109.6 32.4399C108.623 31.7638 108.04 30.8235 107.853 29.6189L110.861 29.3291C110.998 29.9201 111.287 30.3661 111.73 30.6672C112.174 30.9684 112.75 31.1189 113.461 31.1189C114.194 31.1189 114.782 30.9684 115.225 30.6672C115.674 30.3661 115.898 29.9939 115.898 29.5507C115.898 29.1757 115.753 28.8661 115.463 28.6218C115.179 28.3774 114.736 28.1899 114.134 28.0593L111.901 27.5905C110.645 27.3291 109.716 26.8888 109.114 26.2695C108.512 25.6445 108.213 24.8547 108.219 23.9002C108.213 23.0934 108.432 22.3945 108.875 21.8036C109.324 21.207 109.946 20.7468 110.742 20.4229C111.543 20.0934 112.466 19.9286 113.512 19.9286C115.046 19.9286 116.253 20.2553 117.134 20.9087C118.02 21.5621 118.569 22.4456 118.779 23.5593Z" fill="#64748B"/>
</svg>
