<svg width="52" height="48" viewBox="0 0 52 48" fill="none" xmlns="http://www.w3.org/2000/svg">
<path d="M51.4329 32C51.4329 33.4145 50.8322 34.771 49.7631 35.7712C48.6939 36.7714 47.2438 37.3333 45.7317 37.3333H11.5248L0.122536 48V5.33333C0.122536 3.91884 0.723196 2.56229 1.79237 1.5621C2.86154 0.561904 4.31164 0 5.82368 0H45.7317C47.2438 0 48.6939 0.561904 49.7631 1.5621C50.8322 2.56229 51.4329 3.91884 51.4329 5.33333V32Z" fill="#12D790"/>
<path d="M9.64767 16.7801C9.70616 16.1402 10.2757 15.6215 10.9197 15.6215H17.9169C18.5609 15.6215 19.0356 16.1402 18.9771 16.7801L18.077 26.6284C18.0185 27.2683 17.449 27.787 16.8049 27.787H9.80783C9.16376 27.787 8.68906 27.2683 8.74755 26.6284L9.64767 16.7801Z" fill="white"/>
<path d="M21.7318 11.5663C21.7903 10.9265 22.3598 10.4077 23.0039 10.4077H30.001C30.645 10.4077 31.1197 10.9265 31.0613 11.5663L29.6846 26.6284C29.6261 27.2683 29.0566 27.787 28.4125 27.787H21.4154C20.7714 27.787 20.2966 27.2683 20.3551 26.6284L21.7318 11.5663Z" fill="white"/>
<path d="M33.3394 16.7801C33.3978 16.1402 33.9674 15.6215 34.6114 15.6215H41.6086C42.2526 15.6215 42.7273 16.1402 42.6688 16.7801L41.7687 26.6284C41.7102 27.2683 41.1407 27.787 40.4966 27.787H33.4995C32.8555 27.787 32.3808 27.2683 32.4392 26.6284L33.3394 16.7801Z" fill="white"/>
</svg>
