<svg width="215" height="80" viewBox="0 0 215 80" fill="none" xmlns="http://www.w3.org/2000/svg">
<rect width="214.555" height="80" rx="16" fill="#1E293B"/>
<path d="M98.4329 48C98.4329 49.4145 97.8323 50.771 96.7631 51.7712C95.6939 52.7714 94.2438 53.3333 92.7318 53.3333H58.5249L47.1226 64V21.3333C47.1226 19.9188 47.7232 18.5623 48.7924 17.5621C49.8616 16.5619 51.3117 16 52.8237 16H92.7318C94.2438 16 95.6939 16.5619 96.7631 17.5621C97.8323 18.5623 98.4329 19.9188 98.4329 21.3333V48Z" fill="#12D790"/>
<path d="M56.6477 32.7801C56.7062 32.1402 57.2757 31.6215 57.9198 31.6215H64.9169C65.561 31.6215 66.0357 32.1402 65.9772 32.7801L65.077 42.6284C65.0186 43.2683 64.449 43.787 63.805 43.787H56.8079C56.1638 43.787 55.6891 43.2683 55.7476 42.6284L56.6477 32.7801Z" fill="#1E293B"/>
<path d="M68.7318 27.5663C68.7903 26.9265 69.3598 26.4077 70.0039 26.4077H77.001C77.6451 26.4077 78.1198 26.9265 78.0613 27.5663L76.6846 42.6284C76.6261 43.2683 76.0566 43.787 75.4125 43.787H68.4154C67.7714 43.787 67.2967 43.2683 67.3551 42.6284L68.7318 27.5663Z" fill="#1E293B"/>
<path d="M80.3394 32.7801C80.3979 32.1402 80.9674 31.6215 81.6115 31.6215H88.6086C89.2526 31.6215 89.7273 32.1402 89.6689 32.7801L88.7687 42.6284C88.7103 43.2683 88.1407 43.787 87.4967 43.787H80.4996C79.8555 43.787 79.3808 43.2683 79.4393 42.6284L80.3394 32.7801Z" fill="#1E293B"/>
<path d="M117.64 35.8438C117.561 35.0994 117.225 34.5199 116.635 34.1051C116.049 33.6903 115.288 33.483 114.35 33.483C113.691 33.483 113.126 33.5824 112.654 33.7812C112.183 33.9801 111.822 34.25 111.572 34.5909C111.322 34.9318 111.194 35.321 111.189 35.7585C111.189 36.1222 111.271 36.4375 111.436 36.7045C111.606 36.9716 111.836 37.1989 112.126 37.3864C112.416 37.5682 112.737 37.7216 113.089 37.8466C113.441 37.9716 113.796 38.0767 114.154 38.1619L115.791 38.571C116.45 38.7244 117.083 38.9318 117.691 39.1932C118.305 39.4545 118.853 39.7841 119.336 40.1818C119.825 40.5795 120.211 41.0597 120.495 41.6222C120.779 42.1847 120.921 42.8437 120.921 43.5994C120.921 44.6222 120.66 45.5227 120.137 46.3011C119.615 47.0739 118.859 47.679 117.87 48.1165C116.887 48.5483 115.697 48.7642 114.299 48.7642C112.941 48.7642 111.762 48.554 110.762 48.1335C109.768 47.7131 108.99 47.0994 108.427 46.2926C107.87 45.4858 107.569 44.5028 107.524 43.3438H110.635C110.68 43.9517 110.868 44.4574 111.197 44.8608C111.527 45.2642 111.956 45.5653 112.484 45.7642C113.018 45.9631 113.615 46.0625 114.274 46.0625C114.961 46.0625 115.564 45.9602 116.081 45.7557C116.603 45.5455 117.012 45.2557 117.308 44.8864C117.603 44.5114 117.754 44.0739 117.76 43.5739C117.754 43.1193 117.62 42.7443 117.359 42.4489C117.098 42.1477 116.731 41.8977 116.26 41.6989C115.794 41.4943 115.248 41.3125 114.623 41.1534L112.637 40.642C111.2 40.2727 110.064 39.7131 109.228 38.9631C108.399 38.2074 107.984 37.2045 107.984 35.9545C107.984 34.9261 108.262 34.0256 108.819 33.2528C109.382 32.4801 110.146 31.8807 111.112 31.4545C112.078 31.0227 113.171 30.8068 114.393 30.8068C115.632 30.8068 116.717 31.0227 117.649 31.4545C118.586 31.8807 119.322 32.4744 119.856 33.2358C120.39 33.9915 120.666 34.8608 120.683 35.8438H117.64ZM130.141 35.4091V37.7955H122.615V35.4091H130.141ZM124.473 32.2727H127.559V44.5625C127.559 44.9773 127.621 45.2955 127.746 45.517C127.877 45.733 128.047 45.8807 128.257 45.9602C128.468 46.0398 128.701 46.0795 128.956 46.0795C129.149 46.0795 129.326 46.0653 129.485 46.0369C129.649 46.0085 129.774 45.983 129.86 45.9602L130.38 48.3722C130.215 48.429 129.979 48.4915 129.672 48.5597C129.371 48.6278 129.002 48.6676 128.564 48.679C127.792 48.7017 127.096 48.5852 126.476 48.3295C125.857 48.0682 125.365 47.6648 125.002 47.1193C124.644 46.5739 124.468 45.892 124.473 45.0739V32.2727ZM136.488 48.7642C135.659 48.7642 134.912 48.6165 134.247 48.321C133.588 48.0199 133.065 47.5767 132.679 46.9915C132.298 46.4062 132.108 45.6847 132.108 44.8267C132.108 44.0881 132.244 43.4773 132.517 42.9943C132.789 42.5114 133.162 42.125 133.633 41.8352C134.105 41.5455 134.636 41.3267 135.227 41.179C135.823 41.0256 136.44 40.9148 137.076 40.8466C137.843 40.767 138.466 40.696 138.943 40.6335C139.42 40.5653 139.767 40.4631 139.983 40.3267C140.204 40.1847 140.315 39.9659 140.315 39.6705V39.6193C140.315 38.9773 140.125 38.4801 139.744 38.1278C139.363 37.7756 138.815 37.5994 138.099 37.5994C137.343 37.5994 136.744 37.7642 136.301 38.0938C135.863 38.4233 135.568 38.8125 135.414 39.2614L132.534 38.8523C132.761 38.0568 133.136 37.392 133.659 36.858C134.181 36.3182 134.821 35.9148 135.576 35.6477C136.332 35.375 137.167 35.2386 138.082 35.2386C138.713 35.2386 139.341 35.3125 139.966 35.4602C140.591 35.608 141.162 35.8523 141.679 36.1932C142.196 36.5284 142.61 36.9858 142.923 37.5653C143.241 38.1449 143.4 38.8693 143.4 39.7386V48.5H140.434V46.7017H140.332C140.145 47.0653 139.88 47.4062 139.539 47.7244C139.204 48.0369 138.781 48.2898 138.27 48.483C137.764 48.6705 137.17 48.7642 136.488 48.7642ZM137.289 46.4972C137.909 46.4972 138.446 46.375 138.9 46.1307C139.355 45.8807 139.704 45.5511 139.948 45.142C140.198 44.733 140.323 44.2869 140.323 43.804V42.2614C140.227 42.3409 140.062 42.4148 139.829 42.483C139.602 42.5511 139.346 42.6108 139.062 42.6619C138.778 42.7131 138.497 42.7585 138.218 42.7983C137.94 42.8381 137.698 42.8722 137.494 42.9006C137.034 42.9631 136.622 43.0653 136.258 43.2074C135.895 43.3494 135.608 43.5483 135.397 43.804C135.187 44.054 135.082 44.3778 135.082 44.7756C135.082 45.3438 135.289 45.7727 135.704 46.0625C136.119 46.3523 136.647 46.4972 137.289 46.4972ZM153.039 35.4091V37.7955H145.514V35.4091H153.039ZM147.372 32.2727H150.457V44.5625C150.457 44.9773 150.52 45.2955 150.645 45.517C150.775 45.733 150.946 45.8807 151.156 45.9602C151.366 46.0398 151.599 46.0795 151.855 46.0795C152.048 46.0795 152.224 46.0653 152.383 46.0369C152.548 46.0085 152.673 45.983 152.758 45.9602L153.278 48.3722C153.113 48.429 152.877 48.4915 152.571 48.5597C152.27 48.6278 151.9 48.6676 151.463 48.679C150.69 48.7017 149.994 48.5852 149.375 48.3295C148.755 48.0682 148.264 47.6648 147.9 47.1193C147.542 46.5739 147.366 45.892 147.372 45.0739V32.2727ZM165.779 38.8693L162.966 39.1761C162.887 38.892 162.747 38.625 162.549 38.375C162.355 38.125 162.094 37.9233 161.765 37.7699C161.435 37.6165 161.032 37.5398 160.554 37.5398C159.912 37.5398 159.372 37.679 158.935 37.9574C158.503 38.2358 158.29 38.5966 158.296 39.0398C158.29 39.4205 158.429 39.7301 158.713 39.9688C159.003 40.2074 159.48 40.4034 160.145 40.5568L162.378 41.0341C163.617 41.3011 164.537 41.7244 165.14 42.304C165.747 42.8835 166.054 43.642 166.06 44.5795C166.054 45.4034 165.813 46.1307 165.336 46.7614C164.864 47.3864 164.208 47.875 163.367 48.2273C162.526 48.5795 161.56 48.7557 160.469 48.7557C158.867 48.7557 157.577 48.4205 156.6 47.75C155.622 47.0739 155.04 46.1335 154.853 44.929L157.861 44.6392C157.997 45.2301 158.287 45.6761 158.73 45.9773C159.174 46.2784 159.75 46.429 160.461 46.429C161.194 46.429 161.782 46.2784 162.225 45.9773C162.674 45.6761 162.898 45.304 162.898 44.8608C162.898 44.4858 162.753 44.1761 162.463 43.9318C162.179 43.6875 161.736 43.5 161.134 43.3693L158.901 42.9006C157.645 42.6392 156.716 42.1989 156.114 41.5795C155.512 40.9545 155.213 40.1648 155.219 39.2102C155.213 38.4034 155.432 37.7045 155.875 37.1136C156.324 36.517 156.946 36.0568 157.742 35.733C158.543 35.4034 159.466 35.2386 160.512 35.2386C162.046 35.2386 163.253 35.5653 164.134 36.2188C165.02 36.8722 165.569 37.7557 165.779 38.8693Z" fill="#FAFAFA"/>
</svg>
