<svg width="281" height="80" viewBox="0 0 281 80" fill="none" xmlns="http://www.w3.org/2000/svg">
<rect width="280.31" height="80" rx="16" fill="#1E293B"/>
<path d="M99.3103 48C99.3103 49.4145 98.7097 50.771 97.6405 51.7712C96.5714 52.7714 95.1212 53.3333 93.6092 53.3333H59.4023L48 64V21.3333C48 19.9188 48.6007 18.5623 49.6698 17.5621C50.739 16.5619 52.1891 16 53.7011 16H93.6092C95.1212 16 96.5714 16.5619 97.6405 17.5621C98.7097 18.5623 99.3103 19.9188 99.3103 21.3333V48Z" fill="#12D790"/>
<path d="M57.5251 32.7801C57.5836 32.1402 58.1531 31.6215 58.7972 31.6215H65.7943C66.4384 31.6215 66.9131 32.1402 66.8546 32.7801L65.9545 42.6284C65.896 43.2683 65.3265 43.787 64.6824 43.787H57.6853C57.0412 43.787 56.5665 43.2683 56.625 42.6284L57.5251 32.7801Z" fill="#1E293B"/>
<path d="M69.6092 27.5663C69.6677 26.9265 70.2373 26.4077 70.8813 26.4077H77.8784C78.5225 26.4077 78.9972 26.9265 78.9387 27.5663L77.5621 42.6284C77.5036 43.2683 76.9341 43.787 76.29 43.787H69.2929C68.6488 43.787 68.1741 43.2683 68.2326 42.6284L69.6092 27.5663Z" fill="#1E293B"/>
<path d="M81.2168 32.7801C81.2753 32.1402 81.8448 31.6215 82.4889 31.6215H89.486C90.1301 31.6215 90.6048 32.1402 90.5463 32.7801L89.6462 42.6284C89.5877 43.2683 89.0182 43.787 88.3741 43.787H81.377C80.7329 43.787 80.2582 43.2683 80.3167 42.6284L81.2168 32.7801Z" fill="#1E293B"/>
<path d="M131.972 36.9347H128.785C128.694 36.4119 128.526 35.9489 128.282 35.5455C128.038 35.1364 127.734 34.7898 127.37 34.5057C127.006 34.2216 126.592 34.0085 126.126 33.8665C125.665 33.7188 125.168 33.6449 124.634 33.6449C123.685 33.6449 122.844 33.8835 122.111 34.3608C121.378 34.8324 120.805 35.5256 120.39 36.4403C119.975 37.3494 119.768 38.4602 119.768 39.7727C119.768 41.108 119.975 42.233 120.39 43.1477C120.81 44.0568 121.384 44.7443 122.111 45.2102C122.844 45.6705 123.682 45.9006 124.626 45.9006C125.148 45.9006 125.637 45.8324 126.092 45.696C126.552 45.554 126.964 45.3466 127.327 45.0739C127.697 44.8011 128.006 44.4659 128.256 44.0682C128.512 43.6705 128.688 43.2159 128.785 42.7045L131.972 42.7216C131.853 43.5511 131.594 44.3295 131.197 45.0568C130.805 45.7841 130.29 46.4261 129.654 46.983C129.018 47.5341 128.273 47.9659 127.421 48.2784C126.569 48.5852 125.623 48.7386 124.583 48.7386C123.049 48.7386 121.68 48.3835 120.475 47.6733C119.271 46.9631 118.322 45.9375 117.628 44.5966C116.935 43.2557 116.589 41.6477 116.589 39.7727C116.589 37.892 116.938 36.2841 117.637 34.9489C118.336 33.608 119.288 32.5824 120.492 31.8722C121.697 31.1619 123.06 30.8068 124.583 30.8068C125.555 30.8068 126.458 30.9432 127.293 31.2159C128.128 31.4886 128.873 31.8892 129.526 32.4176C130.18 32.9403 130.717 33.5824 131.137 34.3438C131.563 35.0994 131.842 35.9631 131.972 36.9347ZM137.817 40.8295V48.5H134.731V31.0455H137.749V37.6335H137.902C138.209 36.8949 138.683 36.3125 139.325 35.8864C139.973 35.4545 140.797 35.2386 141.797 35.2386C142.706 35.2386 143.499 35.429 144.175 35.8097C144.851 36.1903 145.374 36.7472 145.743 37.4801C146.118 38.2131 146.305 39.108 146.305 40.1648V48.5H143.22V40.642C143.22 39.7614 142.993 39.0767 142.538 38.5881C142.089 38.0937 141.459 37.8466 140.646 37.8466C140.101 37.8466 139.612 37.9659 139.18 38.2045C138.754 38.4375 138.419 38.7756 138.175 39.2188C137.936 39.6619 137.817 40.1989 137.817 40.8295ZM153.217 48.7642C152.388 48.7642 151.641 48.6165 150.976 48.321C150.317 48.0199 149.794 47.5767 149.408 46.9915C149.027 46.4062 148.837 45.6847 148.837 44.8267C148.837 44.0881 148.973 43.4773 149.246 42.9943C149.518 42.5114 149.891 42.125 150.362 41.8352C150.834 41.5455 151.365 41.3267 151.956 41.179C152.552 41.0256 153.169 40.9148 153.805 40.8466C154.572 40.767 155.195 40.696 155.672 40.6335C156.149 40.5653 156.496 40.4631 156.712 40.3267C156.933 40.1847 157.044 39.9659 157.044 39.6705V39.6193C157.044 38.9773 156.854 38.4801 156.473 38.1278C156.092 37.7756 155.544 37.5994 154.828 37.5994C154.072 37.5994 153.473 37.7642 153.03 38.0938C152.592 38.4233 152.297 38.8125 152.143 39.2614L149.263 38.8523C149.49 38.0568 149.865 37.392 150.388 36.858C150.91 36.3182 151.55 35.9148 152.305 35.6477C153.061 35.375 153.896 35.2386 154.811 35.2386C155.442 35.2386 156.07 35.3125 156.695 35.4602C157.32 35.608 157.891 35.8523 158.408 36.1932C158.925 36.5284 159.339 36.9858 159.652 37.5653C159.97 38.1449 160.129 38.8693 160.129 39.7386V48.5H157.163V46.7017H157.061C156.874 47.0653 156.609 47.4062 156.268 47.7244C155.933 48.0369 155.51 48.2898 154.999 48.483C154.493 48.6705 153.899 48.7642 153.217 48.7642ZM154.018 46.4972C154.638 46.4972 155.175 46.375 155.629 46.1307C156.084 45.8807 156.433 45.5511 156.677 45.142C156.927 44.733 157.052 44.2869 157.052 43.804V42.2614C156.956 42.3409 156.791 42.4148 156.558 42.483C156.331 42.5511 156.075 42.6108 155.791 42.6619C155.507 42.7131 155.226 42.7585 154.947 42.7983C154.669 42.8381 154.427 42.8722 154.223 42.9006C153.763 42.9631 153.351 43.0653 152.987 43.2074C152.624 43.3494 152.337 43.5483 152.126 43.804C151.916 44.054 151.811 44.3778 151.811 44.7756C151.811 45.3438 152.018 45.7727 152.433 46.0625C152.848 46.3523 153.376 46.4972 154.018 46.4972ZM169.768 35.4091V37.7955H162.243V35.4091H169.768ZM164.101 32.2727H167.186V44.5625C167.186 44.9773 167.249 45.2955 167.374 45.517C167.504 45.733 167.675 45.8807 167.885 45.9602C168.095 46.0398 168.328 46.0795 168.584 46.0795C168.777 46.0795 168.953 46.0653 169.112 46.0369C169.277 46.0085 169.402 45.983 169.487 45.9602L170.007 48.3722C169.842 48.429 169.606 48.4915 169.3 48.5597C168.999 48.6278 168.629 48.6676 168.192 48.679C167.419 48.7017 166.723 48.5852 166.104 48.3295C165.484 48.0682 164.993 47.6648 164.629 47.1193C164.271 46.5739 164.095 45.892 164.101 45.0739V32.2727ZM181.971 35.8438C181.891 35.0994 181.556 34.5199 180.965 34.1051C180.38 33.6903 179.619 33.483 178.681 33.483C178.022 33.483 177.457 33.5824 176.985 33.7812C176.513 33.9801 176.153 34.25 175.903 34.5909C175.653 34.9318 175.525 35.321 175.519 35.7585C175.519 36.1222 175.601 36.4375 175.766 36.7045C175.937 36.9716 176.167 37.1989 176.457 37.3864C176.746 37.5682 177.067 37.7216 177.42 37.8466C177.772 37.9716 178.127 38.0767 178.485 38.1619L180.121 38.571C180.78 38.7244 181.414 38.9318 182.022 39.1932C182.636 39.4545 183.184 39.7841 183.667 40.1818C184.155 40.5795 184.542 41.0597 184.826 41.6222C185.11 42.1847 185.252 42.8437 185.252 43.5994C185.252 44.6222 184.991 45.5227 184.468 46.3011C183.945 47.0739 183.19 47.679 182.201 48.1165C181.218 48.5483 180.028 48.7642 178.63 48.7642C177.272 48.7642 176.093 48.554 175.093 48.1335C174.099 47.7131 173.32 47.0994 172.758 46.2926C172.201 45.4858 171.9 44.5028 171.854 43.3438H174.965C175.011 43.9517 175.198 44.4574 175.528 44.8608C175.857 45.2642 176.286 45.5653 176.815 45.7642C177.349 45.9631 177.945 46.0625 178.604 46.0625C179.292 46.0625 179.894 45.9602 180.411 45.7557C180.934 45.5455 181.343 45.2557 181.638 44.8864C181.934 44.5114 182.084 44.0739 182.09 43.5739C182.084 43.1193 181.951 42.7443 181.69 42.4489C181.428 42.1477 181.062 41.8977 180.59 41.6989C180.124 41.4943 179.579 41.3125 178.954 41.1534L176.968 40.642C175.53 40.2727 174.394 39.7131 173.559 38.9631C172.729 38.2074 172.315 37.2045 172.315 35.9545C172.315 34.9261 172.593 34.0256 173.15 33.2528C173.712 32.4801 174.476 31.8807 175.442 31.4545C176.408 31.0227 177.502 30.8068 178.724 30.8068C179.962 30.8068 181.048 31.0227 181.979 31.4545C182.917 31.8807 183.653 32.4744 184.187 33.2358C184.721 33.9915 184.996 34.8608 185.013 35.8438H181.971ZM194.472 35.4091V37.7955H186.946V35.4091H194.472ZM188.804 32.2727H191.889V44.5625C191.889 44.9773 191.952 45.2955 192.077 45.517C192.207 45.733 192.378 45.8807 192.588 45.9602C192.798 46.0398 193.031 46.0795 193.287 46.0795C193.48 46.0795 193.656 46.0653 193.815 46.0369C193.98 46.0085 194.105 45.983 194.19 45.9602L194.71 48.3722C194.545 48.429 194.31 48.4915 194.003 48.5597C193.702 48.6278 193.332 48.6676 192.895 48.679C192.122 48.7017 191.426 48.5852 190.807 48.3295C190.187 48.0682 189.696 47.6648 189.332 47.1193C188.974 46.5739 188.798 45.892 188.804 45.0739V32.2727ZM200.819 48.7642C199.989 48.7642 199.242 48.6165 198.577 48.321C197.918 48.0199 197.396 47.5767 197.009 46.9915C196.628 46.4062 196.438 45.6847 196.438 44.8267C196.438 44.0881 196.575 43.4773 196.847 42.9943C197.12 42.5114 197.492 42.125 197.964 41.8352C198.435 41.5455 198.967 41.3267 199.557 41.179C200.154 41.0256 200.771 40.9148 201.407 40.8466C202.174 40.767 202.796 40.696 203.273 40.6335C203.751 40.5653 204.097 40.4631 204.313 40.3267C204.535 40.1847 204.646 39.9659 204.646 39.6705V39.6193C204.646 38.9773 204.455 38.4801 204.075 38.1278C203.694 37.7756 203.146 37.5994 202.43 37.5994C201.674 37.5994 201.075 37.7642 200.631 38.0938C200.194 38.4233 199.898 38.8125 199.745 39.2614L196.864 38.8523C197.092 38.0568 197.467 37.392 197.989 36.858C198.512 36.3182 199.151 35.9148 199.907 35.6477C200.663 35.375 201.498 35.2386 202.413 35.2386C203.043 35.2386 203.671 35.3125 204.296 35.4602C204.921 35.608 205.492 35.8523 206.009 36.1932C206.526 36.5284 206.941 36.9858 207.253 37.5653C207.572 38.1449 207.731 38.8693 207.731 39.7386V48.5H204.765V46.7017H204.663C204.475 47.0653 204.211 47.4062 203.87 47.7244C203.535 48.0369 203.111 48.2898 202.6 48.483C202.094 48.6705 201.501 48.7642 200.819 48.7642ZM201.62 46.4972C202.239 46.4972 202.776 46.375 203.231 46.1307C203.685 45.8807 204.035 45.5511 204.279 45.142C204.529 44.733 204.654 44.2869 204.654 43.804V42.2614C204.557 42.3409 204.393 42.4148 204.16 42.483C203.932 42.5511 203.677 42.6108 203.393 42.6619C203.109 42.7131 202.827 42.7585 202.549 42.7983C202.271 42.8381 202.029 42.8722 201.825 42.9006C201.364 42.9631 200.952 43.0653 200.589 43.2074C200.225 43.3494 199.938 43.5483 199.728 43.804C199.518 44.054 199.413 44.3778 199.413 44.7756C199.413 45.3438 199.62 45.7727 200.035 46.0625C200.45 46.3523 200.978 46.4972 201.62 46.4972ZM217.37 35.4091V37.7955H209.844V35.4091H217.37ZM211.702 32.2727H214.788V44.5625C214.788 44.9773 214.85 45.2955 214.975 45.517C215.106 45.733 215.276 45.8807 215.486 45.9602C215.697 46.0398 215.93 46.0795 216.185 46.0795C216.378 46.0795 216.555 46.0653 216.714 46.0369C216.878 46.0085 217.003 45.983 217.089 45.9602L217.609 48.3722C217.444 48.429 217.208 48.4915 216.901 48.5597C216.6 48.6278 216.231 48.6676 215.793 48.679C215.021 48.7017 214.325 48.5852 213.705 48.3295C213.086 48.0682 212.594 47.6648 212.231 47.1193C211.873 46.5739 211.697 45.892 211.702 45.0739V32.2727ZM230.109 38.8693L227.297 39.1761C227.217 38.892 227.078 38.625 226.879 38.375C226.686 38.125 226.425 37.9233 226.095 37.7699C225.766 37.6165 225.362 37.5398 224.885 37.5398C224.243 37.5398 223.703 37.679 223.266 37.9574C222.834 38.2358 222.621 38.5966 222.626 39.0398C222.621 39.4205 222.76 39.7301 223.044 39.9688C223.334 40.2074 223.811 40.4034 224.476 40.5568L226.709 41.0341C227.947 41.3011 228.868 41.7244 229.47 42.304C230.078 42.8835 230.385 43.642 230.391 44.5795C230.385 45.4034 230.143 46.1307 229.666 46.7614C229.195 47.3864 228.538 47.875 227.697 48.2273C226.856 48.5795 225.891 48.7557 224.8 48.7557C223.197 48.7557 221.908 48.4205 220.93 47.75C219.953 47.0739 219.371 46.1335 219.183 44.929L222.192 44.6392C222.328 45.2301 222.618 45.6761 223.061 45.9773C223.504 46.2784 224.081 46.429 224.791 46.429C225.524 46.429 226.112 46.2784 226.555 45.9773C227.004 45.6761 227.229 45.304 227.229 44.8608C227.229 44.4858 227.084 44.1761 226.794 43.9318C226.51 43.6875 226.067 43.5 225.464 43.3693L223.231 42.9006C221.976 42.6392 221.047 42.1989 220.445 41.5795C219.842 40.9545 219.544 40.1648 219.55 39.2102C219.544 38.4034 219.763 37.7045 220.206 37.1136C220.655 36.517 221.277 36.0568 222.072 35.733C222.874 35.4034 223.797 35.2386 224.842 35.2386C226.376 35.2386 227.584 35.5653 228.464 36.2188C229.351 36.8722 229.899 37.7557 230.109 38.8693Z" fill="#FAFAFA"/>
</svg>
