<svg viewBox="0 0 381 696" fill="none" xmlns="http://www.w3.org/2000/svg">
  <g class="MockUp" filter="url(#filter0_d_602_607)">
    <g id="">
      <path class="Vector"
        d="M46.5678 138.744H48.2461V162.302H46.5678C46.2558 162.302 46 162.047 46 161.735V139.311C46 138.999 46.2558 138.744 46.5678 138.744Z"
        fill="#EAEAEC" />
      <path class="Vector_2"
        d="M295.268 21H99.7194C71.2915 21 48.2461 44.0327 48.2461 72.4451V585.555C48.2461 613.967 71.2915 637 99.7194 637H295.268C323.696 637 346.741 613.967 346.741 585.555V72.4451C346.741 44.0327 323.696 21 295.268 21Z"
        fill="white" stroke="#E0E1E6" stroke-miterlimit="10" />
      <path class="Vector_3"
        d="M294.526 24.3799H100.462C73.6569 24.3799 51.9272 46.0977 51.9272 72.8879V584.271C51.9272 611.061 73.6569 632.779 100.462 632.779H294.526C321.331 632.779 343.06 611.061 343.06 584.271V72.8879C343.06 46.0977 321.331 24.3799 294.526 24.3799Z"
        fill="white" stroke="#E0E1E6" stroke-miterlimit="10" />
      <path class="Vector_4"
        d="M295.443 33.4902H99.5508C78.4487 33.4902 61.342 50.5875 61.342 71.6781V585.48C61.342 606.571 78.4487 623.668 99.5508 623.668H295.443C316.545 623.668 333.651 606.571 333.651 585.48V71.6781C333.651 50.5875 316.545 33.4902 295.443 33.4902Z"
        fill="#EAEAEC" />
      <path class="Vector_5" d="M48.2522 138.744H46.5676V162.302H48.2522V138.744Z" fill="#E0E1E4" />
      <path class="Vector_6"
        d="M46.5678 183.485H48.2461V230.104H46.5678C46.2558 230.104 46 229.848 46 229.536V184.047C46 183.735 46.2558 183.485 46.5678 183.485Z"
        fill="#EAEAEC" />
      <path class="Vector_7" d="M48.2522 183.485H46.5676V230.104H48.2522V183.485Z" fill="#E0E1E4" />
      <path class="Vector_8"
        d="M46.5678 242.918H48.2461V289.537H46.5678C46.2558 289.543 46 289.288 46 288.976V243.486C46 243.174 46.2558 242.918 46.5678 242.918Z"
        fill="#EAEAEC" />
      <path class="Vector_9" d="M48.2522 242.918H46.5676V289.537H48.2522V242.918Z" fill="#E0E1E4" />
      <path class="Vector_10" opacity="0.48"
        d="M294.532 24.3798H100.462C73.6583 24.3798 51.9272 46.0927 51.9272 72.8815V584.27C51.9272 611.059 73.6583 632.778 100.462 632.778H294.532C321.335 632.778 343.066 611.059 343.066 584.27V72.8815C343.066 46.0927 321.335 24.3735 294.532 24.3735V24.3798ZM340.571 584.632C340.571 609.687 320.25 629.997 295.181 629.997H99.8068C74.7377 629.997 54.4167 609.687 54.4167 584.632V72.5261C54.4229 47.477 74.744 27.1672 99.8068 27.1672H295.187C320.256 27.1672 340.577 47.477 340.577 72.5323V584.626L340.571 584.632Z"
        fill="#EAEAEC" />
      <path class="Vector_11"
        d="M348.432 289.512H346.748V215.668H348.432C348.744 215.668 349 215.924 349 216.235V288.945C349 289.256 348.744 289.512 348.432 289.512Z"
        fill="#EAEAEC" />
      <path class="Vector_12" d="M346.741 289.512H348.426V215.668H346.741V289.512Z" fill="#E0E1E4" />
    </g>
    <g class="Screen">
      <mask id="mask0_602_607" style="mask-type:alpha" maskUnits="userSpaceOnUse" x="61" y="33"
        width="273" height="591">
        <path class="Change Here"
          d="M295.698 33.7832H99.8067C78.7046 33.7832 61.5979 50.8805 61.5979 71.971V585.773C61.5979 606.864 78.7046 623.961 99.8067 623.961H295.698C316.801 623.961 333.907 606.864 333.907 585.773V71.971C333.907 50.8805 316.801 33.7832 295.698 33.7832Z"
          fill="#D9D9D9" />
      </mask>
      <g mask="url(#mask0_602_607)">
        <g id="screenframe">
          <rect width="272.653" height="589.903" transform="translate(60.9739 33.7832)"
            fill="url(#paint0_linear_602_607)" />
          <g class="paper mx-auto">
            <path class="Vector_13"
              d="M201.377 277.528H171.139C168.847 277.528 166.65 278.437 165.029 280.054C163.409 281.671 162.499 283.865 162.499 286.152V355.142C162.499 357.429 163.409 359.622 165.029 361.24C166.65 362.857 168.847 363.765 171.139 363.765H222.976C225.267 363.765 227.465 362.857 229.085 361.24C230.705 359.622 231.615 357.429 231.615 355.142V307.711L201.377 277.528Z"
              fill="#D9D9D9" fill-opacity="0.64" />
            <path class="Vector_14" d="M201.377 277.528V307.711H231.615" fill="#D9D9D9"
              fill-opacity="0.64" />
          </g>
        </g>
      </g>
    </g>
    <g class="Dynamic Island">
      <path class="Vector_15"
        d="M167.059 41.9971H228.796C235.467 41.9971 240.874 47.4018 240.874 54.0684C240.874 60.7349 235.467 66.1397 228.796 66.1397H167.059C160.388 66.1397 154.981 60.7349 154.981 54.0684C154.981 47.4018 160.388 41.9971 167.059 41.9971Z"
        fill="#F5F5F6" stroke="#ECECEF" />
      <path class="Vector_16"
        d="M228.371 60.9962C232.196 60.9962 235.297 57.8973 235.297 54.0745C235.297 50.2518 232.196 47.1528 228.371 47.1528C224.546 47.1528 221.446 50.2518 221.446 54.0745C221.446 57.8973 224.546 60.9962 228.371 60.9962Z"
        fill="#E0E1E4" />
      <path class="Vector_17"
        d="M228.371 57.8223C230.442 57.8223 232.121 56.1444 232.121 54.0746C232.121 52.0048 230.442 50.3269 228.371 50.3269C226.3 50.3269 224.622 52.0048 224.622 54.0746C224.622 56.1444 226.3 57.8223 228.371 57.8223Z"
        fill="#A8AEB8" />
    </g>
  </g>
  <defs>
    <filter class="filter0_d_602_607" x="0" y="0.5" width="381" height="695"
      filterUnits="userSpaceOnUse" color-interpolation-filters="sRGB">
      <feFlood flood-opacity="0" result="BackgroundImageFix" />
      <feColorMatrix in="SourceAlpha" type="matrix"
        values="0 0 0 0 0 0 0 0 0 0 0 0 0 0 0 0 0 0 127 0" result="hardAlpha" />
      <feOffset dx="-7" dy="19" />
      <feGaussianBlur stdDeviation="19.5" />
      <feComposite in2="hardAlpha" operator="out" />
      <feColorMatrix type="matrix"
        values="0 0 0 0 0.344375 0 0 0 0 0.348906 0 0 0 0 0.3625 0 0 0 0.3 0" />
      <feBlend mode="normal" in2="BackgroundImageFix" result="effect1_dropShadow_602_607" />
      <feBlend mode="normal" in="SourceGraphic" in2="effect1_dropShadow_602_607" result="shape" />
    </filter>
    <linearGradient id="paint0_linear_602_607" x1="-69.4353" y1="-36.7816" x2="434.419" y2="568.446"
      gradientUnits="userSpaceOnUse">
      <stop stop-color="#12D790" />
      <stop offset="1" stop-color="#12BFD7" />
    </linearGradient>
  </defs>
</svg>