<svg viewBox="0 0 564 1068" fill="none" xmlns="http://www.w3.org/2000/svg">
  <g id="MockUp" filter="url(#filter0_d_1_25)">
    <g id="frame">
      <path id="Vector"
        d="M46.91 209.82H49.6V247.6H46.91C46.41 247.6 46 247.19 46 246.69V210.73C46 210.23 46.41 209.82 46.91 209.82Z"
        fill="#EAEAEC" />
      <path id="Vector_2"
        d="M445.52 21H132.1C86.5365 21 49.6 57.9365 49.6 103.5V926.35C49.6 971.913 86.5365 1008.85 132.1 1008.85H445.52C491.083 1008.85 528.02 971.913 528.02 926.35V103.5C528.02 57.9365 491.083 21 445.52 21Z"
        fill="white" stroke="#E0E1E6" stroke-miterlimit="10" />
      <path id="Vector_3"
        d="M444.33 26.42H133.29C90.3278 26.42 55.5 61.2478 55.5 104.21V924.29C55.5 967.252 90.3278 1002.08 133.29 1002.08H444.33C487.292 1002.08 522.12 967.252 522.12 924.29V104.21C522.12 61.2478 487.292 26.42 444.33 26.42Z"
        fill="white" stroke="#E0E1E6" stroke-miterlimit="10" />
      <path id="Vector_4"
        d="M445.8 41.03H131.83C98.008 41.03 70.59 68.4481 70.59 102.27V926.23C70.59 960.052 98.008 987.47 131.83 987.47H445.8C479.622 987.47 507.04 960.052 507.04 926.23V102.27C507.04 68.4481 479.622 41.03 445.8 41.03Z"
        fill="#EAEAEC" />
      <path id="Vector_5" d="M49.6099 209.82H46.9099V247.6H49.6099V209.82Z" fill="#E0E1E4" />
      <path id="Vector_6"
        d="M46.91 281.57H49.6V356.33H46.91C46.41 356.33 46 355.92 46 355.42V282.47C46 281.97 46.41 281.57 46.91 281.57Z"
        fill="#EAEAEC" />
      <path id="Vector_7" d="M49.6099 281.57H46.9099V356.33H49.6099V281.57Z" fill="#E0E1E4" />
      <path id="Vector_8"
        d="M46.91 376.88H49.6V451.64H46.91C46.41 451.65 46 451.24 46 450.74V377.79C46 377.29 46.41 376.88 46.91 376.88Z"
        fill="#EAEAEC" />
      <path id="Vector_9" d="M49.6099 376.88H46.9099V451.64H49.6099V376.88Z" fill="#E0E1E4" />
      <path id="Vector_10" opacity="0.48"
        d="M444.34 26.42H133.29C90.33 26.42 55.5 61.24 55.5 104.2V924.29C55.5 967.25 90.33 1002.08 133.29 1002.08H444.34C487.3 1002.08 522.13 967.25 522.13 924.29V104.2C522.13 61.24 487.3 26.41 444.34 26.41V26.42ZM518.13 924.87C518.13 965.05 485.56 997.62 445.38 997.62H132.24C92.06 997.62 59.49 965.05 59.49 924.87V103.63C59.5 63.46 92.07 30.89 132.24 30.89H445.39C485.57 30.89 518.14 63.46 518.14 103.64V924.86L518.13 924.87Z"
        fill="#EAEAEC" />
      <path id="Vector_11"
        d="M530.73 451.6H528.03V333.18H530.73C531.23 333.18 531.64 333.59 531.64 334.09V450.69C531.64 451.19 531.23 451.6 530.73 451.6Z"
        fill="#EAEAEC" />
      <path id="Vector_12" d="M528.02 451.6H530.72V333.18H528.02V451.6Z" fill="#E0E1E4" />
    </g>
    <g id="Screen">
      <mask id="mask0_1_25" style="mask-type:alpha" maskUnits="userSpaceOnUse" x="71" y="42"
        width="437" height="947">
        <path id="Change Here"
          d="M446.21 42H132.24C98.4181 42 71 69.4181 71 103.24V927.2C71 961.022 98.4181 988.44 132.24 988.44H446.21C480.032 988.44 507.45 961.022 507.45 927.2V103.24C507.45 69.4181 480.032 42 446.21 42Z"
          fill="#D9D9D9" />
      </mask>
      <g mask="url(#mask0_1_25)">
        <g id="screen-frame">
          <rect width="436" height="945" transform="translate(71 42)"
            fill="url(#paint0_linear_1_25)" />
          <g class="paper" filter="url(#filter1_d_1_25)">
            <path fill-rule="evenodd" clip-rule="evenodd"
              d="M247.816 433H296.17L344.524 481.352V557.333C344.524 560.997 343.068 564.511 340.478 567.102C337.887 569.693 334.373 571.148 330.709 571.148H247.816C244.151 571.148 240.637 569.693 238.046 567.102C235.456 564.511 234 560.997 234 557.333V446.815C234 443.151 235.456 439.637 238.046 437.046C240.637 434.455 244.151 433 247.816 433ZM289.102 495C295.492 495 301.492 497.492 306.008 502.008C310.516 506.523 313 512.523 313 518.906C312.992 532.086 302.273 542.805 289.102 542.805H289.094C285.094 542.797 281.156 541.797 277.672 539.891L265 543.219L268.391 530.836C266.297 527.211 265.195 523.102 265.203 518.891C265.203 505.719 275.93 495 289.102 495ZM289.094 538.766H289.102C300.047 538.766 308.961 529.859 308.961 518.906C308.961 513.602 306.898 508.617 303.148 504.859C299.398 501.109 294.414 499.039 289.109 499.039C278.148 499.039 269.234 507.945 269.234 518.891C269.234 522.641 270.281 526.297 272.273 529.461L272.742 530.211L270.734 537.539L278.258 535.57L278.984 536C282.031 537.805 285.531 538.766 289.094 538.766ZM295.914 521.953C296.461 522.148 299.398 523.594 299.992 523.891C300.115 523.953 300.229 524.009 300.335 524.06C300.746 524.26 301.023 524.395 301.141 524.594C301.289 524.844 301.289 526.039 300.797 527.43C300.297 528.828 297.914 530.102 296.766 530.273C295.734 530.422 294.43 530.484 293 530.031C292.133 529.758 291.023 529.391 289.602 528.773C284.025 526.367 280.248 520.976 279.512 519.925C279.457 519.847 279.419 519.793 279.398 519.766L279.39 519.754C279.062 519.315 276.961 516.496 276.961 513.586C276.961 510.828 278.318 509.385 278.936 508.728C278.976 508.685 279.014 508.646 279.047 508.609C279.594 508.008 280.242 507.859 280.641 507.859C281.039 507.859 281.438 507.859 281.781 507.875C281.827 507.878 281.874 507.878 281.923 507.878C282.27 507.878 282.701 507.878 283.125 508.898C283.308 509.335 283.583 510.004 283.866 510.693C284.358 511.891 284.874 513.147 284.969 513.336C285.117 513.633 285.219 513.984 285.023 514.383C284.992 514.445 284.962 514.504 284.935 514.56C284.784 514.862 284.672 515.085 284.422 515.375C284.335 515.477 284.246 515.586 284.157 515.696C283.939 515.963 283.717 516.234 283.523 516.422C283.227 516.719 282.914 517.039 283.266 517.641C283.609 518.234 284.812 520.195 286.586 521.773C288.507 523.491 290.173 524.211 291.011 524.572C291.168 524.64 291.296 524.695 291.391 524.742C291.984 525.039 292.336 524.984 292.68 524.594C293.031 524.195 294.172 522.852 294.57 522.25C294.969 521.656 295.367 521.75 295.914 521.953Z"
              fill="white" fill-opacity="0.64" shape-rendering="crispEdges" />
            <path d="M344.5 481.5L296 433V481.5H344.5Z" fill="white" fill-opacity="0.64"
              shape-rendering="crispEdges" />
          </g>
          <g class="ui">
            <g id="blocks" filter="url(#filter2_d_1_25)">
              <path
                d="M103 182.314C103 176.618 107.616 172 113.31 172H345.286C350.98 172 355.596 176.618 355.596 182.314V192.628C355.596 198.325 350.98 202.943 345.286 202.943H113.31C107.616 202.943 103 198.325 103 192.628V182.314Z"
                fill="#FAFAFA" fill-opacity="0.48" shape-rendering="crispEdges" />
              <path
                d="M103 231.307C103 227.034 106.462 223.571 110.733 223.571H467.717C471.988 223.571 475.45 227.034 475.45 231.307C475.45 235.579 471.988 239.042 467.717 239.042H110.733C106.462 239.042 103 235.579 103 231.307Z"
                fill="#FAFAFA" fill-opacity="0.48" shape-rendering="crispEdges" />
              <path
                d="M103 267.406C103 263.134 106.462 259.671 110.733 259.671H467.717C471.988 259.671 475.45 263.134 475.45 267.406C475.45 271.679 471.988 275.142 467.717 275.142H110.733C106.462 275.142 103 271.679 103 267.406Z"
                fill="#FAFAFA" fill-opacity="0.48" shape-rendering="crispEdges" />
              <path
                d="M103 316.399C103 310.703 107.616 306.085 113.31 306.085H263.45C269.144 306.085 273.76 310.703 273.76 316.399V471.757C273.76 477.453 269.144 482.071 263.45 482.071H113.31C107.616 482.071 103 477.453 103 471.757V316.399Z"
                fill="#FAFAFA" fill-opacity="0.48" shape-rendering="crispEdges" />
              <path
                d="M304.69 316.399C304.69 310.703 309.306 306.085 315 306.085H465.14C470.834 306.085 475.45 310.703 475.45 316.399V471.757C475.45 477.453 470.834 482.071 465.14 482.071H315C309.306 482.071 304.69 477.453 304.69 471.757V316.399Z"
                fill="#FAFAFA" fill-opacity="0.48" shape-rendering="crispEdges" />
              <path
                d="M103 523.328C103 517.632 107.616 513.014 113.31 513.014H465.14C470.834 513.014 475.45 517.632 475.45 523.328V676.43C475.45 682.126 470.834 686.744 465.14 686.744H113.31C107.616 686.744 103 682.126 103 676.43V523.328Z"
                fill="#FAFAFA" fill-opacity="0.48" shape-rendering="crispEdges" />
              <path
                d="M103 728.001C103 722.304 107.616 717.686 113.31 717.686H465.14C470.834 717.686 475.45 722.304 475.45 728.001V881.102C475.45 886.799 470.834 891.417 465.14 891.417H113.31C107.616 891.417 103 886.799 103 881.102V728.001Z"
                fill="#FAFAFA" fill-opacity="0.48" shape-rendering="crispEdges" />
            </g>
            <g class="chart">
              <path id="Vector_13" opacity="0.64"
                d="M120 790C120 787.791 121.792 785.992 123.998 786.117C143.986 787.248 167.781 796.181 194.008 796.181C222.006 796.181 261.127 838.754 298.33 838.754C335.533 838.754 384.243 793.561 409.173 793.561C430.572 793.561 450.558 809.005 455.79 813.379C456.654 814.101 457.115 815.162 457.115 816.288V877C457.115 879.209 455.324 881 453.115 881H124C121.791 881 120 879.209 120 877V790Z"
                fill="url(#paint1_linear_1_25)" />
              <path id="Vector_14"
                d="M120.615 789C121.115 780 166.01 796.181 194.008 796.181C222.006 796.181 261.127 838.754 298.33 838.754C335.533 838.754 384.243 793.561 409.173 793.561C434.103 793.561 456.615 815 456.615 815"
                stroke="white" stroke-opacity="0.72" />
            </g>
            <g class="chart">
              <path id="Vector_15" opacity="0.64"
                d="M457.115 576C457.115 573.791 455.323 571.992 453.117 572.117C433.129 573.248 409.333 582.181 383.107 582.181C355.108 582.181 315.988 624.754 278.784 624.754C241.581 624.754 192.872 579.561 167.942 579.561C146.543 579.561 126.556 595.005 121.325 599.379C120.461 600.101 120 601.162 120 602.288V663C120 665.209 121.791 667 124 667H453.115C455.324 667 457.115 665.209 457.115 663V576Z"
                fill="url(#paint2_linear_1_25)" />
              <path id="Vector_16"
                d="M456.5 575C456 566 411.105 582.181 383.107 582.181C355.108 582.181 315.988 624.754 278.784 624.754C241.581 624.754 192.872 579.561 167.942 579.561C143.012 579.561 120.5 601 120.5 601"
                stroke="white" stroke-opacity="0.72" />
            </g>
          </g>
        </g>
      </g>
    </g>
    <g id="Dynamic Island">
      <g id="Vector_17">
        <mask id="path-20-inside-1_1_25" fill="white">
          <path
            d="M338.98 53.87H240.03C228.896 53.87 219.87 62.8959 219.87 74.03C219.87 85.1641 228.896 94.19 240.03 94.19H338.98C350.114 94.19 359.14 85.1641 359.14 74.03C359.14 62.8959 350.114 53.87 338.98 53.87Z" />
        </mask>
        <path
          d="M338.98 53.87H240.03C228.896 53.87 219.87 62.8959 219.87 74.03C219.87 85.1641 228.896 94.19 240.03 94.19H338.98C350.114 94.19 359.14 85.1641 359.14 74.03C359.14 62.8959 350.114 53.87 338.98 53.87Z"
          fill="#F5F5F6" stroke="#ECECEF" stroke-width="2" mask="url(#path-20-inside-1_1_25)" />
      </g>
      <path id="Vector_18"
        d="M338.3 85.14C344.43 85.14 349.4 80.1704 349.4 74.04C349.4 67.9096 344.43 62.94 338.3 62.94C332.17 62.94 327.2 67.9096 327.2 74.04C327.2 80.1704 332.17 85.14 338.3 85.14Z"
        fill="#E0E1E4" />
      <path id="Vector_19"
        d="M338.3 80.05C341.619 80.05 344.31 77.3592 344.31 74.04C344.31 70.7208 341.619 68.03 338.3 68.03C334.981 68.03 332.29 70.7208 332.29 74.04C332.29 77.3592 334.981 80.05 338.3 80.05Z"
        fill="#A8AEB8" />
    </g>
  </g>
  <defs>
    <filter id="filter0_d_1_25" x="0" y="0.5" width="563.64" height="1066.85"
      filterUnits="userSpaceOnUse" color-interpolation-filters="sRGB">
      <feFlood flood-opacity="0" result="BackgroundImageFix" />
      <feColorMatrix in="SourceAlpha" type="matrix"
        values="0 0 0 0 0 0 0 0 0 0 0 0 0 0 0 0 0 0 127 0" result="hardAlpha" />
      <feOffset dx="-7" dy="19" />
      <feGaussianBlur stdDeviation="19.5" />
      <feComposite in2="hardAlpha" operator="out" />
      <feColorMatrix type="matrix"
        values="0 0 0 0 0.344375 0 0 0 0 0.348906 0 0 0 0 0.3625 0 0 0 0.3 0" />
      <feBlend mode="normal" in2="BackgroundImageFix" result="effect1_dropShadow_1_25" />
      <feBlend mode="normal" in="SourceGraphic" in2="effect1_dropShadow_1_25" result="shape" />
    </filter>
    <filter id="filter1_d_1_25" x="226" y="433" width="118.524" height="146.148"
      filterUnits="userSpaceOnUse" color-interpolation-filters="sRGB">
      <feFlood flood-opacity="0" result="BackgroundImageFix" />
      <feColorMatrix in="SourceAlpha" type="matrix"
        values="0 0 0 0 0 0 0 0 0 0 0 0 0 0 0 0 0 0 127 0" result="hardAlpha" />
      <feOffset dx="-4" dy="4" />
      <feGaussianBlur stdDeviation="2" />
      <feComposite in2="hardAlpha" operator="out" />
      <feColorMatrix type="matrix" values="0 0 0 0 0 0 0 0 0 0 0 0 0 0 0 0 0 0 0.04 0" />
      <feBlend mode="normal" in2="BackgroundImageFix" result="effect1_dropShadow_1_25" />
      <feBlend mode="normal" in="SourceGraphic" in2="effect1_dropShadow_1_25" result="shape" />
    </filter>
    <filter id="filter2_d_1_25" x="103" y="172" width="380.45" height="727.417"
      filterUnits="userSpaceOnUse" color-interpolation-filters="sRGB">
      <feFlood flood-opacity="0" result="BackgroundImageFix" />
      <feColorMatrix in="SourceAlpha" type="matrix"
        values="0 0 0 0 0 0 0 0 0 0 0 0 0 0 0 0 0 0 127 0" result="hardAlpha" />
      <feOffset dx="4" dy="4" />
      <feGaussianBlur stdDeviation="2" />
      <feComposite in2="hardAlpha" operator="out" />
      <feColorMatrix type="matrix" values="0 0 0 0 0 0 0 0 0 0 0 0 0 0 0 0 0 0 0.04 0" />
      <feBlend mode="normal" in2="BackgroundImageFix" result="effect1_dropShadow_1_25" />
      <feBlend mode="normal" in="SourceGraphic" in2="effect1_dropShadow_1_25" result="shape" />
    </filter>
    <linearGradient id="paint0_linear_1_25" x1="-111.034" y1="-58.9225" x2="696.378" y2="909.211"
      gradientUnits="userSpaceOnUse">
      <stop stop-color="#12D790" />
      <stop offset="1" stop-color="#12BFD7" />
    </linearGradient>
    <linearGradient id="paint1_linear_1_25" x1="288.557" y1="786" x2="288.557" y2="881"
      gradientUnits="userSpaceOnUse">
      <stop stop-color="white" stop-opacity="0.64" />
      <stop offset="1" stop-color="white" stop-opacity="0" />
    </linearGradient>
    <linearGradient id="paint2_linear_1_25" x1="288.557" y1="572" x2="288.557" y2="667"
      gradientUnits="userSpaceOnUse">
      <stop stop-color="white" stop-opacity="0.64" />
      <stop offset="1" stop-color="white" stop-opacity="0" />
    </linearGradient>
  </defs>
</svg>