<svg width="24" height="24" viewBox="0 0 24 24" fill="none" xmlns="http://www.w3.org/2000/svg">
<path d="M19 5L5 19" stroke="url(#paint0_linear_316_1341)" stroke-width="2" stroke-linecap="round" stroke-linejoin="round"/>
<path d="M6.5 9C7.88071 9 9 7.88071 9 6.5C9 5.11929 7.88071 4 6.5 4C5.11929 4 4 5.11929 4 6.5C4 7.88071 5.11929 9 6.5 9Z" stroke="url(#paint1_linear_316_1341)" stroke-width="2" stroke-linecap="round" stroke-linejoin="round"/>
<path d="M17.5 20C18.8807 20 20 18.8807 20 17.5C20 16.1193 18.8807 15 17.5 15C16.1193 15 15 16.1193 15 17.5C15 18.8807 16.1193 20 17.5 20Z" stroke="url(#paint2_linear_316_1341)" stroke-width="2" stroke-linecap="round" stroke-linejoin="round"/>
<defs>
<linearGradient id="paint0_linear_316_1341" x1="1.43468" y1="4.12707" x2="9.58528" y2="25.3095" gradientUnits="userSpaceOnUse">
<stop stop-color="#12D790"/>
<stop offset="1" stop-color="#12BFD7"/>
</linearGradient>
<linearGradient id="paint1_linear_316_1341" x1="2.72667" y1="3.68824" x2="5.6376" y2="11.2534" gradientUnits="userSpaceOnUse">
<stop stop-color="#12D790"/>
<stop offset="1" stop-color="#12BFD7"/>
</linearGradient>
<linearGradient id="paint2_linear_316_1341" x1="13.7267" y1="14.6882" x2="16.6376" y2="22.2534" gradientUnits="userSpaceOnUse">
<stop stop-color="#12D790"/>
<stop offset="1" stop-color="#12BFD7"/>
</linearGradient>
</defs>
</svg>
