<svg width="758" height="129" viewBox="0 0 758 129" fill="none" xmlns="http://www.w3.org/2000/svg">
<g filter="url(#filter0_d_430_476)">
<rect x="0.5" y="0.689941" width="120" height="120" rx="24" fill="white" shape-rendering="crispEdges"/>
<g clip-path="url(#clip0_430_476)">
<path d="M72.5 72.6899L60.5 60.6899L48.5 72.6899" stroke="url(#paint0_linear_430_476)" stroke-width="6" stroke-linecap="round" stroke-linejoin="round"/>
<path d="M60.5 60.6899V87.6899" stroke="url(#paint1_linear_430_476)" stroke-width="6" stroke-linecap="round" stroke-linejoin="round"/>
<path d="M85.6704 79.8599C88.5964 78.2647 90.9079 75.7405 92.24 72.6858C93.5721 69.631 93.849 66.2196 93.027 62.99C92.205 59.7603 90.3308 56.8964 87.7004 54.8502C85.0699 52.804 81.833 51.6921 78.5004 51.6899H74.7204C73.8123 48.1776 72.1199 44.9169 69.7702 42.1529C67.4206 39.3888 64.4749 37.1934 61.1547 35.7317C57.8344 34.27 54.226 33.58 50.6007 33.7135C46.9754 33.8471 43.4276 34.8008 40.2239 36.5029C37.0202 38.205 34.2441 40.6112 32.1042 43.5406C29.9644 46.4701 28.5164 49.8465 27.8693 53.4161C27.2222 56.9856 27.3927 60.6555 28.368 64.1497C29.3433 67.6439 31.0981 70.8715 33.5004 73.5899" stroke="url(#paint2_linear_430_476)" stroke-width="6" stroke-linecap="round" stroke-linejoin="round"/>
<path d="M72.5 72.6899L60.5 60.6899L48.5 72.6899" stroke="url(#paint3_linear_430_476)" stroke-width="6" stroke-linecap="round" stroke-linejoin="round"/>
</g>
<rect x="1" y="1.18994" width="119" height="119" rx="23.5" stroke="#F1F5F9" shape-rendering="crispEdges"/>
</g>
<path d="M166.667 67.3567L173.333 60.69L166.667 54.0234" stroke="#CBD5E1" stroke-width="3" stroke-linecap="round" stroke-linejoin="round"/>
<path d="M157.333 67.3567L164 60.69L157.333 54.0234" stroke="#CBD5E1" stroke-width="3" stroke-linecap="round" stroke-linejoin="round"/>
<g filter="url(#filter1_d_430_476)">
<rect x="210.167" y="0.689941" width="120" height="120" rx="24" fill="white" shape-rendering="crispEdges"/>
<g clip-path="url(#clip1_430_476)">
<path d="M270.167 69.6899C275.137 69.6899 279.167 65.6605 279.167 60.6899C279.167 55.7194 275.137 51.6899 270.167 51.6899C265.196 51.6899 261.167 55.7194 261.167 60.6899C261.167 65.6605 265.196 69.6899 270.167 69.6899Z" stroke="url(#paint4_linear_430_476)" stroke-width="6" stroke-linecap="round" stroke-linejoin="round"/>
<path d="M292.367 69.6899C291.967 70.5948 291.848 71.5985 292.025 72.5717C292.201 73.5449 292.665 74.4429 293.357 75.1499L293.537 75.3299C294.094 75.8872 294.537 76.5489 294.839 77.2773C295.141 78.0057 295.296 78.7864 295.296 79.5749C295.296 80.3634 295.141 81.1442 294.839 81.8726C294.537 82.601 294.094 83.2627 293.537 83.8199C292.979 84.3778 292.318 84.8204 291.589 85.1223C290.861 85.4242 290.08 85.5797 289.292 85.5797C288.503 85.5797 287.722 85.4242 286.994 85.1223C286.266 84.8204 285.604 84.3778 285.047 83.8199L284.867 83.6399C284.16 82.9483 283.262 82.4844 282.288 82.3079C281.315 82.1315 280.311 82.2506 279.407 82.6499C278.519 83.0302 277.763 83.6617 277.23 84.4665C276.697 85.2714 276.41 86.2146 276.407 87.1799V87.6899C276.407 89.2812 275.774 90.8074 274.649 91.9326C273.524 93.0578 271.998 93.6899 270.407 93.6899C268.815 93.6899 267.289 93.0578 266.164 91.9326C265.039 90.8074 264.407 89.2812 264.407 87.6899V87.4199C264.383 86.427 264.062 85.4639 263.484 84.656C262.906 83.8482 262.099 83.2328 261.167 82.8899C260.262 82.4906 259.258 82.3715 258.285 82.5479C257.312 82.7244 256.414 83.1883 255.707 83.8799L255.527 84.0599C254.969 84.6178 254.308 85.0604 253.579 85.3623C252.851 85.6642 252.07 85.8197 251.282 85.8197C250.493 85.8197 249.712 85.6642 248.984 85.3623C248.256 85.0604 247.594 84.6178 247.037 84.0599C246.479 83.5027 246.036 82.841 245.734 82.1126C245.432 81.3842 245.277 80.6034 245.277 79.8149C245.277 79.0264 245.432 78.2457 245.734 77.5173C246.036 76.7889 246.479 76.1272 247.037 75.5699L247.217 75.3899C247.908 74.6829 248.372 73.7849 248.549 72.8117C248.725 71.8385 248.606 70.8348 248.207 69.9299C247.826 69.0426 247.195 68.2859 246.39 67.7529C245.585 67.2198 244.642 66.9338 243.677 66.9299H243.167C241.575 66.9299 240.049 66.2978 238.924 65.1726C237.799 64.0474 237.167 62.5212 237.167 60.9299C237.167 59.3386 237.799 57.8125 238.924 56.6873C240.049 55.5621 241.575 54.9299 243.167 54.9299H243.437C244.43 54.9067 245.393 54.5853 246.201 54.0075C247.008 53.4296 247.624 52.6221 247.967 51.6899C248.366 50.7851 248.485 49.7814 248.309 48.8082C248.132 47.835 247.668 46.937 246.977 46.2299L246.797 46.0499C246.239 45.4927 245.796 44.831 245.494 44.1026C245.192 43.3742 245.037 42.5934 245.037 41.8049C245.037 41.0164 245.192 40.2357 245.494 39.5073C245.796 38.7789 246.239 38.1172 246.797 37.5599C247.354 37.0021 248.016 36.5595 248.744 36.2576C249.472 35.9556 250.253 35.8002 251.042 35.8002C251.83 35.8002 252.611 35.9556 253.339 36.2576C254.068 36.5595 254.729 37.0021 255.287 37.5599L255.467 37.7399C256.174 38.4316 257.072 38.8955 258.045 39.072C259.018 39.2484 260.022 39.1293 260.927 38.7299H261.167C262.054 38.3497 262.811 37.7182 263.344 36.9133C263.877 36.1085 264.163 35.1653 264.167 34.1999V33.6899C264.167 32.0986 264.799 30.5725 265.924 29.4473C267.049 28.3221 268.575 27.6899 270.167 27.6899C271.758 27.6899 273.284 28.3221 274.409 29.4473C275.534 30.5725 276.167 32.0986 276.167 33.6899V33.9599C276.17 34.9253 276.457 35.8685 276.99 36.6733C277.523 37.4782 278.279 38.1097 279.167 38.4899C280.071 38.8893 281.075 39.0084 282.048 38.832C283.022 38.6555 283.92 38.1916 284.627 37.4999L284.807 37.3199C285.364 36.7621 286.026 36.3195 286.754 36.0176C287.482 35.7156 288.263 35.5602 289.052 35.5602C289.84 35.5602 290.621 35.7156 291.349 36.0176C292.078 36.3195 292.739 36.7621 293.297 37.3199C293.854 37.8772 294.297 38.5389 294.599 39.2673C294.901 39.9957 295.056 40.7764 295.056 41.5649C295.056 42.3534 294.901 43.1342 294.599 43.8626C294.297 44.591 293.854 45.2527 293.297 45.8099L293.117 45.9899C292.425 46.697 291.961 47.595 291.785 48.5682C291.608 49.5414 291.727 50.5451 292.127 51.4499V51.6899C292.507 52.5772 293.138 53.334 293.943 53.867C294.748 54.4 295.691 54.6861 296.657 54.6899H297.167C298.758 54.6899 300.284 55.3221 301.409 56.4473C302.534 57.5725 303.167 59.0986 303.167 60.6899C303.167 62.2812 302.534 63.8074 301.409 64.9326C300.284 66.0578 298.758 66.6899 297.167 66.6899H296.897C295.931 66.6938 294.988 66.9798 294.183 67.5129C293.378 68.0459 292.747 68.8026 292.367 69.6899Z" stroke="url(#paint5_linear_430_476)" stroke-width="6" stroke-linecap="round" stroke-linejoin="round"/>
</g>
<rect x="210.667" y="1.18994" width="119" height="119" rx="23.5" stroke="#F1F5F9" shape-rendering="crispEdges"/>
</g>
<path d="M376.333 67.3567L383 60.69L376.333 54.0234" stroke="#CBD5E1" stroke-width="3" stroke-linecap="round" stroke-linejoin="round"/>
<path d="M367 67.3567L373.667 60.69L367 54.0234" stroke="#CBD5E1" stroke-width="3" stroke-linecap="round" stroke-linejoin="round"/>
<g filter="url(#filter2_d_430_476)">
<rect x="419.833" y="0.689941" width="120" height="120" rx="24" fill="white" shape-rendering="crispEdges"/>
<path d="M479.833 84.6899V54.6899" stroke="url(#paint6_linear_430_476)" stroke-width="6" stroke-linecap="round" stroke-linejoin="round"/>
<path d="M497.833 84.6899V36.6899" stroke="url(#paint7_linear_430_476)" stroke-width="6" stroke-linecap="round" stroke-linejoin="round"/>
<path d="M461.833 84.6899V72.6899" stroke="url(#paint8_linear_430_476)" stroke-width="6" stroke-linecap="round" stroke-linejoin="round"/>
<rect x="420.333" y="1.18994" width="119" height="119" rx="23.5" stroke="#F1F5F9" shape-rendering="crispEdges"/>
</g>
<path d="M586 67.3567L592.667 60.69L586 54.0234" stroke="#CBD5E1" stroke-width="3" stroke-linecap="round" stroke-linejoin="round"/>
<path d="M576.667 67.3567L583.333 60.69L576.667 54.0234" stroke="#CBD5E1" stroke-width="3" stroke-linecap="round" stroke-linejoin="round"/>
<g filter="url(#filter3_d_430_476)">
<rect x="629.5" y="0.689941" width="120" height="120" rx="24" fill="white" shape-rendering="crispEdges"/>
<path d="M662.5 42.6899H668.5H716.5" stroke="url(#paint9_linear_430_476)" stroke-width="6" stroke-linecap="round" stroke-linejoin="round"/>
<path d="M710.5 42.6899V84.6899C710.5 86.2812 709.868 87.8074 708.743 88.9326C707.617 90.0578 706.091 90.6899 704.5 90.6899H674.5C672.909 90.6899 671.383 90.0578 670.257 88.9326C669.132 87.8074 668.5 86.2812 668.5 84.6899V42.6899M677.5 42.6899V36.6899C677.5 35.0986 678.132 33.5725 679.257 32.4473C680.383 31.3221 681.909 30.6899 683.5 30.6899H695.5C697.091 30.6899 698.617 31.3221 699.743 32.4473C700.868 33.5725 701.5 35.0986 701.5 36.6899V42.6899" stroke="url(#paint10_linear_430_476)" stroke-width="6" stroke-linecap="round" stroke-linejoin="round"/>
<path d="M683.5 57.6899V75.6899" stroke="url(#paint11_linear_430_476)" stroke-width="6" stroke-linecap="round" stroke-linejoin="round"/>
<path d="M695.5 57.6899V75.6899" stroke="url(#paint12_linear_430_476)" stroke-width="6" stroke-linecap="round" stroke-linejoin="round"/>
<rect x="630" y="1.18994" width="119" height="119" rx="23.5" stroke="#F1F5F9" shape-rendering="crispEdges"/>
</g>
<defs>
<filter id="filter0_d_430_476" x="0.5" y="0.689941" width="128" height="128" filterUnits="userSpaceOnUse" color-interpolation-filters="sRGB">
<feFlood flood-opacity="0" result="BackgroundImageFix"/>
<feColorMatrix in="SourceAlpha" type="matrix" values="0 0 0 0 0 0 0 0 0 0 0 0 0 0 0 0 0 0 127 0" result="hardAlpha"/>
<feOffset dx="4" dy="4"/>
<feGaussianBlur stdDeviation="2"/>
<feComposite in2="hardAlpha" operator="out"/>
<feColorMatrix type="matrix" values="0 0 0 0 0 0 0 0 0 0 0 0 0 0 0 0 0 0 0.04 0"/>
<feBlend mode="normal" in2="BackgroundImageFix" result="effect1_dropShadow_430_476"/>
<feBlend mode="normal" in="SourceGraphic" in2="effect1_dropShadow_430_476" result="shape"/>
</filter>
<filter id="filter1_d_430_476" x="210.167" y="0.689941" width="128" height="128" filterUnits="userSpaceOnUse" color-interpolation-filters="sRGB">
<feFlood flood-opacity="0" result="BackgroundImageFix"/>
<feColorMatrix in="SourceAlpha" type="matrix" values="0 0 0 0 0 0 0 0 0 0 0 0 0 0 0 0 0 0 127 0" result="hardAlpha"/>
<feOffset dx="4" dy="4"/>
<feGaussianBlur stdDeviation="2"/>
<feComposite in2="hardAlpha" operator="out"/>
<feColorMatrix type="matrix" values="0 0 0 0 0 0 0 0 0 0 0 0 0 0 0 0 0 0 0.04 0"/>
<feBlend mode="normal" in2="BackgroundImageFix" result="effect1_dropShadow_430_476"/>
<feBlend mode="normal" in="SourceGraphic" in2="effect1_dropShadow_430_476" result="shape"/>
</filter>
<filter id="filter2_d_430_476" x="419.833" y="0.689941" width="128" height="128" filterUnits="userSpaceOnUse" color-interpolation-filters="sRGB">
<feFlood flood-opacity="0" result="BackgroundImageFix"/>
<feColorMatrix in="SourceAlpha" type="matrix" values="0 0 0 0 0 0 0 0 0 0 0 0 0 0 0 0 0 0 127 0" result="hardAlpha"/>
<feOffset dx="4" dy="4"/>
<feGaussianBlur stdDeviation="2"/>
<feComposite in2="hardAlpha" operator="out"/>
<feColorMatrix type="matrix" values="0 0 0 0 0 0 0 0 0 0 0 0 0 0 0 0 0 0 0.04 0"/>
<feBlend mode="normal" in2="BackgroundImageFix" result="effect1_dropShadow_430_476"/>
<feBlend mode="normal" in="SourceGraphic" in2="effect1_dropShadow_430_476" result="shape"/>
</filter>
<filter id="filter3_d_430_476" x="629.5" y="0.689941" width="128" height="128" filterUnits="userSpaceOnUse" color-interpolation-filters="sRGB">
<feFlood flood-opacity="0" result="BackgroundImageFix"/>
<feColorMatrix in="SourceAlpha" type="matrix" values="0 0 0 0 0 0 0 0 0 0 0 0 0 0 0 0 0 0 127 0" result="hardAlpha"/>
<feOffset dx="4" dy="4"/>
<feGaussianBlur stdDeviation="2"/>
<feComposite in2="hardAlpha" operator="out"/>
<feColorMatrix type="matrix" values="0 0 0 0 0 0 0 0 0 0 0 0 0 0 0 0 0 0 0.04 0"/>
<feBlend mode="normal" in2="BackgroundImageFix" result="effect1_dropShadow_430_476"/>
<feBlend mode="normal" in="SourceGraphic" in2="effect1_dropShadow_430_476" result="shape"/>
</filter>
<linearGradient id="paint0_linear_430_476" x1="42.388" y1="59.9417" x2="46.2552" y2="80.0422" gradientUnits="userSpaceOnUse">
<stop stop-color="#12D790"/>
<stop offset="1" stop-color="#12BFD7"/>
</linearGradient>
<linearGradient id="paint1_linear_430_476" x1="60.2453" y1="59.0064" x2="64.7182" y2="59.437" gradientUnits="userSpaceOnUse">
<stop stop-color="#12D790"/>
<stop offset="1" stop-color="#12BFD7"/>
</linearGradient>
<linearGradient id="paint2_linear_430_476" x1="10.6749" y1="30.8189" x2="30.7963" y2="105.591" gradientUnits="userSpaceOnUse">
<stop stop-color="#12D790"/>
<stop offset="1" stop-color="#12BFD7"/>
</linearGradient>
<linearGradient id="paint3_linear_430_476" x1="42.388" y1="59.9417" x2="46.2552" y2="80.0422" gradientUnits="userSpaceOnUse">
<stop stop-color="#12D790"/>
<stop offset="1" stop-color="#12BFD7"/>
</linearGradient>
<linearGradient id="paint4_linear_430_476" x1="256.583" y1="50.5676" x2="267.062" y2="77.8021" gradientUnits="userSpaceOnUse">
<stop stop-color="#12D790"/>
<stop offset="1" stop-color="#12BFD7"/>
</linearGradient>
<linearGradient id="paint5_linear_430_476" x1="220.359" y1="23.5747" x2="258.783" y2="123.435" gradientUnits="userSpaceOnUse">
<stop stop-color="#12D790"/>
<stop offset="1" stop-color="#12BFD7"/>
</linearGradient>
<linearGradient id="paint6_linear_430_476" x1="479.579" y1="52.8194" x2="484.059" y2="53.2075" gradientUnits="userSpaceOnUse">
<stop stop-color="#12D790"/>
<stop offset="1" stop-color="#12BFD7"/>
</linearGradient>
<linearGradient id="paint7_linear_430_476" x1="497.579" y1="33.6971" x2="502.08" y2="33.9408" gradientUnits="userSpaceOnUse">
<stop stop-color="#12D790"/>
<stop offset="1" stop-color="#12BFD7"/>
</linearGradient>
<linearGradient id="paint8_linear_430_476" x1="461.579" y1="71.9417" x2="465.891" y2="72.8756" gradientUnits="userSpaceOnUse">
<stop stop-color="#12D790"/>
<stop offset="1" stop-color="#12BFD7"/>
</linearGradient>
<linearGradient id="paint9_linear_430_476" x1="648.748" y1="42.6276" x2="648.76" y2="44.3645" gradientUnits="userSpaceOnUse">
<stop stop-color="#12D790"/>
<stop offset="1" stop-color="#12BFD7"/>
</linearGradient>
<linearGradient id="paint10_linear_430_476" x1="657.804" y1="26.9488" x2="701.8" y2="106.987" gradientUnits="userSpaceOnUse">
<stop stop-color="#12D790"/>
<stop offset="1" stop-color="#12BFD7"/>
</linearGradient>
<linearGradient id="paint11_linear_430_476" x1="683.245" y1="56.5676" x2="687.668" y2="57.2061" gradientUnits="userSpaceOnUse">
<stop stop-color="#12D790"/>
<stop offset="1" stop-color="#12BFD7"/>
</linearGradient>
<linearGradient id="paint12_linear_430_476" x1="695.245" y1="56.5676" x2="699.668" y2="57.2061" gradientUnits="userSpaceOnUse">
<stop stop-color="#12D790"/>
<stop offset="1" stop-color="#12BFD7"/>
</linearGradient>
<clipPath id="clip0_430_476">
<rect width="72" height="72" fill="white" transform="translate(24.5 24.6899)"/>
</clipPath>
<clipPath id="clip1_430_476">
<rect width="72" height="72" fill="white" transform="translate(234.167 24.6899)"/>
</clipPath>
</defs>
</svg>
