<svg width="136" height="136" viewBox="0 0 136 136" fill="none" xmlns="http://www.w3.org/2000/svg">
<g filter="url(#filter0_d_18_1146)">
<rect width="128" height="128" rx="16" fill="white" shape-rendering="crispEdges"/>
<path d="M64 104C86.0914 104 104 86.0914 104 64C104 41.9086 86.0914 24 64 24C41.9086 24 24 41.9086 24 64C24 86.0914 41.9086 104 64 104Z" stroke="#00DF5A" stroke-width="5" stroke-linecap="round" stroke-linejoin="round"/>
<path d="M35.72 35.72L92.28 92.28" stroke="#00DF5A" stroke-width="5" stroke-linecap="round" stroke-linejoin="round"/>
<path d="M82.6667 88H45.3333C43.9188 88 42.5623 87.4381 41.5621 86.4379C40.5619 85.4377 40 84.0812 40 82.6667V45.3333C40 43.9188 40.5619 42.5623 41.5621 41.5621C42.5623 40.5619 43.9188 40 45.3333 40H74.6667L88 53.3333V82.6667C88 84.0812 87.4381 85.4377 86.4379 86.4379C85.4377 87.4381 84.0812 88 82.6667 88Z" stroke="#00DF5A" stroke-width="5" stroke-linecap="round" stroke-linejoin="round"/>
<path d="M77.3333 88V66.6666H50.6666V88" stroke="#00DF5A" stroke-width="5" stroke-linecap="round" stroke-linejoin="round"/>
<path d="M50.6666 40V53.3333H72" stroke="#00DF5A" stroke-width="5" stroke-linecap="round" stroke-linejoin="round"/>
<rect x="0.5" y="0.5" width="127" height="127" rx="15.5" stroke="black" stroke-opacity="0.08" shape-rendering="crispEdges"/>
</g>
<defs>
<filter id="filter0_d_18_1146" x="0" y="0" width="136" height="136" filterUnits="userSpaceOnUse" color-interpolation-filters="sRGB">
<feFlood flood-opacity="0" result="BackgroundImageFix"/>
<feColorMatrix in="SourceAlpha" type="matrix" values="0 0 0 0 0 0 0 0 0 0 0 0 0 0 0 0 0 0 127 0" result="hardAlpha"/>
<feOffset dx="4" dy="4"/>
<feGaussianBlur stdDeviation="2"/>
<feComposite in2="hardAlpha" operator="out"/>
<feColorMatrix type="matrix" values="0 0 0 0 0 0 0 0 0 0 0 0 0 0 0 0 0 0 0.05 0"/>
<feBlend mode="normal" in2="BackgroundImageFix" result="effect1_dropShadow_18_1146"/>
<feBlend mode="normal" in="SourceGraphic" in2="effect1_dropShadow_18_1146" result="shape"/>
</filter>
</defs>
</svg>
