<svg width="17" height="16" viewBox="0 0 17 16" fill="none" xmlns="http://www.w3.org/2000/svg">
<g clip-path="url(#clip0_372_408)">
<path d="M8.5 10C9.60457 10 10.5 9.10457 10.5 8C10.5 6.89543 9.60457 6 8.5 6C7.39543 6 6.5 6.89543 6.5 8C6.5 9.10457 7.39543 10 8.5 10Z" stroke="#94A3B8" stroke-linecap="round" stroke-linejoin="round"/>
<path d="M13.4337 9.99996C13.3449 10.201 13.3184 10.4241 13.3577 10.6404C13.3969 10.8566 13.5 11.0562 13.6537 11.2133L13.6937 11.2533C13.8176 11.3771 13.916 11.5242 13.9831 11.686C14.0502 11.8479 14.0847 12.0214 14.0847 12.1966C14.0847 12.3718 14.0502 12.5453 13.9831 12.7072C13.916 12.8691 13.8176 13.0161 13.6937 13.14C13.5698 13.2639 13.4228 13.3623 13.2609 13.4294C13.099 13.4965 12.9255 13.531 12.7503 13.531C12.5751 13.531 12.4016 13.4965 12.2397 13.4294C12.0779 13.3623 11.9308 13.2639 11.807 13.14L11.767 13.1C11.6099 12.9463 11.4103 12.8432 11.1941 12.804C10.9778 12.7647 10.7547 12.7912 10.5537 12.88C10.3565 12.9645 10.1883 13.1048 10.0699 13.2836C9.95141 13.4625 9.88785 13.6721 9.88699 13.8866V14C9.88699 14.3536 9.74652 14.6927 9.49647 14.9428C9.24642 15.1928 8.90728 15.3333 8.55366 15.3333C8.20004 15.3333 7.8609 15.1928 7.61085 14.9428C7.3608 14.6927 7.22033 14.3536 7.22033 14V13.94C7.21516 13.7193 7.14374 13.5053 7.01533 13.3258C6.88693 13.1462 6.70748 13.0095 6.50033 12.9333C6.29925 12.8445 6.0762 12.8181 5.85993 12.8573C5.64367 12.8965 5.44411 12.9996 5.28699 13.1533L5.24699 13.1933C5.12316 13.3173 4.97611 13.4156 4.81425 13.4827C4.65238 13.5498 4.47888 13.5843 4.30366 13.5843C4.12844 13.5843 3.95494 13.5498 3.79307 13.4827C3.63121 13.4156 3.48416 13.3173 3.36033 13.1933C3.23636 13.0695 3.13801 12.9224 3.07091 12.7605C3.00381 12.5987 2.96928 12.4252 2.96928 12.25C2.96928 12.0747 3.00381 11.9012 3.07091 11.7394C3.13801 11.5775 3.23636 11.4305 3.36033 11.3066L3.40033 11.2666C3.55402 11.1095 3.65712 10.9099 3.69633 10.6937C3.73554 10.4774 3.70907 10.2544 3.62033 10.0533C3.53582 9.85611 3.3955 9.68795 3.21664 9.5695C3.03778 9.45105 2.82818 9.38748 2.61366 9.38663H2.50033C2.1467 9.38663 1.80757 9.24615 1.55752 8.9961C1.30747 8.74605 1.16699 8.40691 1.16699 8.05329C1.16699 7.69967 1.30747 7.36053 1.55752 7.11048C1.80757 6.86044 2.1467 6.71996 2.50033 6.71996H2.56033C2.78099 6.7148 2.995 6.64337 3.17453 6.51497C3.35405 6.38656 3.4908 6.20712 3.56699 5.99996C3.65574 5.79888 3.68221 5.57583 3.643 5.35957C3.60378 5.1433 3.50068 4.94375 3.34699 4.78663L3.30699 4.74663C3.18302 4.6228 3.08468 4.47574 3.01758 4.31388C2.95048 4.15202 2.91594 3.97851 2.91594 3.80329C2.91594 3.62807 2.95048 3.45457 3.01758 3.29271C3.08468 3.13084 3.18302 2.98379 3.30699 2.85996C3.43082 2.73599 3.57787 2.63765 3.73974 2.57055C3.9016 2.50345 4.0751 2.46891 4.25033 2.46891C4.42555 2.46891 4.59905 2.50345 4.76091 2.57055C4.92278 2.63765 5.06983 2.73599 5.19366 2.85996L5.23366 2.89996C5.39078 3.05365 5.59034 3.15675 5.8066 3.19596C6.02286 3.23517 6.24592 3.2087 6.44699 3.11996H6.50033C6.69751 3.03545 6.86567 2.89513 6.98412 2.71627C7.10257 2.53741 7.16614 2.32782 7.16699 2.11329V1.99996C7.16699 1.64634 7.30747 1.3072 7.55752 1.05715C7.80757 0.807102 8.1467 0.666626 8.50033 0.666626C8.85395 0.666626 9.19309 0.807102 9.44313 1.05715C9.69318 1.3072 9.83366 1.64634 9.83366 1.99996V2.05996C9.83451 2.27448 9.89808 2.48408 10.0165 2.66294C10.135 2.8418 10.3031 2.98212 10.5003 3.06663C10.7014 3.15537 10.9245 3.18184 11.1407 3.14263C11.357 3.10342 11.5565 3.00032 11.7137 2.84663L11.7537 2.80663C11.8775 2.68266 12.0245 2.58431 12.1864 2.51721C12.3483 2.45011 12.5218 2.41558 12.697 2.41558C12.8722 2.41558 13.0457 2.45011 13.2076 2.51721C13.3694 2.58431 13.5165 2.68266 13.6403 2.80663C13.7643 2.93046 13.8626 3.07751 13.9297 3.23937C13.9968 3.40124 14.0314 3.57474 14.0314 3.74996C14.0314 3.92518 13.9968 4.09868 13.9297 4.26055C13.8626 4.42241 13.7643 4.56946 13.6403 4.69329L13.6003 4.73329C13.4466 4.89041 13.3435 5.08997 13.3043 5.30623C13.2651 5.5225 13.2916 5.74555 13.3803 5.94663V5.99996C13.4648 6.19714 13.6052 6.3653 13.784 6.48375C13.9629 6.60221 14.1725 6.66577 14.387 6.66663H14.5003C14.8539 6.66663 15.1931 6.8071 15.4431 7.05715C15.6932 7.3072 15.8337 7.64634 15.8337 7.99996C15.8337 8.35358 15.6932 8.69272 15.4431 8.94277C15.1931 9.19282 14.8539 9.33329 14.5003 9.33329H14.4403C14.2258 9.33415 14.0162 9.39771 13.8373 9.51616C13.6585 9.63461 13.5182 9.80278 13.4337 9.99996Z" stroke="#94A3B8" stroke-linecap="round" stroke-linejoin="round"/>
</g>
<defs>
<clipPath id="clip0_372_408">
<rect width="16" height="16" fill="white" transform="translate(0.5)"/>
</clipPath>
</defs>
</svg>
