<svg width="156" height="177" viewBox="0 0 156 177" fill="none" xmlns="http://www.w3.org/2000/svg">
<path d="M66.0152 33.5458C66.0152 33.5458 27.9468 39.4896 30.8335 93.6188C30.844 93.8195 26.4319 96.7425 26.0863 97.0548C23.0098 99.8313 20.4286 103.387 19.2998 107.547C15.2805 122.359 29.6505 137.622 41.271 141.673C45.6115 143.186 50.1995 143.92 54.7964 144.054C84.6801 144.922 124.245 125.969 126.277 88.9552C126.349 87.6271 126.367 86.2977 126.333 84.9713C126.153 77.9432 124.453 71.0985 121.891 64.7433C121.892 64.7435 105.261 23.5787 66.0152 33.5458Z" fill="#E2BA87"/>
<g style="mix-blend-mode:multiply" opacity="0.5">
<path d="M29.8721 94.1849C30.2833 95.1929 30.6936 96.4809 30.808 97.2177C31.2962 100.378 30.2115 103.642 28.3294 105.989C26.5424 108.218 23.9913 109.665 21.5216 110.211C20.6878 110.396 19.6783 110.491 18.7954 110.521C19.7298 101.368 27.1935 95.8712 29.8721 94.1849Z" fill="#FCC3B8"/>
</g>
<g style="mix-blend-mode:multiply" opacity="0.5">
<path d="M83.5228 118.248C76.4563 116.735 72.0737 109.3 73.7339 101.643C75.3941 93.9855 82.4685 89.0052 89.535 90.5188C96.6015 92.0325 100.984 99.467 99.324 107.124C97.6638 114.781 90.5894 119.762 83.5228 118.248Z" fill="#FCC3B8"/>
</g>
<path opacity="0.3" d="M48.9132 96.8347C48.9132 96.8347 42.8744 91.1012 38.1993 96.4917L48.9132 96.8347Z" fill="#8B5E3C"/>
<path d="M105.211 125.095C125.779 135.349 143.895 110.491 137.735 96.317C133.805 87.2758 122.76 86.441 116.499 94.5785C112.804 99.3811 109.851 105.542 108.213 111.45" fill="#E2BA87"/>
<path opacity="0.3" d="M121.684 102.894C119.104 105.473 117.059 109.319 114.503 111.448C114.924 107.839 115.626 103.988 117.367 100.753C119.135 97.4667 122.404 94.782 125.78 95.048C129.964 95.378 133.483 100.185 133.995 104.511C133.689 101.922 128.347 100.107 126.323 100.327C123.242 106.146 122.199 117.678 122.199 117.678C119.448 111.109 120.436 105.981 121.684 102.894Z" fill="#8B5E3C"/>
<path d="M126.152 85.055C126.187 86.3827 126.169 87.7135 126.096 89.0429C115.088 90.9128 109.875 102.71 108.644 108.375C108.644 108.375 105.369 108.567 104.598 107.941C100.553 105.823 93.3566 97.1356 96.9401 79.3378C98.6741 71.248 97.5181 64.8068 83.3574 54.7793C69.1967 44.7518 46.6553 51.0233 42.0314 54.7793C38.3323 57.7841 36.5593 58.9206 36.1351 59.1132C46.0088 36.7093 65.9903 33.5783 65.9903 33.5783C107.777 22.9977 121.798 64.3986 121.938 64.7472C124.493 71.1088 125.973 78.0199 126.152 85.055Z" fill="#21625A"/>
<path d="M83.3574 32.2431C65.4398 33.2832 56.0475 44.8113 53.5911 50.4453C51.2792 61.0777 39.2378 66.1435 33.5061 67.3473C31.5409 74.1659 31.0496 88.1017 31.0496 94.0728C25.6165 96.962 22.3316 101.248 21.3683 103.174C22.6688 97.9733 21.0793 96.5287 20.0679 90.4613C19.0564 84.3939 26.2812 76.304 28.7377 73.1258C31.1941 69.9477 27.0037 59.113 29.4602 53.3345C31.9166 47.556 39.8639 42.4999 44.0543 42.0665C48.2447 41.6331 48.1002 35.8546 60.3824 30.9429C70.2082 27.0136 79.7932 30.1725 83.3574 32.2431Z" fill="#238D81"/>
<path d="M18.9119 114.442C19.2587 118.834 21.8018 124.314 22.9578 126.432C27.8638 133.829 35.1167 138.856 37.9855 140.301C29.2001 146.079 18.6711 143.527 14.7215 141.745C15.2995 141.264 16.6 139.694 17.1779 137.267C17.9004 134.233 12.9875 129.899 13.5655 124.41C14.0279 120.018 17.3224 115.935 18.9119 114.442Z" fill="#238D81"/>
<mask id="mask0_68_990" style="mask-type:alpha" maskUnits="userSpaceOnUse" x="13" y="29" width="71" height="115">
<path d="M83.3574 32.2431C65.4398 33.2832 56.0475 44.8113 53.5911 50.4453C51.2792 61.0777 39.2378 66.1435 33.5061 67.3473C31.5409 74.1659 31.0496 88.1017 31.0496 94.0728C25.6165 96.9621 22.3316 101.248 21.3683 103.174C22.6688 97.9733 21.0793 96.5287 20.0679 90.4613C19.0564 84.3939 26.2812 76.304 28.7377 73.1258C31.1941 69.9477 27.0037 59.113 29.4602 53.3345C31.9166 47.556 39.8639 42.4999 44.0543 42.0665C48.2447 41.6331 48.1002 35.8546 60.3824 30.9429C70.2082 27.0136 79.7932 30.1725 83.3574 32.2431Z" fill="#238D81"/>
<path d="M18.9119 114.442C19.2587 118.834 21.8018 124.314 22.9578 126.432C27.8638 133.829 35.1167 138.856 37.9855 140.301C29.2001 146.079 18.6711 143.527 14.7215 141.745C15.2995 141.264 16.6 139.694 17.1779 137.267C17.9004 134.233 12.9875 129.899 13.5655 124.41C14.0279 120.018 17.3224 115.935 18.9119 114.442Z" fill="#238D81"/>
</mask>
<g mask="url(#mask0_68_990)">
<path d="M44.9213 57.8128C48.5048 55.0391 50.8456 50.3008 51.5681 48.2783C50.5566 50.1642 46.9442 54.7114 40.5864 57.8128C34.2285 60.9142 31.8684 64.402 31.4831 65.7582C33.795 61.5688 40.4419 61.2799 44.9213 57.8128Z" fill="#DCDCDC" style="mix-blend-mode:multiply"/>
<path d="M24.1137 92.1948C23.8825 89.6522 24.6917 86.4163 25.1252 85.1161C25.1252 86.5126 25.2697 89.8834 25.8477 92.1948C26.4257 94.5062 27.9188 96.336 28.5931 96.962L24.1137 99.8513C25.9922 97.2509 24.4027 95.3729 24.1137 92.1948Z" fill="#DCDCDC" style="mix-blend-mode:multiply"/>
<path d="M17.4669 128.31C16.1953 125.537 16.9371 122.917 17.4669 121.954C17.4669 127.588 19.7788 127.443 22.0908 132.066C24.4027 136.689 22.6688 141.312 24.1137 140.59C25.2697 140.012 25.7514 138.615 25.8477 137.989C26.4257 141.572 25.6069 144.49 25.1252 145.501C21.0793 145.964 18.3339 143.575 17.4669 142.323C21.0793 136.978 19.0564 131.777 17.4669 128.31Z" fill="#DCDCDC" style="mix-blend-mode:multiply"/>
</g>
<path d="M52.024 104.198C41.7175 104.857 35.346 104.198 33.2905 104.198C24.6347 102.9 20.9354 118.192 31.8011 126.215C35.0451 128.611 36.6449 128.238 43.5728 128.238C50.5075 128.238 58.0036 130.824 62.1912 129.643C74.0614 126.296 76.1459 117.694 75.0807 112.961C73.6396 106.557 70.7067 103.002 52.024 104.198Z" fill="white"/>
<mask id="mask1_68_990" style="mask-type:alpha" maskUnits="userSpaceOnUse" x="25" y="103" width="51" height="27">
<path d="M52.024 104.198C41.7175 104.857 35.346 104.198 33.2905 104.198C24.6347 102.9 20.9354 118.192 31.8011 126.215C35.0451 128.611 36.6449 128.238 43.5728 128.238C50.5075 128.238 58.0036 130.824 62.1912 129.643C74.0614 126.296 76.1459 117.694 75.0807 112.961C73.6396 106.557 70.7067 103.002 52.024 104.198Z" fill="white"/>
</mask>
<g mask="url(#mask1_68_990)">
<path fill-rule="evenodd" clip-rule="evenodd" d="M71.0463 130.839L66.0088 99.8163L64.2993 100.094L69.3368 131.117L71.0463 130.839ZM48.7035 134.958L47.469 103.296L45.7384 103.364L46.9729 135.025L48.7035 134.958ZM29.4179 126.35L33.3516 101.404L31.6408 101.134L27.7072 126.08L29.4179 126.35Z" fill="#D1D3D4"/>
</g>
<path d="M55.5725 89.8177C59.6809 86.9496 64.4878 87.3215 67.0259 88.0435C67.2255 88.1003 67.388 87.8516 67.2462 87.7002C61.4793 81.5456 57.085 85.9692 55.2712 89.575C55.178 89.7604 55.4024 89.9364 55.5725 89.8177Z" fill="#2A1200"/>
<path d="M32.5651 87.6605C32.5696 89.9605 33.6099 92.4305 36.2719 92.1466C38.506 91.9083 39.0763 88.9733 39.0735 87.5284C39.0686 85.0012 37.8033 82.6136 35.9575 82.6101C33.9724 82.6063 32.5606 85.3606 32.5651 87.6605Z" fill="#2A1200"/>
<path d="M57.2508 69.8659C61.2006 69.223 65.4331 70.7 68.2743 73.6959C69.1904 74.6619 69.4468 76.3751 68.4895 77.4658C67.6053 78.4748 65.9966 78.7835 65.0161 77.7482C64.7221 77.4378 64.4153 77.1437 64.0898 76.8711C63.9886 76.7862 63.7076 76.6355 63.6191 76.5102C63.5698 76.4776 63.5216 76.4451 63.4712 76.4135C63.1609 76.218 62.8419 76.039 62.5152 75.8767C62.328 75.7839 62.1391 75.6978 61.9478 75.6162C61.8875 75.5908 61.827 75.5665 61.7655 75.5422C61.5975 75.513 61.4048 75.422 61.2517 75.3802C61.0519 75.3255 60.8516 75.2776 60.6488 75.2353C60.2952 75.1617 59.938 75.1061 59.5793 75.07C59.5289 75.065 59.4795 75.0611 59.4291 75.0572C59.2356 75.0581 59.0424 75.0545 58.8484 75.0623C58.4358 75.0795 58.0252 75.1255 57.6163 75.1913C56.34 75.3995 55.0164 74.1419 54.9783 72.7607C54.9384 71.2403 55.8835 70.0889 57.2508 69.8659Z" fill="#2A1200"/>
<path d="M30.7336 74.4062C32.1679 72.4309 34.2754 71.1347 36.5489 70.7585C37.1626 70.657 37.8789 70.8924 38.3575 71.3022C38.8291 71.7058 39.225 72.4172 39.2661 73.0814C39.3085 73.7709 39.1725 74.5109 38.7422 75.0532C38.3061 75.603 37.7588 75.9521 37.0926 76.0633C36.9834 76.0812 36.8774 76.112 36.7687 76.1357C36.4483 76.2462 36.1384 76.3829 35.8363 76.5432C35.4925 76.7761 35.1706 77.0406 34.8695 77.3366C34.7715 77.4542 34.6676 77.5668 34.5764 77.6919C34.1833 78.2324 33.5528 78.6176 32.9268 78.702C32.3274 78.7827 31.5814 78.5899 31.1183 78.1571C30.6385 77.7092 30.2536 77.0883 30.2097 76.3779C30.1656 75.6698 30.3179 74.9783 30.7336 74.4062Z" fill="#2A1200"/>
<path fill-rule="evenodd" clip-rule="evenodd" d="M109.262 90.732C102.724 93.3891 96.1415 97.2146 92.0712 99.9303L92.8719 101.132C96.8852 98.4547 103.381 94.6815 109.805 92.0705C113.019 90.7647 116.188 89.7605 119.004 89.3215C121.838 88.8797 124.214 89.0264 125.919 89.9054L126.58 88.6211C124.474 87.5354 121.733 87.4341 118.782 87.894C115.814 88.3567 112.531 89.4039 109.262 90.732ZM92.7926 126.071C91.9842 125.857 91.1246 125.628 90.189 125.399L89.8462 126.803C90.7035 127.012 91.5191 127.229 92.3058 127.438C94.4258 128.001 96.3353 128.508 98.282 128.674C101.018 128.906 103.848 128.477 107.638 126.759L107.042 125.443C103.441 127.076 100.857 127.442 98.4041 127.234C96.5923 127.08 94.8599 126.62 92.7926 126.071Z" fill="white"/>
<path d="M43.5364 92.7304C63.8611 92.6148 84.6285 97.2087 92.4716 99.5201C88.4297 106.454 86.9862 116.711 91.028 127.112C77.7772 134.624 46.6187 146.355 27.9908 133.18C24.6502 129.766 20.8278 124.27 18.9967 116.711C16.2251 105.27 25.6368 96.8235 30.6891 94.0306C33.4607 93.5683 38.9172 92.7567 43.5364 92.7304Z" fill="#F7F7F7"/>
<path d="M94.0594 100.676C93.3666 99.52 90.3063 98.6051 88.5741 98.5088C87.708 99.3756 85.918 103.449 85.6871 112.811C85.3984 124.512 87.708 127.835 87.9967 128.557C88.2111 129.093 92.0385 127.112 92.9046 126.679C93.7707 126.245 93.7707 125.379 92.9046 123.501C91.0411 119.46 92.0385 107.754 92.9046 105.154C93.5975 103.074 93.7707 101.446 94.0594 100.676Z" fill="#EDEDED"/>
<path d="M37.0406 102.265C47.2029 100.878 67.6431 107.466 76.5929 110.933C43.5653 102.612 24.1452 107.466 18.5636 110.933C20.4883 108.621 26.8783 103.652 37.0406 102.265Z" fill="#EDEDED"/>
<path d="M65.0448 119.311C57.5385 122.875 38.6573 128.326 23.1829 121.623C30.4004 127.401 48.8774 135.029 65.0448 119.311Z" fill="#EDEDED"/>
</svg>
