<svg width="160" height="161" viewBox="0 0 160 161" fill="none" xmlns="http://www.w3.org/2000/svg">
<path d="M91.5015 30.8456C91.5015 30.8456 126.162 36.2688 123.534 85.6578C123.524 85.8409 127.541 88.508 127.856 88.7929C130.657 91.3263 133.007 94.5709 134.035 98.3662C137.694 111.882 124.611 125.807 114.03 129.504C110.079 130.884 105.901 131.554 101.716 131.676C74.5074 132.468 38.4849 115.175 36.6347 81.4026C36.5685 80.1908 36.5521 78.9778 36.5833 77.7676C36.7473 71.3549 38.295 65.1097 40.6276 59.3109C40.6265 59.3112 55.7692 21.7513 91.5015 30.8456Z" fill="#A47539"/>
<g style="mix-blend-mode:multiply" opacity="0.5">
<path d="M124.41 86.1769C124.035 87.0967 123.661 88.2719 123.556 88.9442C123.11 91.8273 124.097 94.805 125.811 96.9459C127.438 98.9787 129.761 100.297 132.011 100.795C132.77 100.963 133.69 101.05 134.494 101.077C133.646 92.7265 126.849 87.7144 124.41 86.1769Z" fill="#FEB3A4"/>
</g>
<g style="mix-blend-mode:multiply" opacity="0.5">
<path d="M75.5567 108.126C81.993 106.743 85.9872 99.9595 84.478 92.975C82.9688 85.9906 76.5277 81.45 70.0914 82.8334C63.6551 84.2167 59.6609 91.0001 61.1701 97.9846C62.6793 104.969 69.1204 109.51 75.5567 108.126Z" fill="#FEB3A4"/>
</g>
<path opacity="0.3" d="M107.072 88.5918C107.072 88.5918 112.571 83.3605 116.827 88.2789L107.072 88.5918Z" fill="#633B1D"/>
<path d="M55.8059 114.665C37.5129 123.834 20.8987 100.825 26.2129 87.8947C29.6029 79.6471 39.4955 79.0085 45.2308 86.5446C48.6156 90.9923 51.3552 96.6771 52.9115 102.115" fill="#A47539"/>
<path opacity="0.3" d="M40.7293 94.1328C43.0844 96.5298 44.9781 100.085 47.3048 102.068C46.8736 98.7503 46.1862 95.2074 44.5744 92.2174C42.9379 89.1805 39.9628 86.6784 36.9346 86.8837C33.1817 87.1383 30.0933 91.5105 29.6975 95.475C29.9341 93.1025 34.704 91.4981 36.5249 91.7234C39.3781 97.1007 40.4861 107.698 40.4861 107.698C42.8591 101.699 41.8957 96.9808 40.7293 94.1328Z" fill="#633B1D"/>
<path d="M115.164 97.7206C115.959 98.1767 121.514 91.1987 125.213 93.3215C126.461 94.0382 127.414 95.2604 128.129 96.5814C129.701 99.4868 130.239 103.017 129.606 106.273C128.71 110.877 125.604 114.647 121.951 117.145C112.12 123.867 104.321 122.596 93.8291 118.705C85.5703 115.643 74.3177 109.34 76.6489 97.9673C80.7524 77.948 115.154 97.7148 115.164 97.7206Z" fill="#873C41"/>
<path d="M86.7036 96.4406C89.3752 98.0995 92.6282 98.2706 95.5457 97.6089C96.1036 97.4819 96.552 97.9506 96.6911 98.4892C98.1156 104.025 106.192 106.915 110.243 103.365C110.557 103.09 111.115 103.024 111.444 103.337C113.63 105.411 117.133 105.974 119.705 104.571C123.337 102.589 123.319 97.0198 122.33 93.1418C119.129 94.1199 115.768 98.067 115.164 97.7191C115.156 97.7142 94.0378 85.5838 82.9195 89.9599C83.1553 92.6484 84.3894 95.0034 86.7036 96.4406Z" fill="white"/>
<path d="M116.995 117.975C111.218 112.673 104.115 109.711 96.9136 107.61C90.7536 105.812 83.818 104.647 77.583 106.431C80.4723 112.634 87.9068 116.508 93.829 118.704C103.007 122.107 110.125 123.505 118.343 119.304C117.895 118.86 117.458 118.401 116.995 117.975Z" fill="#EE7E8B"/>
<mask id="mask0_68_808" style="mask-type:alpha" maskUnits="userSpaceOnUse" x="76" y="89" width="54" height="33">
<path d="M115.164 97.7206C115.959 98.1767 121.514 91.1987 125.213 93.3215C126.461 94.0382 127.414 95.2604 128.129 96.5814C129.701 99.4868 130.239 103.017 129.606 106.273C128.71 110.877 125.604 114.647 121.951 117.145C112.12 123.867 104.321 122.596 93.8291 118.705C85.5703 115.643 74.3176 109.34 76.6489 97.9673C80.7523 77.948 115.154 97.7148 115.164 97.7206Z" fill="#873C41"/>
</mask>
<g mask="url(#mask0_68_808)">
<path fill-rule="evenodd" clip-rule="evenodd" d="M83.4122 88.5212C83.5514 88.353 83.8006 88.3295 83.9687 88.4687C84.5705 88.9669 85.7218 89.6417 87.016 90.3358C88.181 90.9607 89.432 91.5858 90.4426 92.0908C90.5458 92.1424 90.6465 92.1927 90.7444 92.2416C94.8141 94.2772 101.085 96.4352 104.359 97.5618C104.559 97.6307 104.749 97.6958 104.925 97.7568C108.736 99.0714 113.423 100.501 118.487 100.503C119.215 100.46 119.74 100.396 120.301 100.238C120.869 100.077 121.491 99.8158 122.406 99.3584C122.601 99.2608 122.838 99.3399 122.936 99.5352C123.034 99.7305 122.954 99.968 122.759 100.066C121.829 100.531 121.155 100.818 120.516 100.999C119.872 101.18 119.28 101.248 118.521 101.293C118.514 101.293 118.506 101.294 118.498 101.294C113.29 101.294 108.495 99.8245 104.668 98.5043C104.489 98.4427 104.297 98.3767 104.094 98.3067C100.828 97.1832 94.5106 95.0094 90.3909 92.9489C90.2931 92.9 90.1923 92.8497 90.0889 92.798C89.0795 92.2936 87.8182 91.6633 86.6425 91.0327C85.3567 90.3431 84.1365 89.634 83.4647 89.0779C83.2966 88.9387 83.2731 88.6895 83.4122 88.5212Z" fill="#C4C4C4"/>
<rect width="3.16196" height="3.163" rx="1.58098" transform="matrix(0.998469 0.0553147 -0.0552781 0.998471 116.829 99.053)" fill="#A09E9E"/>
<rect width="3.16203" height="3.16294" rx="1.58102" transform="matrix(0.965904 0.258899 -0.258739 0.965947 103.507 96.1536)" fill="#A09E9E"/>
<rect width="3.16217" height="3.1628" rx="1.58108" transform="matrix(0.896029 0.443995 -0.443759 0.896146 89.8632 90.6184)" fill="#A09E9E"/>
</g>
<path d="M91.4648 30.6795C91.4648 30.6795 126.127 36.1121 123.498 85.5863C123.489 85.7697 127.506 88.4413 127.821 88.7268C130.622 91.2645 132.972 94.5147 134 98.3166C137.659 111.855 124.575 125.805 113.995 129.508C110.043 130.89 105.865 131.562 101.68 131.684C74.4701 132.478 38.4461 115.155 36.5959 81.3237C36.5297 80.1098 36.5133 78.8947 36.5445 77.6824C36.7085 71.2587 38.2563 65.0027 40.5889 59.194C40.5879 59.1942 55.7312 21.5695 91.4648 30.6795Z" fill="#FBF9F9"/>
<mask id="mask1_68_808" style="mask-type:alpha" maskUnits="userSpaceOnUse" x="36" y="29" width="99" height="103">
<path d="M91.4648 30.6795C91.4648 30.6795 126.127 36.1121 123.498 85.5863C123.489 85.7697 127.506 88.4413 127.821 88.7268C130.622 91.2645 132.972 94.5147 134 98.3166C137.659 111.855 124.575 125.805 113.995 129.508C110.043 130.89 105.865 131.562 101.68 131.684C74.4701 132.478 38.4461 115.155 36.5959 81.3237C36.5297 80.1098 36.5133 78.8947 36.5445 77.6824C36.7085 71.2587 38.2563 65.0027 40.5889 59.194C40.5879 59.1942 55.7312 21.5695 91.4648 30.6795Z" fill="#FBF9F9"/>
</mask>
<g mask="url(#mask1_68_808)">
<ellipse cx="94.6432" cy="73.0364" rx="6.25965" ry="6.14366" transform="rotate(14.5234 94.6432 73.0364)" fill="#2FBBB3"/>
<ellipse cx="86.109" cy="74.8968" rx="6.25965" ry="6.14366" transform="rotate(14.5234 86.109 74.8968)" fill="#2FBBB3"/>
<ellipse cx="97.6468" cy="80.2805" rx="6.25964" ry="6.14366" transform="rotate(14.5234 97.6468 80.2805)" fill="#2FBBB3"/>
<ellipse cx="86.7096" cy="81.9976" rx="6.25965" ry="6.14366" transform="rotate(14.5234 86.7096 81.9976)" fill="#2FBBB3"/>
<ellipse cx="94.4842" cy="84.0117" rx="6.25965" ry="6.14366" transform="rotate(14.5234 94.4842 84.0117)" fill="#2FBBB3"/>
<ellipse rx="3.82601" ry="6.14367" transform="matrix(-0.968045 0.250775 0.250775 0.968045 117.946 72.2984)" fill="#2FBBB3"/>
<ellipse rx="3.82601" ry="6.14367" transform="matrix(-0.968045 0.250775 0.250775 0.968045 123.547 74.9188)" fill="#2FBBB3"/>
<ellipse rx="3.826" ry="6.14366" transform="matrix(-0.968045 0.250775 0.250775 0.968045 116.721 79.0821)" fill="#2FBBB3"/>
<ellipse rx="3.826" ry="6.14366" transform="matrix(-0.968045 0.250775 0.250775 0.968045 123.835 81.7894)" fill="#2FBBB3"/>
<ellipse rx="3.826" ry="6.14367" transform="matrix(-0.968045 0.250775 0.250775 0.968045 119.083 83.0203)" fill="#2FBBB3"/>
<ellipse cx="92.6145" cy="78.5695" rx="6.84216" ry="8.2106" transform="rotate(6.421 92.6145 78.5695)" fill="#0E0122"/>
<ellipse rx="3.33904" ry="6.94614" transform="matrix(-0.993727 0.111833 0.111833 0.993727 118.87 78.2691)" fill="#0E0122"/>
<path d="M72.3132 66.8346C72.6298 75.6988 76.0506 80.0253 77.7214 81.0806C75.2152 79.4977 67.9603 76.2 66.7731 68.1537C66.0352 63.1522 71.9175 55.7544 72.3132 66.8346Z" fill="#FFC00C"/>
<path d="M108.528 66.8347C106.553 62.5022 103.368 53.2722 106.426 51.0118C110.248 48.1862 113.88 57.0396 108.528 66.8347Z" fill="#FF5C3C"/>
<path d="M111.586 67.8073C114.281 66.4283 119.473 63.0783 118.687 60.7106C117.704 57.7511 112.415 60.7322 111.586 67.8073Z" fill="#FF937E"/>
<path d="M105.004 68.2902C100.615 66.4432 92.0169 61.8155 92.7335 58.0808C93.6292 53.4124 102.3 57.4608 105.004 68.2902Z" fill="#FF937E"/>
<ellipse cx="50.6804" cy="47.5762" rx="8.70586" ry="8.57395" transform="rotate(90 50.6804 47.5762)" fill="#EF3BFF"/>
<ellipse cx="65.7179" cy="48.1038" rx="8.70586" ry="8.57395" transform="rotate(90 65.7179 48.1038)" fill="#EF3BFF"/>
<ellipse cx="91.3078" cy="34.3855" rx="8.70586" ry="8.57395" transform="rotate(90 91.3078 34.3855)" fill="#EF3BFF"/>
<ellipse cx="79.4362" cy="42.8277" rx="8.70586" ry="8.57395" transform="rotate(90 79.4362 42.8277)" fill="#EF3BFF"/>
<ellipse cx="53.1867" cy="42.6957" rx="7.51869" ry="7.38679" transform="rotate(90 53.1867 42.6957)" fill="#9D3BFF"/>
<ellipse cx="66.1136" cy="43.2233" rx="7.51869" ry="7.38679" transform="rotate(90 66.1136 43.2233)" fill="#9D3BFF"/>
<ellipse cx="88.2739" cy="31.3517" rx="7.51869" ry="7.38679" transform="rotate(90 88.2739 31.3517)" fill="#9D3BFF"/>
<ellipse cx="77.9852" cy="38.7384" rx="7.51869" ry="7.38679" transform="rotate(90 77.9852 38.7384)" fill="#9D3BFF"/>
<ellipse cx="68.4531" cy="32.0241" rx="17.6755" ry="5.82709" transform="rotate(-19.8734 68.4531 32.0241)" fill="#2FBBB3"/>
</g>
<path d="M54.5057 84.5102C51.1289 82.6107 47.4707 75.6285 46.0637 72.3748C46.3569 73.0343 48.2797 77.44 57.1438 82.9273C66.008 88.4146 64.3548 94.2713 63.7392 97.1733C63.7392 91.6332 58.7267 86.8845 54.5057 84.5102Z" fill="#EBE4E4"/>
<g style="mix-blend-mode:multiply" opacity="0.5">
<path d="M124.348 86.021C123.972 86.9424 123.597 88.1197 123.493 88.7931C123.046 91.6811 124.032 94.6633 125.746 96.8072C127.373 98.8428 129.696 100.163 131.947 100.661C132.706 100.829 133.626 100.915 134.431 100.942C133.585 92.5784 126.787 87.5603 124.348 86.021Z" fill="#FFE2F2"/>
</g>
<g style="mix-blend-mode:multiply" opacity="0.5">
<path d="M74.371 108.244C80.1925 106.989 83.7746 100.695 82.3718 94.1859C80.969 87.6766 75.1126 83.4167 69.291 84.6713C63.4695 85.9258 59.8874 92.2197 61.2902 98.7291C62.693 105.238 68.5495 109.498 74.371 108.244Z" fill="#FFE2F2"/>
</g>
<path d="M106.213 89.5227C104.947 87.7288 108.588 82.9713 110.566 82.2678C112.413 83.411 115.816 88.784 114.655 89.5227C113.494 90.2614 111.973 89.2149 111.358 88.5994C110.17 89.6546 107.48 91.3166 106.213 89.5227Z" fill="#0E0122"/>
<path d="M55.74 114.55C37.4367 123.738 20.8245 100.696 26.1455 87.7438C29.5397 79.4819 39.4364 78.8396 45.1711 86.3863C48.5556 90.8403 51.2941 96.5334 52.849 101.98" fill="#FBF9F9"/>
<path opacity="0.3" d="M40.6646 93.9876C43.0196 96.3878 44.9127 99.9478 47.2396 101.934C46.8094 98.6108 46.123 95.0624 44.5118 92.0681C42.8757 89.0267 39.9005 86.5214 36.8712 86.7279C33.1169 86.984 30.0258 91.3639 29.6284 95.3349C29.866 92.9586 34.6381 91.3503 36.4596 91.5754C39.3119 96.9606 40.4163 107.574 40.4163 107.574C42.7924 101.566 41.8303 96.8398 40.6646 93.9876Z" fill="#C9BABA"/>
<path d="M66.3774 74.881C68.0658 77.5191 73.0607 80.9047 75.347 82.2678C72.7089 82.5316 66.5884 82.1886 63.2116 78.7063C58.9906 74.3534 64.2669 71.5833 66.3774 74.881Z" fill="#FFC00C"/>
<path d="M114.219 98.2137C115.015 98.6703 120.577 91.6861 124.28 93.8108C125.53 94.5281 126.484 95.7514 127.2 97.0736C128.774 99.9815 129.312 103.514 128.678 106.774C127.781 111.382 124.672 115.155 121.014 117.655C111.171 124.383 103.363 123.111 92.8584 119.217C84.5896 116.152 73.3235 109.843 75.6575 98.4607C79.7659 78.4239 114.209 98.2079 114.219 98.2137Z" fill="#0E0122"/>
<path d="M116.052 118.486C110.268 113.179 103.157 110.215 95.9466 108.111C89.7792 106.312 82.8352 105.146 76.5928 106.931C79.4855 113.14 86.9289 117.017 92.8584 119.216C102.048 122.622 109.174 124.021 117.401 119.816C116.953 119.371 116.516 118.912 116.052 118.486Z" fill="#5A29A6"/>
<mask id="mask2_68_808" style="mask-type:alpha" maskUnits="userSpaceOnUse" x="75" y="89" width="54" height="34">
<path d="M114.219 98.2137C115.015 98.6703 120.577 91.6861 124.28 93.8108C125.53 94.5281 126.484 95.7514 127.2 97.0736C128.774 99.9815 129.312 103.514 128.678 106.774C127.781 111.382 124.672 115.155 121.014 117.655C111.171 124.383 103.363 123.111 92.8584 119.217C84.5896 116.152 73.3235 109.843 75.6575 98.4607C79.7659 78.4239 114.209 98.2079 114.219 98.2137Z" fill="#873C41"/>
</mask>
<g mask="url(#mask2_68_808)">
<ellipse cx="95.9245" cy="93.2159" rx="8.70586" ry="8.70586" fill="#FBF9F9"/>
<circle cx="108.851" cy="96.6456" r="8.70586" fill="#FBF9F9"/>
<circle cx="120.459" cy="93.7437" r="8.70586" fill="#FBF9F9"/>
<ellipse cx="86.0101" cy="117.861" rx="8.70586" ry="8.70585" transform="rotate(4.37059 86.0101 117.861)" fill="#FBF9F9"/>
<ellipse cx="99.9532" cy="122.366" rx="8.70586" ry="8.70585" transform="rotate(4.37059 99.9532 122.366)" fill="#FBF9F9"/>
<ellipse cx="114.035" cy="121.591" rx="8.70586" ry="8.70585" transform="rotate(4.37059 114.035 121.591)" fill="#FBF9F9"/>
</g>
<path d="M90.6595 82.5744C92.9867 82.5323 95.3166 83.3709 97.3776 84.6234C98.6138 83.3599 99.208 81.2011 98.7435 78.9461C98.092 75.7813 95.6278 73.6592 93.2397 74.2069C90.8515 74.7547 89.4449 77.7648 90.0974 80.9295C90.2189 81.5235 90.422 82.0657 90.6595 82.5744Z" fill="#FF3C15"/>
<path d="M121.162 82.9603C121.505 82.2018 121.707 81.2755 121.687 80.2637C121.64 77.7494 120.294 75.7211 118.68 75.7349C117.067 75.7477 115.798 77.7973 115.845 80.3126C115.871 81.6955 116.299 82.9169 116.939 83.7468C118.285 83.2243 119.716 82.9749 121.162 82.9603Z" fill="#FF3C15"/>
<path d="M99.3935 63.9951C95.788 63.4086 91.9245 64.7561 89.3309 67.4892C88.4946 68.3704 88.2607 69.9334 89.1344 70.9284C89.9416 71.849 91.4101 72.1306 92.3051 71.1861C92.5734 70.9029 92.8535 70.6346 93.1506 70.3859C93.243 70.3085 93.4995 70.171 93.5803 70.0566C93.6253 70.0269 93.6693 69.9972 93.7153 69.9685C93.9986 69.7901 94.2898 69.6268 94.588 69.4787C94.7589 69.394 94.9313 69.3155 95.1059 69.2411C95.161 69.2179 95.2162 69.1958 95.2724 69.1735C95.4257 69.1469 95.6016 69.0639 95.7414 69.0257C95.9237 68.9758 96.1065 68.9322 96.2917 68.8936C96.6145 68.8264 96.9406 68.7757 97.268 68.7428C97.314 68.7382 97.359 68.7347 97.4051 68.7311C97.5817 68.7319 97.7581 68.7286 97.9352 68.7358C98.3118 68.7514 98.6866 68.7934 99.0599 68.8534C100.225 69.0434 101.433 67.8961 101.468 66.636C101.504 65.249 100.642 64.1985 99.3935 63.9951Z" fill="#2A003E"/>
<path d="M123.599 68.1373C122.29 66.3353 120.366 65.1528 118.291 64.8095C117.731 64.717 117.077 64.9317 116.64 65.3056C116.209 65.6738 115.848 66.3228 115.81 66.9287C115.772 67.5578 115.896 68.2329 116.289 68.7276C116.687 69.2292 117.186 69.5477 117.794 69.6491C117.894 69.6654 117.991 69.6935 118.09 69.7151C118.383 69.816 118.665 69.9407 118.941 70.0869C119.255 70.2994 119.549 70.5407 119.824 70.8107C119.913 70.9181 120.008 71.0208 120.091 71.1348C120.45 71.628 121.026 71.9794 121.597 72.0564C122.144 72.13 122.825 71.9541 123.248 71.5593C123.686 71.1507 124.037 70.5842 124.077 69.9361C124.118 69.2902 123.979 68.6592 123.599 68.1373Z" fill="#2A003E"/>
<path d="M36.5402 77.0107C36.509 78.2215 36.5254 79.4352 36.5916 80.6476C46.628 82.353 51.3814 93.1118 52.5036 98.2781C52.5036 98.2781 55.4899 98.4537 56.1925 97.8828C59.8815 95.9505 66.4426 88.0281 63.1752 71.7967C61.5942 64.4188 62.6482 58.5445 75.5595 49.3995C88.4709 40.2544 109.024 45.974 113.24 49.3995C116.612 52.1398 118.229 53.1763 118.616 53.3519C109.613 32.9197 91.3945 30.0643 91.3945 30.0643C53.2941 20.4148 40.5104 58.1722 40.3828 58.4901C38.0529 64.2918 36.704 70.5947 36.5402 77.0107Z" fill="#21625A"/>
<path d="M75.5596 28.8468C91.8964 29.7953 100.46 40.3089 102.7 45.447C104.808 55.1437 115.787 59.7637 121.013 60.8616C122.805 67.0801 123.252 79.7894 123.252 85.235C128.206 87.87 131.201 91.7785 132.08 93.5351C130.894 88.7922 132.343 87.4747 133.265 81.9413C134.188 76.4079 127.6 69.03 125.36 66.1315C123.121 63.233 126.941 53.3519 124.702 48.082C122.462 42.8121 115.216 38.2009 111.395 37.8056C107.574 37.4104 107.706 32.1405 96.5075 27.661C87.5487 24.0775 78.8094 26.9584 75.5596 28.8468Z" fill="#238D81"/>
<path d="M134.319 103.812C134.003 107.817 131.684 112.814 130.63 114.747C126.157 121.492 119.544 126.077 116.929 127.394C124.939 132.664 134.539 130.337 138.14 128.712C137.613 128.273 136.427 126.841 135.9 124.628C135.242 121.861 139.721 117.909 139.194 112.902C138.772 108.897 135.769 105.173 134.319 103.812Z" fill="#238D81"/>
<mask id="mask3_68_808" style="mask-type:alpha" maskUnits="userSpaceOnUse" x="75" y="25" width="65" height="106">
<path d="M75.5596 28.8468C91.8964 29.7953 100.46 40.3089 102.7 45.447C104.808 55.1437 115.787 59.7637 121.013 60.8616C122.805 67.0801 123.252 79.7894 123.252 85.235C128.206 87.87 131.201 91.7785 132.08 93.5351C130.894 88.7922 132.343 87.4747 133.265 81.9413C134.188 76.4079 127.6 69.03 125.36 66.1315C123.121 63.233 126.941 53.3519 124.702 48.082C122.462 42.8121 115.216 38.2009 111.395 37.8056C107.574 37.4104 107.706 32.1405 96.5075 27.661C87.5487 24.0775 78.8094 26.9584 75.5596 28.8468Z" fill="#238D81"/>
<path d="M134.319 103.812C134.003 107.817 131.684 112.814 130.63 114.747C126.157 121.492 119.544 126.077 116.929 127.394C124.939 132.664 134.539 130.337 138.14 128.712C137.613 128.273 136.427 126.841 135.9 124.628C135.242 121.861 139.721 117.909 139.194 112.902C138.772 108.897 135.769 105.173 134.319 103.812Z" fill="#238D81"/>
</mask>
<g mask="url(#mask3_68_808)">
<path d="M110.605 52.1661C107.337 49.6365 105.203 45.3152 104.544 43.4707C105.466 45.1907 108.76 49.3377 114.557 52.1661C120.354 54.9945 122.506 58.1754 122.857 59.4122C120.749 55.5915 114.689 55.328 110.605 52.1661Z" fill="#DCDCDC" style="mix-blend-mode:multiply"/>
<path d="M129.576 83.5222C129.787 81.2034 129.049 78.2523 128.654 77.0665C128.654 78.3401 128.522 81.4142 127.995 83.5222C127.468 85.6302 126.107 87.299 125.492 87.8699L129.576 90.5048C127.864 88.1334 129.313 86.4206 129.576 83.5222Z" fill="#DCDCDC" style="mix-blend-mode:multiply"/>
<path d="M135.637 116.459C136.796 113.93 136.12 111.541 135.637 110.662C135.637 115.801 133.529 115.669 131.421 119.885C129.313 124.101 130.894 128.317 129.576 127.658C128.522 127.131 128.083 125.857 127.995 125.286C127.468 128.554 128.215 131.215 128.654 132.137C132.343 132.559 134.846 130.381 135.637 129.239C132.343 124.364 134.188 119.621 135.637 116.459Z" fill="#DCDCDC" style="mix-blend-mode:multiply"/>
</g>
</svg>
