<svg width="36" height="37" viewBox="0 0 36 37" fill="none" xmlns="http://www.w3.org/2000/svg">
<path d="M4.5 27.9338V18.9338C4.5 15.3534 5.92232 11.9196 8.45406 9.3879C10.9858 6.85616 14.4196 5.43384 18 5.43384C21.5804 5.43384 25.0142 6.85616 27.5459 9.3879C30.0777 11.9196 31.5 15.3534 31.5 18.9338V27.9338" stroke="#475569" stroke-width="3" stroke-linecap="round" stroke-linejoin="round"/>
<path d="M31.5 29.4338C31.5 30.2295 31.1839 30.9925 30.6213 31.5552C30.0587 32.1178 29.2956 32.4338 28.5 32.4338H27C26.2044 32.4338 25.4413 32.1178 24.8787 31.5552C24.3161 30.9925 24 30.2295 24 29.4338V24.9338C24 24.1382 24.3161 23.3751 24.8787 22.8125C25.4413 22.2499 26.2044 21.9338 27 21.9338H31.5V29.4338ZM4.5 29.4338C4.5 30.2295 4.81607 30.9925 5.37868 31.5552C5.94129 32.1178 6.70435 32.4338 7.5 32.4338H9C9.79565 32.4338 10.5587 32.1178 11.1213 31.5552C11.6839 30.9925 12 30.2295 12 29.4338V24.9338C12 24.1382 11.6839 23.3751 11.1213 22.8125C10.5587 22.2499 9.79565 21.9338 9 21.9338H4.5V29.4338Z" stroke="#475569" stroke-width="3" stroke-linecap="round" stroke-linejoin="round"/>
</svg>
