<svg width="37" height="37" viewBox="0 0 37 37" fill="none" xmlns="http://www.w3.org/2000/svg">
<path d="M29 5.43384H8C6.34315 5.43384 5 6.77698 5 8.43384V29.4338C5 31.0907 6.34315 32.4338 8 32.4338H29C30.6569 32.4338 32 31.0907 32 29.4338V8.43384C32 6.77698 30.6569 5.43384 29 5.43384Z" stroke="#475569" stroke-width="3" stroke-linecap="round" stroke-linejoin="round"/>
<path d="M13.25 15.9338C14.4926 15.9338 15.5 14.9265 15.5 13.6838C15.5 12.4412 14.4926 11.4338 13.25 11.4338C12.0074 11.4338 11 12.4412 11 13.6838C11 14.9265 12.0074 15.9338 13.25 15.9338Z" stroke="#475569" stroke-width="3" stroke-linecap="round" stroke-linejoin="round"/>
<path d="M32 23.4338L24.5 15.9338L8 32.4338" stroke="#475569" stroke-width="3" stroke-linecap="round" stroke-linejoin="round"/>
</svg>
