<svg width="36" height="36" viewBox="0 0 36 36" fill="none" xmlns="http://www.w3.org/2000/svg">
<path d="M28.5 4.5H7.5C5.84315 4.5 4.5 5.84315 4.5 7.5V28.5C4.5 30.1569 5.84315 31.5 7.5 31.5H28.5C30.1569 31.5 31.5 30.1569 31.5 28.5V7.5C31.5 5.84315 30.1569 4.5 28.5 4.5Z" stroke="#15803D" stroke-width="3" stroke-linecap="round" stroke-linejoin="round"/>
<path d="M12.75 15C13.9926 15 15 13.9926 15 12.75C15 11.5074 13.9926 10.5 12.75 10.5C11.5074 10.5 10.5 11.5074 10.5 12.75C10.5 13.9926 11.5074 15 12.75 15Z" stroke="#15803D" stroke-width="3" stroke-linecap="round" stroke-linejoin="round"/>
<path d="M31.5 22.5L24 15L7.5 31.5" stroke="#15803D" stroke-width="3" stroke-linecap="round" stroke-linejoin="round"/>
</svg>
